<?xml version="1.0" encoding="UTF-8" standalone="no"?>
<!DOCTYPE svg PUBLIC "-//W3C//DTD SVG 1.1//EN"
 "http://www.w3.org/Graphics/SVG/1.1/DTD/svg11.dtd">
<!-- Generated by graphviz version 2.38.0 (20140413.2041)
 -->
<!-- Title: snakemake_dag Pages: 1 -->
<svg width="2483pt" height="404pt"
 viewBox="0.00 0.00 2483.00 404.00" xmlns="http://www.w3.org/2000/svg" xmlns:xlink="http://www.w3.org/1999/xlink">
<g id="graph0" class="graph" transform="scale(1 1) rotate(0) translate(4 400)">
<title>snakemake_dag</title>
<polygon fill="white" stroke="none" points="-4,4 -4,-400 2479,-400 2479,4 -4,4"/>
<!-- 0 -->
<g id="node1" class="node"><title>0</title>
<path fill="none" stroke="#569ad8" stroke-width="2" stroke-dasharray="5,2" d="M1180.5,-36C1180.5,-36 1150.5,-36 1150.5,-36 1144.5,-36 1138.5,-30 1138.5,-24 1138.5,-24 1138.5,-12 1138.5,-12 1138.5,-6 1144.5,-0 1150.5,-0 1150.5,-0 1180.5,-0 1180.5,-0 1186.5,-0 1192.5,-6 1192.5,-12 1192.5,-12 1192.5,-24 1192.5,-24 1192.5,-30 1186.5,-36 1180.5,-36"/>
<text text-anchor="middle" x="1165.5" y="-15.5" font-family="sans" font-size="10.00">all</text>
</g>
<!-- 1 -->
<g id="node2" class="node"><title>1</title>
<path fill="none" stroke="#d6d856" stroke-width="2" stroke-dasharray="5,2" d="M349,-252C349,-252 316,-252 316,-252 310,-252 304,-246 304,-240 304,-240 304,-228 304,-228 304,-222 310,-216 316,-216 316,-216 349,-216 349,-216 355,-216 361,-222 361,-228 361,-228 361,-240 361,-240 361,-246 355,-252 349,-252"/>
<text text-anchor="middle" x="332.5" y="-231.5" font-family="sans" font-size="10.00">sortbam</text>
</g>
<!-- 1&#45;&gt;0 -->
<g id="edge1" class="edge"><title>1&#45;&gt;0</title>
<path fill="none" stroke="grey" stroke-width="2" d="M328.334,-215.857C321.403,-182.664 311.891,-109.584 351.5,-72 408.371,-18.0366 975.888,-17.7737 1128.1,-18.6864"/>
<polygon fill="grey" stroke="grey" stroke-width="2" points="1128.31,-22.1877 1138.33,-18.7534 1128.35,-15.1879 1128.31,-22.1877"/>
</g>
<!-- 38 -->
<g id="node39" class="node"><title>38</title>
<path fill="none" stroke="#d89556" stroke-width="2" stroke-dasharray="5,2" d="M806.5,-180C806.5,-180 732.5,-180 732.5,-180 726.5,-180 720.5,-174 720.5,-168 720.5,-168 720.5,-156 720.5,-156 720.5,-150 726.5,-144 732.5,-144 732.5,-144 806.5,-144 806.5,-144 812.5,-144 818.5,-150 818.5,-156 818.5,-156 818.5,-168 818.5,-168 818.5,-174 812.5,-180 806.5,-180"/>
<text text-anchor="middle" x="769.5" y="-159.5" font-family="sans" font-size="10.00">fragment_length</text>
</g>
<!-- 1&#45;&gt;38 -->
<g id="edge74" class="edge"><title>1&#45;&gt;38</title>
<path fill="none" stroke="grey" stroke-width="2" d="M361.173,-228.407C431.8,-217.094 615.303,-187.7 710.41,-172.465"/>
<polygon fill="grey" stroke="grey" stroke-width="2" points="711.124,-175.896 720.445,-170.858 710.017,-168.984 711.124,-175.896"/>
</g>
<!-- 2 -->
<g id="node3" class="node"><title>2</title>
<path fill="none" stroke="#d6d856" stroke-width="2" stroke-dasharray="5,2" d="M538,-252C538,-252 505,-252 505,-252 499,-252 493,-246 493,-240 493,-240 493,-228 493,-228 493,-222 499,-216 505,-216 505,-216 538,-216 538,-216 544,-216 550,-222 550,-228 550,-228 550,-240 550,-240 550,-246 544,-252 538,-252"/>
<text text-anchor="middle" x="521.5" y="-231.5" font-family="sans" font-size="10.00">sortbam</text>
</g>
<!-- 2&#45;&gt;0 -->
<g id="edge2" class="edge"><title>2&#45;&gt;0</title>
<path fill="none" stroke="grey" stroke-width="2" d="M519.711,-215.916C517.266,-182.494 517.252,-108.543 559.5,-72 602.527,-34.7829 1002.43,-22.669 1127.98,-19.7662"/>
<polygon fill="grey" stroke="grey" stroke-width="2" points="1128.32,-23.2594 1138.24,-19.5354 1128.16,-16.2612 1128.32,-23.2594"/>
</g>
<!-- 39 -->
<g id="node40" class="node"><title>39</title>
<path fill="none" stroke="#d89556" stroke-width="2" stroke-dasharray="5,2" d="M922.5,-180C922.5,-180 848.5,-180 848.5,-180 842.5,-180 836.5,-174 836.5,-168 836.5,-168 836.5,-156 836.5,-156 836.5,-150 842.5,-144 848.5,-144 848.5,-144 922.5,-144 922.5,-144 928.5,-144 934.5,-150 934.5,-156 934.5,-156 934.5,-168 934.5,-168 934.5,-174 928.5,-180 922.5,-180"/>
<text text-anchor="middle" x="885.5" y="-159.5" font-family="sans" font-size="10.00">fragment_length</text>
</g>
<!-- 2&#45;&gt;39 -->
<g id="edge75" class="edge"><title>2&#45;&gt;39</title>
<path fill="none" stroke="grey" stroke-width="2" d="M550.007,-228.488C612.072,-218.599 758.663,-194.873 826.118,-180.136"/>
<polygon fill="grey" stroke="grey" stroke-width="2" points="827.256,-183.468 836.24,-177.852 825.715,-176.639 827.256,-183.468"/>
</g>
<!-- 3 -->
<g id="node4" class="node"><title>3</title>
<path fill="none" stroke="#d6d856" stroke-width="2" stroke-dasharray="5,2" d="M690,-252C690,-252 657,-252 657,-252 651,-252 645,-246 645,-240 645,-240 645,-228 645,-228 645,-222 651,-216 657,-216 657,-216 690,-216 690,-216 696,-216 702,-222 702,-228 702,-228 702,-240 702,-240 702,-246 696,-252 690,-252"/>
<text text-anchor="middle" x="673.5" y="-231.5" font-family="sans" font-size="10.00">sortbam</text>
</g>
<!-- 3&#45;&gt;0 -->
<g id="edge3" class="edge"><title>3&#45;&gt;0</title>
<path fill="none" stroke="grey" stroke-width="2" d="M669.395,-215.797C665.829,-196.426 663.337,-164.929 678.5,-144 704.26,-108.443 820.219,-83.8417 862.5,-72 956.417,-45.6963 1070.54,-29.9487 1128.25,-23.0829"/>
<polygon fill="grey" stroke="grey" stroke-width="2" points="1128.82,-26.5398 1138.35,-21.9037 1128.01,-19.5871 1128.82,-26.5398"/>
</g>
<!-- 40 -->
<g id="node41" class="node"><title>40</title>
<path fill="none" stroke="#d89556" stroke-width="2" stroke-dasharray="5,2" d="M1038.5,-180C1038.5,-180 964.5,-180 964.5,-180 958.5,-180 952.5,-174 952.5,-168 952.5,-168 952.5,-156 952.5,-156 952.5,-150 958.5,-144 964.5,-144 964.5,-144 1038.5,-144 1038.5,-144 1044.5,-144 1050.5,-150 1050.5,-156 1050.5,-156 1050.5,-168 1050.5,-168 1050.5,-174 1044.5,-180 1038.5,-180"/>
<text text-anchor="middle" x="1001.5" y="-159.5" font-family="sans" font-size="10.00">fragment_length</text>
</g>
<!-- 3&#45;&gt;40 -->
<g id="edge76" class="edge"><title>3&#45;&gt;40</title>
<path fill="none" stroke="grey" stroke-width="2" d="M702.063,-228.277C749.848,-220.186 849.162,-202.561 942.353,-180.171"/>
<polygon fill="grey" stroke="grey" stroke-width="2" points="943.329,-183.536 952.222,-177.776 941.678,-176.733 943.329,-183.536"/>
</g>
<!-- 4 -->
<g id="node5" class="node"><title>4</title>
<path fill="none" stroke="#d6d856" stroke-width="2" stroke-dasharray="5,2" d="M1076,-252C1076,-252 1043,-252 1043,-252 1037,-252 1031,-246 1031,-240 1031,-240 1031,-228 1031,-228 1031,-222 1037,-216 1043,-216 1043,-216 1076,-216 1076,-216 1082,-216 1088,-222 1088,-228 1088,-228 1088,-240 1088,-240 1088,-246 1082,-252 1076,-252"/>
<text text-anchor="middle" x="1059.5" y="-231.5" font-family="sans" font-size="10.00">sortbam</text>
</g>
<!-- 4&#45;&gt;0 -->
<g id="edge4" class="edge"><title>4&#45;&gt;0</title>
<path fill="none" stroke="grey" stroke-width="2" d="M1060.16,-215.847C1061.86,-179.382 1067.33,-95.5596 1082.5,-72 1093.51,-54.8999 1112.22,-42.2472 1129.08,-33.6013"/>
<polygon fill="grey" stroke="grey" stroke-width="2" points="1130.71,-36.7008 1138.2,-29.2074 1127.67,-30.3944 1130.71,-36.7008"/>
</g>
<!-- 41 -->
<g id="node42" class="node"><title>41</title>
<path fill="none" stroke="#d89556" stroke-width="2" stroke-dasharray="5,2" d="M1268.5,-180C1268.5,-180 1194.5,-180 1194.5,-180 1188.5,-180 1182.5,-174 1182.5,-168 1182.5,-168 1182.5,-156 1182.5,-156 1182.5,-150 1188.5,-144 1194.5,-144 1194.5,-144 1268.5,-144 1268.5,-144 1274.5,-144 1280.5,-150 1280.5,-156 1280.5,-156 1280.5,-168 1280.5,-168 1280.5,-174 1274.5,-180 1268.5,-180"/>
<text text-anchor="middle" x="1231.5" y="-159.5" font-family="sans" font-size="10.00">fragment_length</text>
</g>
<!-- 4&#45;&gt;41 -->
<g id="edge77" class="edge"><title>4&#45;&gt;41</title>
<path fill="none" stroke="grey" stroke-width="2" d="M1088.29,-221.284C1113.31,-211.099 1150.17,-196.1 1180.22,-183.869"/>
<polygon fill="grey" stroke="grey" stroke-width="2" points="1181.77,-187.016 1189.72,-180.004 1179.14,-180.532 1181.77,-187.016"/>
</g>
<!-- 5 -->
<g id="node6" class="node"><title>5</title>
<path fill="none" stroke="#d6d856" stroke-width="2" stroke-dasharray="5,2" d="M1190,-252C1190,-252 1157,-252 1157,-252 1151,-252 1145,-246 1145,-240 1145,-240 1145,-228 1145,-228 1145,-222 1151,-216 1157,-216 1157,-216 1190,-216 1190,-216 1196,-216 1202,-222 1202,-228 1202,-228 1202,-240 1202,-240 1202,-246 1196,-252 1190,-252"/>
<text text-anchor="middle" x="1173.5" y="-231.5" font-family="sans" font-size="10.00">sortbam</text>
</g>
<!-- 5&#45;&gt;0 -->
<g id="edge5" class="edge"><title>5&#45;&gt;0</title>
<path fill="none" stroke="grey" stroke-width="2" d="M1172.66,-215.904C1171.98,-197.96 1171.44,-168.946 1173.5,-144 1174.84,-127.835 1178.16,-124.165 1179.5,-108 1180.82,-92.0545 1181.56,-87.8668 1179.5,-72 1178.4,-63.506 1176.34,-54.4338 1174.13,-46.2397"/>
<polygon fill="grey" stroke="grey" stroke-width="2" points="1177.45,-45.0872 1171.32,-36.4397 1170.72,-47.0172 1177.45,-45.0872"/>
</g>
<!-- 42 -->
<g id="node43" class="node"><title>42</title>
<path fill="none" stroke="#d89556" stroke-width="2" stroke-dasharray="5,2" d="M1384.5,-180C1384.5,-180 1310.5,-180 1310.5,-180 1304.5,-180 1298.5,-174 1298.5,-168 1298.5,-168 1298.5,-156 1298.5,-156 1298.5,-150 1304.5,-144 1310.5,-144 1310.5,-144 1384.5,-144 1384.5,-144 1390.5,-144 1396.5,-150 1396.5,-156 1396.5,-156 1396.5,-168 1396.5,-168 1396.5,-174 1390.5,-180 1384.5,-180"/>
<text text-anchor="middle" x="1347.5" y="-159.5" font-family="sans" font-size="10.00">fragment_length</text>
</g>
<!-- 5&#45;&gt;42 -->
<g id="edge78" class="edge"><title>5&#45;&gt;42</title>
<path fill="none" stroke="grey" stroke-width="2" d="M1202.23,-221.441C1227.49,-211.279 1264.88,-196.239 1295.4,-183.961"/>
<polygon fill="grey" stroke="grey" stroke-width="2" points="1297.07,-187.061 1305.04,-180.082 1294.46,-180.567 1297.07,-187.061"/>
</g>
<!-- 6 -->
<g id="node7" class="node"><title>6</title>
<path fill="none" stroke="#d6d856" stroke-width="2" stroke-dasharray="5,2" d="M1525,-252C1525,-252 1492,-252 1492,-252 1486,-252 1480,-246 1480,-240 1480,-240 1480,-228 1480,-228 1480,-222 1486,-216 1492,-216 1492,-216 1525,-216 1525,-216 1531,-216 1537,-222 1537,-228 1537,-228 1537,-240 1537,-240 1537,-246 1531,-252 1525,-252"/>
<text text-anchor="middle" x="1508.5" y="-231.5" font-family="sans" font-size="10.00">sortbam</text>
</g>
<!-- 6&#45;&gt;0 -->
<g id="edge6" class="edge"><title>6&#45;&gt;0</title>
<path fill="none" stroke="grey" stroke-width="2" d="M1517.21,-215.932C1525.55,-196.966 1535.03,-166.108 1521.5,-144 1454.13,-33.9502 1279.65,-19.25 1202.79,-18.3208"/>
<polygon fill="grey" stroke="grey" stroke-width="2" points="1202.63,-14.8201 1192.62,-18.2726 1202.6,-21.82 1202.63,-14.8201"/>
</g>
<!-- 43 -->
<g id="node44" class="node"><title>43</title>
<path fill="none" stroke="#d89556" stroke-width="2" stroke-dasharray="5,2" d="M1500.5,-180C1500.5,-180 1426.5,-180 1426.5,-180 1420.5,-180 1414.5,-174 1414.5,-168 1414.5,-168 1414.5,-156 1414.5,-156 1414.5,-150 1420.5,-144 1426.5,-144 1426.5,-144 1500.5,-144 1500.5,-144 1506.5,-144 1512.5,-150 1512.5,-156 1512.5,-156 1512.5,-168 1512.5,-168 1512.5,-174 1506.5,-180 1500.5,-180"/>
<text text-anchor="middle" x="1463.5" y="-159.5" font-family="sans" font-size="10.00">fragment_length</text>
</g>
<!-- 6&#45;&gt;43 -->
<g id="edge79" class="edge"><title>6&#45;&gt;43</title>
<path fill="none" stroke="grey" stroke-width="2" d="M1497.38,-215.697C1492.14,-207.559 1485.8,-197.689 1480.02,-188.701"/>
<polygon fill="grey" stroke="grey" stroke-width="2" points="1482.85,-186.623 1474.5,-180.104 1476.96,-190.409 1482.85,-186.623"/>
</g>
<!-- 7 -->
<g id="node8" class="node"><title>7</title>
<path fill="none" stroke="#d6d856" stroke-width="2" stroke-dasharray="5,2" d="M1822,-252C1822,-252 1789,-252 1789,-252 1783,-252 1777,-246 1777,-240 1777,-240 1777,-228 1777,-228 1777,-222 1783,-216 1789,-216 1789,-216 1822,-216 1822,-216 1828,-216 1834,-222 1834,-228 1834,-228 1834,-240 1834,-240 1834,-246 1828,-252 1822,-252"/>
<text text-anchor="middle" x="1805.5" y="-231.5" font-family="sans" font-size="10.00">sortbam</text>
</g>
<!-- 7&#45;&gt;0 -->
<g id="edge7" class="edge"><title>7&#45;&gt;0</title>
<path fill="none" stroke="grey" stroke-width="2" d="M1812.2,-215.929C1818.56,-196.68 1825.15,-165.293 1810.5,-144 1759.79,-70.282 1709.4,-93.3205 1622.5,-72 1469.88,-34.5542 1281.92,-23.3609 1203.09,-20.1855"/>
<polygon fill="grey" stroke="grey" stroke-width="2" points="1202.83,-16.6731 1192.7,-19.7887 1202.56,-23.668 1202.83,-16.6731"/>
</g>
<!-- 44 -->
<g id="node45" class="node"><title>44</title>
<path fill="none" stroke="#d89556" stroke-width="2" stroke-dasharray="5,2" d="M1789.5,-180C1789.5,-180 1715.5,-180 1715.5,-180 1709.5,-180 1703.5,-174 1703.5,-168 1703.5,-168 1703.5,-156 1703.5,-156 1703.5,-150 1709.5,-144 1715.5,-144 1715.5,-144 1789.5,-144 1789.5,-144 1795.5,-144 1801.5,-150 1801.5,-156 1801.5,-156 1801.5,-168 1801.5,-168 1801.5,-174 1795.5,-180 1789.5,-180"/>
<text text-anchor="middle" x="1752.5" y="-159.5" font-family="sans" font-size="10.00">fragment_length</text>
</g>
<!-- 7&#45;&gt;44 -->
<g id="edge80" class="edge"><title>7&#45;&gt;44</title>
<path fill="none" stroke="grey" stroke-width="2" d="M1792.4,-215.697C1786.11,-207.389 1778.45,-197.277 1771.54,-188.141"/>
<polygon fill="grey" stroke="grey" stroke-width="2" points="1774.28,-185.964 1765.45,-180.104 1768.7,-190.19 1774.28,-185.964"/>
</g>
<!-- 8 -->
<g id="node9" class="node"><title>8</title>
<path fill="none" stroke="#d6d856" stroke-width="2" stroke-dasharray="5,2" d="M2095,-252C2095,-252 2062,-252 2062,-252 2056,-252 2050,-246 2050,-240 2050,-240 2050,-228 2050,-228 2050,-222 2056,-216 2062,-216 2062,-216 2095,-216 2095,-216 2101,-216 2107,-222 2107,-228 2107,-228 2107,-240 2107,-240 2107,-246 2101,-252 2095,-252"/>
<text text-anchor="middle" x="2078.5" y="-231.5" font-family="sans" font-size="10.00">sortbam</text>
</g>
<!-- 8&#45;&gt;0 -->
<g id="edge8" class="edge"><title>8&#45;&gt;0</title>
<path fill="none" stroke="grey" stroke-width="2" d="M2075.85,-215.908C2069.55,-181.789 2050.24,-105.627 1999.5,-72 1932.48,-27.5797 1356.16,-20.3479 1202.84,-19.2072"/>
<polygon fill="grey" stroke="grey" stroke-width="2" points="1202.56,-15.7053 1192.54,-19.1352 1202.52,-22.7051 1202.56,-15.7053"/>
</g>
<!-- 45 -->
<g id="node46" class="node"><title>45</title>
<path fill="none" stroke="#d89556" stroke-width="2" stroke-dasharray="5,2" d="M1981.5,-180C1981.5,-180 1907.5,-180 1907.5,-180 1901.5,-180 1895.5,-174 1895.5,-168 1895.5,-168 1895.5,-156 1895.5,-156 1895.5,-150 1901.5,-144 1907.5,-144 1907.5,-144 1981.5,-144 1981.5,-144 1987.5,-144 1993.5,-150 1993.5,-156 1993.5,-156 1993.5,-168 1993.5,-168 1993.5,-174 1987.5,-180 1981.5,-180"/>
<text text-anchor="middle" x="1944.5" y="-159.5" font-family="sans" font-size="10.00">fragment_length</text>
</g>
<!-- 8&#45;&gt;45 -->
<g id="edge81" class="edge"><title>8&#45;&gt;45</title>
<path fill="none" stroke="grey" stroke-width="2" d="M2049.75,-217.983C2031.26,-208.325 2006.93,-195.613 1986.32,-184.846"/>
<polygon fill="grey" stroke="grey" stroke-width="2" points="1987.93,-181.737 1977.44,-180.209 1984.69,-187.942 1987.93,-181.737"/>
</g>
<!-- 9 -->
<g id="node10" class="node"><title>9</title>
<path fill="none" stroke="#d6d856" stroke-width="2" stroke-dasharray="5,2" d="M2325,-252C2325,-252 2292,-252 2292,-252 2286,-252 2280,-246 2280,-240 2280,-240 2280,-228 2280,-228 2280,-222 2286,-216 2292,-216 2292,-216 2325,-216 2325,-216 2331,-216 2337,-222 2337,-228 2337,-228 2337,-240 2337,-240 2337,-246 2331,-252 2325,-252"/>
<text text-anchor="middle" x="2308.5" y="-231.5" font-family="sans" font-size="10.00">sortbam</text>
</g>
<!-- 9&#45;&gt;0 -->
<g id="edge9" class="edge"><title>9&#45;&gt;0</title>
<path fill="none" stroke="grey" stroke-width="2" d="M2311.41,-215.717C2313.72,-197.108 2315.04,-167.071 2304.5,-144 2285.16,-101.681 2271.28,-90.2947 2228.5,-72 2132.66,-31.0165 1379.94,-21.1047 1202.76,-19.3302"/>
<polygon fill="grey" stroke="grey" stroke-width="2" points="1202.67,-15.8292 1192.63,-19.2314 1202.6,-22.8289 1202.67,-15.8292"/>
</g>
<!-- 46 -->
<g id="node47" class="node"><title>46</title>
<path fill="none" stroke="#d89556" stroke-width="2" stroke-dasharray="5,2" d="M2173.5,-180C2173.5,-180 2099.5,-180 2099.5,-180 2093.5,-180 2087.5,-174 2087.5,-168 2087.5,-168 2087.5,-156 2087.5,-156 2087.5,-150 2093.5,-144 2099.5,-144 2099.5,-144 2173.5,-144 2173.5,-144 2179.5,-144 2185.5,-150 2185.5,-156 2185.5,-156 2185.5,-168 2185.5,-168 2185.5,-174 2179.5,-180 2173.5,-180"/>
<text text-anchor="middle" x="2136.5" y="-159.5" font-family="sans" font-size="10.00">fragment_length</text>
</g>
<!-- 9&#45;&gt;46 -->
<g id="edge82" class="edge"><title>9&#45;&gt;46</title>
<path fill="none" stroke="grey" stroke-width="2" d="M2279.71,-221.284C2254.69,-211.099 2217.83,-196.1 2187.78,-183.869"/>
<polygon fill="grey" stroke="grey" stroke-width="2" points="2188.86,-180.532 2178.28,-180.004 2186.23,-187.016 2188.86,-180.532"/>
</g>
<!-- 10 -->
<g id="node11" class="node"><title>10</title>
<path fill="none" stroke="#56d89a" stroke-width="2" stroke-dasharray="5,2" d="M1359.5,-108C1359.5,-108 1261.5,-108 1261.5,-108 1255.5,-108 1249.5,-102 1249.5,-96 1249.5,-96 1249.5,-84 1249.5,-84 1249.5,-78 1255.5,-72 1261.5,-72 1261.5,-72 1359.5,-72 1359.5,-72 1365.5,-72 1371.5,-78 1371.5,-84 1371.5,-84 1371.5,-96 1371.5,-96 1371.5,-102 1365.5,-108 1359.5,-108"/>
<text text-anchor="middle" x="1310.5" y="-87.5" font-family="sans" font-size="10.00">fragment_length_plot</text>
</g>
<!-- 10&#45;&gt;0 -->
<g id="edge10" class="edge"><title>10&#45;&gt;0</title>
<path fill="none" stroke="grey" stroke-width="2" d="M1275.03,-71.8761C1252.87,-61.1805 1224.41,-47.4404 1202.06,-36.6474"/>
<polygon fill="grey" stroke="grey" stroke-width="2" points="1203.41,-33.4154 1192.88,-32.2198 1200.37,-39.7193 1203.41,-33.4154"/>
</g>
<!-- 11 -->
<g id="node12" class="node"><title>11</title>
<path fill="none" stroke="#d85656" stroke-width="2" stroke-dasharray="5,2" d="M139.5,-324C139.5,-324 109.5,-324 109.5,-324 103.5,-324 97.5,-318 97.5,-312 97.5,-312 97.5,-300 97.5,-300 97.5,-294 103.5,-288 109.5,-288 109.5,-288 139.5,-288 139.5,-288 145.5,-288 151.5,-294 151.5,-300 151.5,-300 151.5,-312 151.5,-312 151.5,-318 145.5,-324 139.5,-324"/>
<text text-anchor="middle" x="124.5" y="-303.5" font-family="sans" font-size="10.00">fastqc</text>
</g>
<!-- 11&#45;&gt;0 -->
<g id="edge11" class="edge"><title>11&#45;&gt;0</title>
<path fill="none" stroke="grey" stroke-width="2" d="M119.354,-287.843C107.532,-244.503 83.8054,-129.956 143.5,-72 179.513,-37.0363 948.498,-22.4987 1128.19,-19.5722"/>
<polygon fill="grey" stroke="grey" stroke-width="2" points="1128.51,-23.0676 1138.45,-19.4073 1128.4,-16.0685 1128.51,-23.0676"/>
</g>
<!-- 12 -->
<g id="node13" class="node"><title>12</title>
<path fill="none" stroke="#d85656" stroke-width="2" stroke-dasharray="5,2" d="M292.5,-108C292.5,-108 262.5,-108 262.5,-108 256.5,-108 250.5,-102 250.5,-96 250.5,-96 250.5,-84 250.5,-84 250.5,-78 256.5,-72 262.5,-72 262.5,-72 292.5,-72 292.5,-72 298.5,-72 304.5,-78 304.5,-84 304.5,-84 304.5,-96 304.5,-96 304.5,-102 298.5,-108 292.5,-108"/>
<text text-anchor="middle" x="277.5" y="-87.5" font-family="sans" font-size="10.00">fastqc</text>
</g>
<!-- 12&#45;&gt;0 -->
<g id="edge12" class="edge"><title>12&#45;&gt;0</title>
<path fill="none" stroke="grey" stroke-width="2" d="M304.879,-76.1997C309.351,-74.5325 313.996,-73.044 318.5,-72 475.872,-35.5215 985.121,-22.6487 1127.95,-19.7067"/>
<polygon fill="grey" stroke="grey" stroke-width="2" points="1128.42,-23.1979 1138.35,-19.4968 1128.28,-16.1993 1128.42,-23.1979"/>
</g>
<!-- 13 -->
<g id="node14" class="node"><title>13</title>
<path fill="none" stroke="#d85656" stroke-width="2" stroke-dasharray="5,2" d="M402.5,-108C402.5,-108 372.5,-108 372.5,-108 366.5,-108 360.5,-102 360.5,-96 360.5,-96 360.5,-84 360.5,-84 360.5,-78 366.5,-72 372.5,-72 372.5,-72 402.5,-72 402.5,-72 408.5,-72 414.5,-78 414.5,-84 414.5,-84 414.5,-96 414.5,-96 414.5,-102 408.5,-108 402.5,-108"/>
<text text-anchor="middle" x="387.5" y="-87.5" font-family="sans" font-size="10.00">fastqc</text>
</g>
<!-- 13&#45;&gt;0 -->
<g id="edge13" class="edge"><title>13&#45;&gt;0</title>
<path fill="none" stroke="grey" stroke-width="2" d="M414.623,-74.9198C417.564,-73.7788 420.558,-72.7708 423.5,-72 558.837,-36.5413 996.565,-23.1397 1127.9,-19.8581"/>
<polygon fill="grey" stroke="grey" stroke-width="2" points="1128.33,-23.3488 1138.24,-19.605 1128.16,-16.3509 1128.33,-23.3488"/>
</g>
<!-- 14 -->
<g id="node15" class="node"><title>14</title>
<path fill="none" stroke="#d85656" stroke-width="2" stroke-dasharray="5,2" d="M708.5,-108C708.5,-108 678.5,-108 678.5,-108 672.5,-108 666.5,-102 666.5,-96 666.5,-96 666.5,-84 666.5,-84 666.5,-78 672.5,-72 678.5,-72 678.5,-72 708.5,-72 708.5,-72 714.5,-72 720.5,-78 720.5,-84 720.5,-84 720.5,-96 720.5,-96 720.5,-102 714.5,-108 708.5,-108"/>
<text text-anchor="middle" x="693.5" y="-87.5" font-family="sans" font-size="10.00">fastqc</text>
</g>
<!-- 14&#45;&gt;0 -->
<g id="edge14" class="edge"><title>14&#45;&gt;0</title>
<path fill="none" stroke="grey" stroke-width="2" d="M720.937,-76.4359C725.402,-74.7382 730.029,-73.1783 734.5,-72 876.593,-34.5489 1052.16,-23.4027 1127.86,-20.2158"/>
<polygon fill="grey" stroke="grey" stroke-width="2" points="1128.44,-23.6958 1138.29,-19.8012 1128.16,-16.7013 1128.44,-23.6958"/>
</g>
<!-- 15 -->
<g id="node16" class="node"><title>15</title>
<path fill="none" stroke="#d85656" stroke-width="2" stroke-dasharray="5,2" d="M913.5,-108C913.5,-108 883.5,-108 883.5,-108 877.5,-108 871.5,-102 871.5,-96 871.5,-96 871.5,-84 871.5,-84 871.5,-78 877.5,-72 883.5,-72 883.5,-72 913.5,-72 913.5,-72 919.5,-72 925.5,-78 925.5,-84 925.5,-84 925.5,-96 925.5,-96 925.5,-102 919.5,-108 913.5,-108"/>
<text text-anchor="middle" x="898.5" y="-87.5" font-family="sans" font-size="10.00">fastqc</text>
</g>
<!-- 15&#45;&gt;0 -->
<g id="edge15" class="edge"><title>15&#45;&gt;0</title>
<path fill="none" stroke="grey" stroke-width="2" d="M925.571,-81.9028C973.647,-69.2986 1073.98,-42.9945 1128.43,-28.7193"/>
<polygon fill="grey" stroke="grey" stroke-width="2" points="1129.57,-32.0376 1138.36,-26.116 1127.8,-25.2665 1129.57,-32.0376"/>
</g>
<!-- 16 -->
<g id="node17" class="node"><title>16</title>
<path fill="none" stroke="#d85656" stroke-width="2" stroke-dasharray="5,2" d="M1597.5,-252C1597.5,-252 1567.5,-252 1567.5,-252 1561.5,-252 1555.5,-246 1555.5,-240 1555.5,-240 1555.5,-228 1555.5,-228 1555.5,-222 1561.5,-216 1567.5,-216 1567.5,-216 1597.5,-216 1597.5,-216 1603.5,-216 1609.5,-222 1609.5,-228 1609.5,-228 1609.5,-240 1609.5,-240 1609.5,-246 1603.5,-252 1597.5,-252"/>
<text text-anchor="middle" x="1582.5" y="-231.5" font-family="sans" font-size="10.00">fastqc</text>
</g>
<!-- 16&#45;&gt;0 -->
<g id="edge16" class="edge"><title>16&#45;&gt;0</title>
<path fill="none" stroke="grey" stroke-width="2" d="M1577.66,-215.996C1566.87,-181.686 1537.32,-104.662 1481.5,-72 1434.71,-44.6205 1275.98,-28.2092 1202.9,-21.9362"/>
<polygon fill="grey" stroke="grey" stroke-width="2" points="1203.02,-18.434 1192.76,-21.0841 1202.43,-25.4094 1203.02,-18.434"/>
</g>
<!-- 17 -->
<g id="node18" class="node"><title>17</title>
<path fill="none" stroke="#d85656" stroke-width="2" stroke-dasharray="5,2" d="M1978.5,-108C1978.5,-108 1948.5,-108 1948.5,-108 1942.5,-108 1936.5,-102 1936.5,-96 1936.5,-96 1936.5,-84 1936.5,-84 1936.5,-78 1942.5,-72 1948.5,-72 1948.5,-72 1978.5,-72 1978.5,-72 1984.5,-72 1990.5,-78 1990.5,-84 1990.5,-84 1990.5,-96 1990.5,-96 1990.5,-102 1984.5,-108 1978.5,-108"/>
<text text-anchor="middle" x="1963.5" y="-87.5" font-family="sans" font-size="10.00">fastqc</text>
</g>
<!-- 17&#45;&gt;0 -->
<g id="edge17" class="edge"><title>17&#45;&gt;0</title>
<path fill="none" stroke="grey" stroke-width="2" d="M1936.32,-82.436C1920.43,-78.8313 1899.93,-74.5813 1881.5,-72 1623.42,-35.8538 1309.33,-23.3982 1202.85,-20.0462"/>
<polygon fill="grey" stroke="grey" stroke-width="2" points="1202.72,-16.5408 1192.62,-19.7324 1202.51,-23.5375 1202.72,-16.5408"/>
</g>
<!-- 18 -->
<g id="node19" class="node"><title>18</title>
<path fill="none" stroke="#d85656" stroke-width="2" stroke-dasharray="5,2" d="M2283.5,-180C2283.5,-180 2253.5,-180 2253.5,-180 2247.5,-180 2241.5,-174 2241.5,-168 2241.5,-168 2241.5,-156 2241.5,-156 2241.5,-150 2247.5,-144 2253.5,-144 2253.5,-144 2283.5,-144 2283.5,-144 2289.5,-144 2295.5,-150 2295.5,-156 2295.5,-156 2295.5,-168 2295.5,-168 2295.5,-174 2289.5,-180 2283.5,-180"/>
<text text-anchor="middle" x="2268.5" y="-159.5" font-family="sans" font-size="10.00">fastqc</text>
</g>
<!-- 18&#45;&gt;0 -->
<g id="edge18" class="edge"><title>18&#45;&gt;0</title>
<path fill="none" stroke="grey" stroke-width="2" d="M2260.19,-143.915C2248.85,-122.75 2226.36,-87.5843 2195.5,-72 2105.53,-26.5665 1377.04,-20.0539 1202.82,-19.1441"/>
<polygon fill="grey" stroke="grey" stroke-width="2" points="1202.64,-15.6432 1192.62,-19.094 1202.6,-22.6432 1202.64,-15.6432"/>
</g>
<!-- 19 -->
<g id="node20" class="node"><title>19</title>
<path fill="none" stroke="#d85656" stroke-width="2" stroke-dasharray="5,2" d="M2397.5,-252C2397.5,-252 2367.5,-252 2367.5,-252 2361.5,-252 2355.5,-246 2355.5,-240 2355.5,-240 2355.5,-228 2355.5,-228 2355.5,-222 2361.5,-216 2367.5,-216 2367.5,-216 2397.5,-216 2397.5,-216 2403.5,-216 2409.5,-222 2409.5,-228 2409.5,-228 2409.5,-240 2409.5,-240 2409.5,-246 2403.5,-252 2397.5,-252"/>
<text text-anchor="middle" x="2382.5" y="-231.5" font-family="sans" font-size="10.00">fastqc</text>
</g>
<!-- 19&#45;&gt;0 -->
<g id="edge19" class="edge"><title>19&#45;&gt;0</title>
<path fill="none" stroke="grey" stroke-width="2" d="M2376.51,-215.825C2363.39,-181.199 2328.49,-103.624 2269.5,-72 2173.85,-20.7199 1385,-18.6837 1202.9,-18.9032"/>
<polygon fill="grey" stroke="grey" stroke-width="2" points="1202.75,-15.4034 1192.75,-18.9187 1202.76,-22.4034 1202.75,-15.4034"/>
</g>
<!-- 20 -->
<g id="node21" class="node"><title>20</title>
<path fill="none" stroke="#56d8d8" stroke-width="2" stroke-dasharray="5,2" d="M67,-324C67,-324 12,-324 12,-324 6,-324 7.10543e-15,-318 7.10543e-15,-312 7.10543e-15,-312 7.10543e-15,-300 7.10543e-15,-300 7.10543e-15,-294 6,-288 12,-288 12,-288 67,-288 67,-288 73,-288 79,-294 79,-300 79,-300 79,-312 79,-312 79,-318 73,-324 67,-324"/>
<text text-anchor="middle" x="39.5" y="-303.5" font-family="sans" font-size="10.00">fastq_screen</text>
</g>
<!-- 20&#45;&gt;0 -->
<g id="edge20" class="edge"><title>20&#45;&gt;0</title>
<path fill="none" stroke="grey" stroke-width="2" d="M39.1754,-287.894C39.3712,-243.648 46.6898,-125.186 116.5,-72 157.543,-40.7308 946.197,-23.3209 1128.23,-19.7092"/>
<polygon fill="grey" stroke="grey" stroke-width="2" points="1128.45,-23.2057 1138.38,-19.5097 1128.31,-16.207 1128.45,-23.2057"/>
</g>
<!-- 21 -->
<g id="node22" class="node"><title>21</title>
<path fill="none" stroke="#56d8d8" stroke-width="2" stroke-dasharray="5,2" d="M220,-108C220,-108 165,-108 165,-108 159,-108 153,-102 153,-96 153,-96 153,-84 153,-84 153,-78 159,-72 165,-72 165,-72 220,-72 220,-72 226,-72 232,-78 232,-84 232,-84 232,-96 232,-96 232,-102 226,-108 220,-108"/>
<text text-anchor="middle" x="192.5" y="-87.5" font-family="sans" font-size="10.00">fastq_screen</text>
</g>
<!-- 21&#45;&gt;0 -->
<g id="edge21" class="edge"><title>21&#45;&gt;0</title>
<path fill="none" stroke="grey" stroke-width="2" d="M232.091,-74.236C235.247,-73.3754 238.409,-72.6126 241.5,-72 415.624,-37.4965 977.47,-23.0716 1128.07,-19.7682"/>
<polygon fill="grey" stroke="grey" stroke-width="2" points="1128.27,-23.2648 1138.19,-19.5495 1128.12,-16.2665 1128.27,-23.2648"/>
</g>
<!-- 22 -->
<g id="node23" class="node"><title>22</title>
<path fill="none" stroke="#56d8d8" stroke-width="2" stroke-dasharray="5,2" d="M500,-108C500,-108 445,-108 445,-108 439,-108 433,-102 433,-96 433,-96 433,-84 433,-84 433,-78 439,-72 445,-72 445,-72 500,-72 500,-72 506,-72 512,-78 512,-84 512,-84 512,-96 512,-96 512,-102 506,-108 500,-108"/>
<text text-anchor="middle" x="472.5" y="-87.5" font-family="sans" font-size="10.00">fastq_screen</text>
</g>
<!-- 22&#45;&gt;0 -->
<g id="edge22" class="edge"><title>22&#45;&gt;0</title>
<path fill="none" stroke="grey" stroke-width="2" d="M512.053,-75.45C516.879,-74.1233 521.774,-72.9279 526.5,-72 752.04,-27.7177 1029.45,-20.3895 1128.33,-19.2113"/>
<polygon fill="grey" stroke="grey" stroke-width="2" points="1128.46,-22.7103 1138.42,-19.1056 1128.38,-15.7107 1128.46,-22.7103"/>
</g>
<!-- 23 -->
<g id="node24" class="node"><title>23</title>
<path fill="none" stroke="#56d8d8" stroke-width="2" stroke-dasharray="5,2" d="M636,-108C636,-108 581,-108 581,-108 575,-108 569,-102 569,-96 569,-96 569,-84 569,-84 569,-78 575,-72 581,-72 581,-72 636,-72 636,-72 642,-72 648,-78 648,-84 648,-84 648,-96 648,-96 648,-102 642,-108 636,-108"/>
<text text-anchor="middle" x="608.5" y="-87.5" font-family="sans" font-size="10.00">fastq_screen</text>
</g>
<!-- 23&#45;&gt;0 -->
<g id="edge23" class="edge"><title>23&#45;&gt;0</title>
<path fill="none" stroke="grey" stroke-width="2" d="M648.125,-74.3968C651.273,-73.4996 654.424,-72.6845 657.5,-72 830.775,-33.4434 1043.7,-22.7786 1128.3,-19.9611"/>
<polygon fill="grey" stroke="grey" stroke-width="2" points="1128.55,-23.4549 1138.44,-19.6411 1128.33,-16.4584 1128.55,-23.4549"/>
</g>
<!-- 24 -->
<g id="node25" class="node"><title>24</title>
<path fill="none" stroke="#56d8d8" stroke-width="2" stroke-dasharray="5,2" d="M1159,-108C1159,-108 1104,-108 1104,-108 1098,-108 1092,-102 1092,-96 1092,-96 1092,-84 1092,-84 1092,-78 1098,-72 1104,-72 1104,-72 1159,-72 1159,-72 1165,-72 1171,-78 1171,-84 1171,-84 1171,-96 1171,-96 1171,-102 1165,-108 1159,-108"/>
<text text-anchor="middle" x="1131.5" y="-87.5" font-family="sans" font-size="10.00">fastq_screen</text>
</g>
<!-- 24&#45;&gt;0 -->
<g id="edge24" class="edge"><title>24&#45;&gt;0</title>
<path fill="none" stroke="grey" stroke-width="2" d="M1139.9,-71.6966C1143.77,-63.7284 1148.45,-54.0995 1152.74,-45.2641"/>
<polygon fill="grey" stroke="grey" stroke-width="2" points="1155.97,-46.6286 1157.19,-36.1043 1149.67,-43.5702 1155.97,-46.6286"/>
</g>
<!-- 25 -->
<g id="node26" class="node"><title>25</title>
<path fill="none" stroke="#56d8d8" stroke-width="2" stroke-dasharray="5,2" d="M1674,-180C1674,-180 1619,-180 1619,-180 1613,-180 1607,-174 1607,-168 1607,-168 1607,-156 1607,-156 1607,-150 1613,-144 1619,-144 1619,-144 1674,-144 1674,-144 1680,-144 1686,-150 1686,-156 1686,-156 1686,-168 1686,-168 1686,-174 1680,-180 1674,-180"/>
<text text-anchor="middle" x="1646.5" y="-159.5" font-family="sans" font-size="10.00">fastq_screen</text>
</g>
<!-- 25&#45;&gt;0 -->
<g id="edge25" class="edge"><title>25&#45;&gt;0</title>
<path fill="none" stroke="grey" stroke-width="2" d="M1641.3,-143.997C1634,-123.261 1618.6,-88.8915 1592.5,-72 1528.41,-30.5144 1294.43,-21.4885 1202.73,-19.5353"/>
<polygon fill="grey" stroke="grey" stroke-width="2" points="1202.59,-16.0321 1192.53,-19.335 1202.45,-23.0307 1202.59,-16.0321"/>
</g>
<!-- 26 -->
<g id="node27" class="node"><title>26</title>
<path fill="none" stroke="#56d8d8" stroke-width="2" stroke-dasharray="5,2" d="M1919,-252C1919,-252 1864,-252 1864,-252 1858,-252 1852,-246 1852,-240 1852,-240 1852,-228 1852,-228 1852,-222 1858,-216 1864,-216 1864,-216 1919,-216 1919,-216 1925,-216 1931,-222 1931,-228 1931,-228 1931,-240 1931,-240 1931,-246 1925,-252 1919,-252"/>
<text text-anchor="middle" x="1891.5" y="-231.5" font-family="sans" font-size="10.00">fastq_screen</text>
</g>
<!-- 26&#45;&gt;0 -->
<g id="edge26" class="edge"><title>26&#45;&gt;0</title>
<path fill="none" stroke="grey" stroke-width="2" d="M1882.1,-215.721C1871.08,-196.566 1851.38,-165.539 1828.5,-144 1784.32,-102.41 1769.98,-91.4353 1712.5,-72 1617.48,-39.8745 1309.58,-24.7684 1202.56,-20.3951"/>
<polygon fill="grey" stroke="grey" stroke-width="2" points="1202.69,-16.8974 1192.56,-19.9937 1202.41,-23.8918 1202.69,-16.8974"/>
</g>
<!-- 27 -->
<g id="node28" class="node"><title>27</title>
<path fill="none" stroke="#56d8d8" stroke-width="2" stroke-dasharray="5,2" d="M2174,-108C2174,-108 2119,-108 2119,-108 2113,-108 2107,-102 2107,-96 2107,-96 2107,-84 2107,-84 2107,-78 2113,-72 2119,-72 2119,-72 2174,-72 2174,-72 2180,-72 2186,-78 2186,-84 2186,-84 2186,-96 2186,-96 2186,-102 2180,-108 2174,-108"/>
<text text-anchor="middle" x="2146.5" y="-87.5" font-family="sans" font-size="10.00">fastq_screen</text>
</g>
<!-- 27&#45;&gt;0 -->
<g id="edge27" class="edge"><title>27&#45;&gt;0</title>
<path fill="none" stroke="grey" stroke-width="2" d="M2106.95,-78.496C2096.17,-75.9881 2084.45,-73.5823 2073.5,-72 1738.28,-23.5448 1327.35,-19.0806 1202.92,-18.9067"/>
<polygon fill="grey" stroke="grey" stroke-width="2" points="1202.78,-15.4067 1192.78,-18.9014 1202.78,-22.4067 1202.78,-15.4067"/>
</g>
<!-- 28 -->
<g id="node29" class="node"><title>28</title>
<path fill="none" stroke="#56d8d8" stroke-width="2" stroke-dasharray="5,2" d="M2463,-180C2463,-180 2408,-180 2408,-180 2402,-180 2396,-174 2396,-168 2396,-168 2396,-156 2396,-156 2396,-150 2402,-144 2408,-144 2408,-144 2463,-144 2463,-144 2469,-144 2475,-150 2475,-156 2475,-156 2475,-168 2475,-168 2475,-174 2469,-180 2463,-180"/>
<text text-anchor="middle" x="2435.5" y="-159.5" font-family="sans" font-size="10.00">fastq_screen</text>
</g>
<!-- 28&#45;&gt;0 -->
<g id="edge28" class="edge"><title>28&#45;&gt;0</title>
<path fill="none" stroke="grey" stroke-width="2" d="M2430.14,-143.637C2422.6,-122.529 2406.65,-87.776 2379.5,-72 2327.42,-41.7358 1401.75,-23.2834 1202.92,-19.659"/>
<polygon fill="grey" stroke="grey" stroke-width="2" points="1202.75,-16.1556 1192.69,-19.474 1202.62,-23.1544 1202.75,-16.1556"/>
</g>
<!-- 29 -->
<g id="node30" class="node"><title>29</title>
<path fill="none" stroke="#97d856" stroke-width="2" stroke-dasharray="5,2" d="M249.5,-324C249.5,-324 219.5,-324 219.5,-324 213.5,-324 207.5,-318 207.5,-312 207.5,-312 207.5,-300 207.5,-300 207.5,-294 213.5,-288 219.5,-288 219.5,-288 249.5,-288 249.5,-288 255.5,-288 261.5,-294 261.5,-300 261.5,-300 261.5,-312 261.5,-312 261.5,-318 255.5,-324 249.5,-324"/>
<text text-anchor="middle" x="234.5" y="-303.5" font-family="sans" font-size="10.00">align</text>
</g>
<!-- 29&#45;&gt;1 -->
<g id="edge29" class="edge"><title>29&#45;&gt;1</title>
<path fill="none" stroke="grey" stroke-width="2" d="M258.473,-287.876C271.05,-278.893 286.632,-267.763 300.252,-258.034"/>
<polygon fill="grey" stroke="grey" stroke-width="2" points="302.331,-260.85 308.434,-252.19 298.263,-255.154 302.331,-260.85"/>
</g>
<!-- 30 -->
<g id="node31" class="node"><title>30</title>
<path fill="none" stroke="#97d856" stroke-width="2" stroke-dasharray="5,2" d="M428.5,-324C428.5,-324 398.5,-324 398.5,-324 392.5,-324 386.5,-318 386.5,-312 386.5,-312 386.5,-300 386.5,-300 386.5,-294 392.5,-288 398.5,-288 398.5,-288 428.5,-288 428.5,-288 434.5,-288 440.5,-294 440.5,-300 440.5,-300 440.5,-312 440.5,-312 440.5,-318 434.5,-324 428.5,-324"/>
<text text-anchor="middle" x="413.5" y="-303.5" font-family="sans" font-size="10.00">align</text>
</g>
<!-- 30&#45;&gt;2 -->
<g id="edge30" class="edge"><title>30&#45;&gt;2</title>
<path fill="none" stroke="grey" stroke-width="2" d="M439.92,-287.876C453.91,-278.808 471.276,-267.552 486.386,-257.759"/>
<polygon fill="grey" stroke="grey" stroke-width="2" points="488.491,-260.566 494.979,-252.19 484.683,-254.692 488.491,-260.566"/>
</g>
<!-- 31 -->
<g id="node32" class="node"><title>31</title>
<path fill="none" stroke="#97d856" stroke-width="2" stroke-dasharray="5,2" d="M538.5,-324C538.5,-324 508.5,-324 508.5,-324 502.5,-324 496.5,-318 496.5,-312 496.5,-312 496.5,-300 496.5,-300 496.5,-294 502.5,-288 508.5,-288 508.5,-288 538.5,-288 538.5,-288 544.5,-288 550.5,-294 550.5,-300 550.5,-300 550.5,-312 550.5,-312 550.5,-318 544.5,-324 538.5,-324"/>
<text text-anchor="middle" x="523.5" y="-303.5" font-family="sans" font-size="10.00">align</text>
</g>
<!-- 31&#45;&gt;3 -->
<g id="edge31" class="edge"><title>31&#45;&gt;3</title>
<path fill="none" stroke="grey" stroke-width="2" d="M550.664,-292.324C574.349,-281.27 608.959,-265.119 635.409,-252.776"/>
<polygon fill="grey" stroke="grey" stroke-width="2" points="637.168,-255.817 644.75,-248.417 634.208,-249.474 637.168,-255.817"/>
</g>
<!-- 32 -->
<g id="node33" class="node"><title>32</title>
<path fill="none" stroke="#97d856" stroke-width="2" stroke-dasharray="5,2" d="M937.5,-324C937.5,-324 907.5,-324 907.5,-324 901.5,-324 895.5,-318 895.5,-312 895.5,-312 895.5,-300 895.5,-300 895.5,-294 901.5,-288 907.5,-288 907.5,-288 937.5,-288 937.5,-288 943.5,-288 949.5,-294 949.5,-300 949.5,-300 949.5,-312 949.5,-312 949.5,-318 943.5,-324 937.5,-324"/>
<text text-anchor="middle" x="922.5" y="-303.5" font-family="sans" font-size="10.00">align</text>
</g>
<!-- 32&#45;&gt;4 -->
<g id="edge32" class="edge"><title>32&#45;&gt;4</title>
<path fill="none" stroke="grey" stroke-width="2" d="M949.567,-291.17C970.128,-280.665 998.667,-266.083 1021.51,-254.409"/>
<polygon fill="grey" stroke="grey" stroke-width="2" points="1023.29,-257.434 1030.6,-249.768 1020.1,-251.201 1023.29,-257.434"/>
</g>
<!-- 33 -->
<g id="node34" class="node"><title>33</title>
<path fill="none" stroke="#97d856" stroke-width="2" stroke-dasharray="5,2" d="M1187.5,-324C1187.5,-324 1157.5,-324 1157.5,-324 1151.5,-324 1145.5,-318 1145.5,-312 1145.5,-312 1145.5,-300 1145.5,-300 1145.5,-294 1151.5,-288 1157.5,-288 1157.5,-288 1187.5,-288 1187.5,-288 1193.5,-288 1199.5,-294 1199.5,-300 1199.5,-300 1199.5,-312 1199.5,-312 1199.5,-318 1193.5,-324 1187.5,-324"/>
<text text-anchor="middle" x="1172.5" y="-303.5" font-family="sans" font-size="10.00">align</text>
</g>
<!-- 33&#45;&gt;5 -->
<g id="edge33" class="edge"><title>33&#45;&gt;5</title>
<path fill="none" stroke="grey" stroke-width="2" d="M1172.75,-287.697C1172.86,-279.983 1172.99,-270.712 1173.11,-262.112"/>
<polygon fill="grey" stroke="grey" stroke-width="2" points="1176.61,-262.153 1173.26,-252.104 1169.61,-262.053 1176.61,-262.153"/>
</g>
<!-- 34 -->
<g id="node35" class="node"><title>34</title>
<path fill="none" stroke="#97d856" stroke-width="2" stroke-dasharray="5,2" d="M1532.5,-324C1532.5,-324 1502.5,-324 1502.5,-324 1496.5,-324 1490.5,-318 1490.5,-312 1490.5,-312 1490.5,-300 1490.5,-300 1490.5,-294 1496.5,-288 1502.5,-288 1502.5,-288 1532.5,-288 1532.5,-288 1538.5,-288 1544.5,-294 1544.5,-300 1544.5,-300 1544.5,-312 1544.5,-312 1544.5,-318 1538.5,-324 1532.5,-324"/>
<text text-anchor="middle" x="1517.5" y="-303.5" font-family="sans" font-size="10.00">align</text>
</g>
<!-- 34&#45;&gt;6 -->
<g id="edge34" class="edge"><title>34&#45;&gt;6</title>
<path fill="none" stroke="grey" stroke-width="2" d="M1515.28,-287.697C1514.28,-279.983 1513.09,-270.712 1511.99,-262.112"/>
<polygon fill="grey" stroke="grey" stroke-width="2" points="1515.45,-261.576 1510.7,-252.104 1508.5,-262.469 1515.45,-261.576"/>
</g>
<!-- 35 -->
<g id="node36" class="node"><title>35</title>
<path fill="none" stroke="#97d856" stroke-width="2" stroke-dasharray="5,2" d="M1836.5,-324C1836.5,-324 1806.5,-324 1806.5,-324 1800.5,-324 1794.5,-318 1794.5,-312 1794.5,-312 1794.5,-300 1794.5,-300 1794.5,-294 1800.5,-288 1806.5,-288 1806.5,-288 1836.5,-288 1836.5,-288 1842.5,-288 1848.5,-294 1848.5,-300 1848.5,-300 1848.5,-312 1848.5,-312 1848.5,-318 1842.5,-324 1836.5,-324"/>
<text text-anchor="middle" x="1821.5" y="-303.5" font-family="sans" font-size="10.00">align</text>
</g>
<!-- 35&#45;&gt;7 -->
<g id="edge35" class="edge"><title>35&#45;&gt;7</title>
<path fill="none" stroke="grey" stroke-width="2" d="M1817.54,-287.697C1815.78,-279.983 1813.66,-270.712 1811.7,-262.112"/>
<polygon fill="grey" stroke="grey" stroke-width="2" points="1815.05,-261.073 1809.41,-252.104 1808.23,-262.633 1815.05,-261.073"/>
</g>
<!-- 36 -->
<g id="node37" class="node"><title>36</title>
<path fill="none" stroke="#97d856" stroke-width="2" stroke-dasharray="5,2" d="M2133.5,-324C2133.5,-324 2103.5,-324 2103.5,-324 2097.5,-324 2091.5,-318 2091.5,-312 2091.5,-312 2091.5,-300 2091.5,-300 2091.5,-294 2097.5,-288 2103.5,-288 2103.5,-288 2133.5,-288 2133.5,-288 2139.5,-288 2145.5,-294 2145.5,-300 2145.5,-300 2145.5,-312 2145.5,-312 2145.5,-318 2139.5,-324 2133.5,-324"/>
<text text-anchor="middle" x="2118.5" y="-303.5" font-family="sans" font-size="10.00">align</text>
</g>
<!-- 36&#45;&gt;8 -->
<g id="edge36" class="edge"><title>36&#45;&gt;8</title>
<path fill="none" stroke="grey" stroke-width="2" d="M2108.61,-287.697C2104.01,-279.644 2098.44,-269.894 2093.35,-260.982"/>
<polygon fill="grey" stroke="grey" stroke-width="2" points="2096.27,-259.05 2088.27,-252.104 2090.2,-262.523 2096.27,-259.05"/>
</g>
<!-- 37 -->
<g id="node38" class="node"><title>37</title>
<path fill="none" stroke="#97d856" stroke-width="2" stroke-dasharray="5,2" d="M2333.5,-324C2333.5,-324 2303.5,-324 2303.5,-324 2297.5,-324 2291.5,-318 2291.5,-312 2291.5,-312 2291.5,-300 2291.5,-300 2291.5,-294 2297.5,-288 2303.5,-288 2303.5,-288 2333.5,-288 2333.5,-288 2339.5,-288 2345.5,-294 2345.5,-300 2345.5,-300 2345.5,-312 2345.5,-312 2345.5,-318 2339.5,-324 2333.5,-324"/>
<text text-anchor="middle" x="2318.5" y="-303.5" font-family="sans" font-size="10.00">align</text>
</g>
<!-- 37&#45;&gt;9 -->
<g id="edge37" class="edge"><title>37&#45;&gt;9</title>
<path fill="none" stroke="grey" stroke-width="2" d="M2316.03,-287.697C2314.93,-279.983 2313.6,-270.712 2312.37,-262.112"/>
<polygon fill="grey" stroke="grey" stroke-width="2" points="2315.82,-261.509 2310.94,-252.104 2308.89,-262.499 2315.82,-261.509"/>
</g>
<!-- 38&#45;&gt;10 -->
<g id="edge38" class="edge"><title>38&#45;&gt;10</title>
<path fill="none" stroke="grey" stroke-width="2" d="M818.709,-145.91C821.67,-145.21 824.617,-144.565 827.5,-144 981.825,-113.757 1023.29,-126.121 1179.5,-108 1198.9,-105.75 1219.89,-103.115 1239.26,-100.602"/>
<polygon fill="grey" stroke="grey" stroke-width="2" points="1239.77,-104.066 1249.23,-99.3007 1238.86,-97.1244 1239.77,-104.066"/>
</g>
<!-- 39&#45;&gt;10 -->
<g id="edge39" class="edge"><title>39&#45;&gt;10</title>
<path fill="none" stroke="grey" stroke-width="2" d="M934.739,-146.052C937.692,-145.316 940.629,-144.625 943.5,-144 971.713,-137.861 1140.62,-114.298 1239.17,-100.747"/>
<polygon fill="grey" stroke="grey" stroke-width="2" points="1239.93,-104.175 1249.36,-99.3468 1238.97,-97.2405 1239.93,-104.175"/>
</g>
<!-- 40&#45;&gt;10 -->
<g id="edge40" class="edge"><title>40&#45;&gt;10</title>
<path fill="none" stroke="grey" stroke-width="2" d="M1050.8,-149.831C1101.78,-138.282 1181.86,-120.141 1239.62,-107.056"/>
<polygon fill="grey" stroke="grey" stroke-width="2" points="1240.43,-110.461 1249.41,-104.838 1238.89,-103.634 1240.43,-110.461"/>
</g>
<!-- 41&#45;&gt;10 -->
<g id="edge41" class="edge"><title>41&#45;&gt;10</title>
<path fill="none" stroke="grey" stroke-width="2" d="M1251.03,-143.697C1260.88,-134.965 1272.99,-124.24 1283.7,-114.75"/>
<polygon fill="grey" stroke="grey" stroke-width="2" points="1286.03,-117.356 1291.2,-108.104 1281.39,-112.117 1286.03,-117.356"/>
</g>
<!-- 42&#45;&gt;10 -->
<g id="edge42" class="edge"><title>42&#45;&gt;10</title>
<path fill="none" stroke="grey" stroke-width="2" d="M1338.35,-143.697C1334.1,-135.644 1328.94,-125.894 1324.23,-116.982"/>
<polygon fill="grey" stroke="grey" stroke-width="2" points="1327.31,-115.31 1319.54,-108.104 1321.12,-118.581 1327.31,-115.31"/>
</g>
<!-- 43&#45;&gt;10 -->
<g id="edge43" class="edge"><title>43&#45;&gt;10</title>
<path fill="none" stroke="grey" stroke-width="2" d="M1426.07,-143.876C1405.25,-134.349 1379.15,-122.407 1357.02,-112.283"/>
<polygon fill="grey" stroke="grey" stroke-width="2" points="1358.36,-109.046 1347.81,-108.068 1355.44,-115.411 1358.36,-109.046"/>
</g>
<!-- 44&#45;&gt;10 -->
<g id="edge44" class="edge"><title>44&#45;&gt;10</title>
<path fill="none" stroke="grey" stroke-width="2" d="M1703.27,-146.031C1700.31,-145.3 1697.37,-144.616 1694.5,-144 1586.5,-120.851 1459.14,-105.6 1381.64,-97.6342"/>
<polygon fill="grey" stroke="grey" stroke-width="2" points="1381.81,-94.1337 1371.51,-96.6053 1381.1,-101.098 1381.81,-94.1337"/>
</g>
<!-- 45&#45;&gt;10 -->
<g id="edge45" class="edge"><title>45&#45;&gt;10</title>
<path fill="none" stroke="grey" stroke-width="2" d="M1895.21,-154.5C1869.9,-151.226 1838.57,-147.268 1810.5,-144 1657.88,-126.232 1478.75,-107.841 1381.72,-98.0841"/>
<polygon fill="grey" stroke="grey" stroke-width="2" points="1382.04,-94.5979 1371.74,-97.0811 1381.34,-101.563 1382.04,-94.5979"/>
</g>
<!-- 46&#45;&gt;10 -->
<g id="edge46" class="edge"><title>46&#45;&gt;10</title>
<path fill="none" stroke="grey" stroke-width="2" d="M2087.25,-154.156C2061.95,-150.792 2030.61,-146.858 2002.5,-144 1776.31,-121.004 1507.6,-103.113 1381.94,-95.2955"/>
<polygon fill="grey" stroke="grey" stroke-width="2" points="1381.88,-91.7853 1371.69,-94.6601 1381.45,-98.7719 1381.88,-91.7853"/>
</g>
<!-- 47 -->
<g id="node48" class="node"><title>47</title>
<path fill="none" stroke="#59d856" stroke-width="2" stroke-dasharray="5,2" d="M171.5,-396C171.5,-396 77.5,-396 77.5,-396 71.5,-396 65.5,-390 65.5,-384 65.5,-384 65.5,-372 65.5,-372 65.5,-366 71.5,-360 77.5,-360 77.5,-360 171.5,-360 171.5,-360 177.5,-360 183.5,-366 183.5,-372 183.5,-372 183.5,-384 183.5,-384 183.5,-390 177.5,-396 171.5,-396"/>
<text text-anchor="middle" x="124.5" y="-381" font-family="sans" font-size="10.00">trimming</text>
<text text-anchor="middle" x="124.5" y="-370" font-family="sans" font-size="10.00">sample: MOLM24C_1</text>
</g>
<!-- 47&#45;&gt;11 -->
<g id="edge47" class="edge"><title>47&#45;&gt;11</title>
<path fill="none" stroke="grey" stroke-width="2" d="M124.5,-359.697C124.5,-351.983 124.5,-342.712 124.5,-334.112"/>
<polygon fill="grey" stroke="grey" stroke-width="2" points="128,-334.104 124.5,-324.104 121,-334.104 128,-334.104"/>
</g>
<!-- 47&#45;&gt;20 -->
<g id="edge56" class="edge"><title>47&#45;&gt;20</title>
<path fill="none" stroke="grey" stroke-width="2" d="M103.489,-359.697C92.7837,-350.881 79.6103,-340.032 68.0044,-330.474"/>
<polygon fill="grey" stroke="grey" stroke-width="2" points="70.2139,-327.76 60.2695,-324.104 65.7639,-333.163 70.2139,-327.76"/>
</g>
<!-- 47&#45;&gt;29 -->
<g id="edge65" class="edge"><title>47&#45;&gt;29</title>
<path fill="none" stroke="grey" stroke-width="2" d="M151.409,-359.876C165.658,-350.808 183.346,-339.552 198.736,-329.759"/>
<polygon fill="grey" stroke="grey" stroke-width="2" points="200.93,-332.511 207.488,-324.19 197.172,-326.606 200.93,-332.511"/>
</g>
<!-- 48 -->
<g id="node49" class="node"><title>48</title>
<path fill="none" stroke="#59d856" stroke-width="2" stroke-dasharray="5,2" d="M336.5,-396C336.5,-396 242.5,-396 242.5,-396 236.5,-396 230.5,-390 230.5,-384 230.5,-384 230.5,-372 230.5,-372 230.5,-366 236.5,-360 242.5,-360 242.5,-360 336.5,-360 336.5,-360 342.5,-360 348.5,-366 348.5,-372 348.5,-372 348.5,-384 348.5,-384 348.5,-390 342.5,-396 336.5,-396"/>
<text text-anchor="middle" x="289.5" y="-381" font-family="sans" font-size="10.00">trimming</text>
<text text-anchor="middle" x="289.5" y="-370" font-family="sans" font-size="10.00">sample: MOLM24C_2</text>
</g>
<!-- 48&#45;&gt;12 -->
<g id="edge48" class="edge"><title>48&#45;&gt;12</title>
<path fill="none" stroke="grey" stroke-width="2" d="M288.785,-359.966C286.785,-312.291 281.116,-177.185 278.659,-118.63"/>
<polygon fill="grey" stroke="grey" stroke-width="2" points="282.142,-118.151 278.226,-108.306 275.149,-118.444 282.142,-118.151"/>
</g>
<!-- 48&#45;&gt;21 -->
<g id="edge57" class="edge"><title>48&#45;&gt;21</title>
<path fill="none" stroke="grey" stroke-width="2" d="M240.642,-359.958C224.377,-351.72 208.001,-340.047 198.5,-324 159.77,-258.586 174.653,-163.701 185.318,-117.827"/>
<polygon fill="grey" stroke="grey" stroke-width="2" points="188.737,-118.581 187.707,-108.037 181.937,-116.922 188.737,-118.581"/>
</g>
<!-- 48&#45;&gt;30 -->
<g id="edge66" class="edge"><title>48&#45;&gt;30</title>
<path fill="none" stroke="grey" stroke-width="2" d="M319.834,-359.876C337.253,-350.042 359.232,-337.635 377.52,-327.311"/>
<polygon fill="grey" stroke="grey" stroke-width="2" points="379.446,-330.243 386.434,-322.279 376.005,-324.147 379.446,-330.243"/>
</g>
<!-- 49 -->
<g id="node50" class="node"><title>49</title>
<path fill="none" stroke="#59d856" stroke-width="2" stroke-dasharray="5,2" d="M515.5,-396C515.5,-396 421.5,-396 421.5,-396 415.5,-396 409.5,-390 409.5,-384 409.5,-384 409.5,-372 409.5,-372 409.5,-366 415.5,-360 421.5,-360 421.5,-360 515.5,-360 515.5,-360 521.5,-360 527.5,-366 527.5,-372 527.5,-372 527.5,-384 527.5,-384 527.5,-390 521.5,-396 515.5,-396"/>
<text text-anchor="middle" x="468.5" y="-381" font-family="sans" font-size="10.00">trimming</text>
<text text-anchor="middle" x="468.5" y="-370" font-family="sans" font-size="10.00">sample: MOLM24C_3</text>
</g>
<!-- 49&#45;&gt;13 -->
<g id="edge49" class="edge"><title>49&#45;&gt;13</title>
<path fill="none" stroke="grey" stroke-width="2" d="M418.938,-359.846C402.808,-351.636 386.702,-340.009 377.5,-324 367.501,-306.605 378.982,-176.45 384.674,-118.588"/>
<polygon fill="grey" stroke="grey" stroke-width="2" points="388.185,-118.649 385.695,-108.351 381.22,-117.954 388.185,-118.649"/>
</g>
<!-- 49&#45;&gt;22 -->
<g id="edge58" class="edge"><title>49&#45;&gt;22</title>
<path fill="none" stroke="grey" stroke-width="2" d="M468.738,-359.966C469.405,-312.291 471.295,-177.185 472.114,-118.63"/>
<polygon fill="grey" stroke="grey" stroke-width="2" points="475.618,-118.354 472.258,-108.306 468.618,-118.256 475.618,-118.354"/>
</g>
<!-- 49&#45;&gt;31 -->
<g id="edge67" class="edge"><title>49&#45;&gt;31</title>
<path fill="none" stroke="grey" stroke-width="2" d="M482.096,-359.697C488.623,-351.389 496.568,-341.277 503.747,-332.141"/>
<polygon fill="grey" stroke="grey" stroke-width="2" points="506.635,-334.13 510.061,-324.104 501.131,-329.805 506.635,-334.13"/>
</g>
<!-- 50 -->
<g id="node51" class="node"><title>50</title>
<path fill="none" stroke="#59d856" stroke-width="2" stroke-dasharray="5,2" d="M664,-396C664,-396 569,-396 569,-396 563,-396 557,-390 557,-384 557,-384 557,-372 557,-372 557,-366 563,-360 569,-360 569,-360 664,-360 664,-360 670,-360 676,-366 676,-372 676,-372 676,-384 676,-384 676,-390 670,-396 664,-396"/>
<text text-anchor="middle" x="616.5" y="-381" font-family="sans" font-size="10.00">trimming</text>
<text text-anchor="middle" x="616.5" y="-370" font-family="sans" font-size="10.00">sample: MOLM24D_1</text>
</g>
<!-- 50&#45;&gt;14 -->
<g id="edge50" class="edge"><title>50&#45;&gt;14</title>
<path fill="none" stroke="grey" stroke-width="2" d="M617.102,-359.824C618.457,-330.105 622.708,-267.344 635.5,-216 643.801,-182.684 648.783,-175.021 663.5,-144 667.76,-135.021 672.937,-125.49 677.782,-117.023"/>
<polygon fill="grey" stroke="grey" stroke-width="2" points="680.837,-118.731 682.851,-108.329 674.79,-115.205 680.837,-118.731"/>
</g>
<!-- 50&#45;&gt;23 -->
<g id="edge59" class="edge"><title>50&#45;&gt;23</title>
<path fill="none" stroke="grey" stroke-width="2" d="M610.676,-359.56C607.569,-349.33 604.069,-336.08 602.5,-324 592.893,-250.014 600.236,-161.74 605.098,-118.137"/>
<polygon fill="grey" stroke="grey" stroke-width="2" points="608.592,-118.386 606.268,-108.049 601.639,-117.579 608.592,-118.386"/>
</g>
<!-- 50&#45;&gt;32 -->
<g id="edge68" class="edge"><title>50&#45;&gt;32</title>
<path fill="none" stroke="grey" stroke-width="2" d="M676.226,-363.337C738.352,-349.125 833.655,-327.324 885.608,-315.439"/>
<polygon fill="grey" stroke="grey" stroke-width="2" points="886.43,-318.842 895.398,-313.2 884.869,-312.018 886.43,-318.842"/>
</g>
<!-- 51 -->
<g id="node52" class="node"><title>51</title>
<path fill="none" stroke="#59d856" stroke-width="2" stroke-dasharray="5,2" d="M1164,-396C1164,-396 1069,-396 1069,-396 1063,-396 1057,-390 1057,-384 1057,-384 1057,-372 1057,-372 1057,-366 1063,-360 1069,-360 1069,-360 1164,-360 1164,-360 1170,-360 1176,-366 1176,-372 1176,-372 1176,-384 1176,-384 1176,-390 1170,-396 1164,-396"/>
<text text-anchor="middle" x="1116.5" y="-381" font-family="sans" font-size="10.00">trimming</text>
<text text-anchor="middle" x="1116.5" y="-370" font-family="sans" font-size="10.00">sample: MOLM24D_2</text>
</g>
<!-- 51&#45;&gt;15 -->
<g id="edge51" class="edge"><title>51&#45;&gt;15</title>
<path fill="none" stroke="grey" stroke-width="2" d="M1056.92,-370.481C960.254,-356.152 773.762,-311.863 711.5,-180 704.669,-165.532 701.851,-156.763 711.5,-144 720.681,-131.855 809.85,-110.495 861.668,-98.947"/>
<polygon fill="grey" stroke="grey" stroke-width="2" points="862.49,-102.35 871.499,-96.774 860.979,-95.5149 862.49,-102.35"/>
</g>
<!-- 51&#45;&gt;24 -->
<g id="edge60" class="edge"><title>51&#45;&gt;24</title>
<path fill="none" stroke="grey" stroke-width="2" d="M1117.39,-359.966C1119.89,-312.291 1126.98,-177.185 1130.05,-118.63"/>
<polygon fill="grey" stroke="grey" stroke-width="2" points="1133.56,-118.476 1130.59,-108.306 1126.57,-118.109 1133.56,-118.476"/>
</g>
<!-- 51&#45;&gt;33 -->
<g id="edge69" class="edge"><title>51&#45;&gt;33</title>
<path fill="none" stroke="grey" stroke-width="2" d="M1130.34,-359.697C1136.99,-351.389 1145.08,-341.277 1152.39,-332.141"/>
<polygon fill="grey" stroke="grey" stroke-width="2" points="1155.3,-334.099 1158.82,-324.104 1149.84,-329.727 1155.3,-334.099"/>
</g>
<!-- 52 -->
<g id="node53" class="node"><title>52</title>
<path fill="none" stroke="#59d856" stroke-width="2" stroke-dasharray="5,2" d="M1630,-396C1630,-396 1535,-396 1535,-396 1529,-396 1523,-390 1523,-384 1523,-384 1523,-372 1523,-372 1523,-366 1529,-360 1535,-360 1535,-360 1630,-360 1630,-360 1636,-360 1642,-366 1642,-372 1642,-372 1642,-384 1642,-384 1642,-390 1636,-396 1630,-396"/>
<text text-anchor="middle" x="1582.5" y="-381" font-family="sans" font-size="10.00">trimming</text>
<text text-anchor="middle" x="1582.5" y="-370" font-family="sans" font-size="10.00">sample: MOLM24D_3</text>
</g>
<!-- 52&#45;&gt;16 -->
<g id="edge52" class="edge"><title>52&#45;&gt;16</title>
<path fill="none" stroke="grey" stroke-width="2" d="M1582.5,-359.871C1582.5,-335.67 1582.5,-291.211 1582.5,-262.393"/>
<polygon fill="grey" stroke="grey" stroke-width="2" points="1586,-262.189 1582.5,-252.189 1579,-262.189 1586,-262.189"/>
</g>
<!-- 52&#45;&gt;25 -->
<g id="edge61" class="edge"><title>52&#45;&gt;25</title>
<path fill="none" stroke="grey" stroke-width="2" d="M1587.63,-359.849C1598.75,-322.675 1625.14,-234.439 1638.48,-189.82"/>
<polygon fill="grey" stroke="grey" stroke-width="2" points="1641.83,-190.816 1641.35,-180.232 1635.13,-188.81 1641.83,-190.816"/>
</g>
<!-- 52&#45;&gt;34 -->
<g id="edge70" class="edge"><title>52&#45;&gt;34</title>
<path fill="none" stroke="grey" stroke-width="2" d="M1566.43,-359.697C1558.56,-351.22 1548.94,-340.864 1540.33,-331.583"/>
<polygon fill="grey" stroke="grey" stroke-width="2" points="1542.75,-329.051 1533.38,-324.104 1537.62,-333.814 1542.75,-329.051"/>
</g>
<!-- 53 -->
<g id="node54" class="node"><title>53</title>
<path fill="none" stroke="#59d856" stroke-width="2" stroke-dasharray="5,2" d="M1938.5,-396C1938.5,-396 1844.5,-396 1844.5,-396 1838.5,-396 1832.5,-390 1832.5,-384 1832.5,-384 1832.5,-372 1832.5,-372 1832.5,-366 1838.5,-360 1844.5,-360 1844.5,-360 1938.5,-360 1938.5,-360 1944.5,-360 1950.5,-366 1950.5,-372 1950.5,-372 1950.5,-384 1950.5,-384 1950.5,-390 1944.5,-396 1938.5,-396"/>
<text text-anchor="middle" x="1891.5" y="-381" font-family="sans" font-size="10.00">trimming</text>
<text text-anchor="middle" x="1891.5" y="-370" font-family="sans" font-size="10.00">sample: MOLM24X_1</text>
</g>
<!-- 53&#45;&gt;17 -->
<g id="edge53" class="edge"><title>53&#45;&gt;17</title>
<path fill="none" stroke="grey" stroke-width="2" d="M1905.26,-359.889C1930.5,-327.266 1983.37,-252.906 2002.5,-180 2006.56,-164.524 2007.49,-159.202 2002.5,-144 1999.19,-133.906 1993.13,-124.151 1986.77,-115.821"/>
<polygon fill="grey" stroke="grey" stroke-width="2" points="1989.42,-113.54 1980.39,-108.007 1984,-117.967 1989.42,-113.54"/>
</g>
<!-- 53&#45;&gt;26 -->
<g id="edge62" class="edge"><title>53&#45;&gt;26</title>
<path fill="none" stroke="grey" stroke-width="2" d="M1891.5,-359.871C1891.5,-335.67 1891.5,-291.211 1891.5,-262.393"/>
<polygon fill="grey" stroke="grey" stroke-width="2" points="1895,-262.189 1891.5,-252.189 1888,-262.189 1895,-262.189"/>
</g>
<!-- 53&#45;&gt;35 -->
<g id="edge71" class="edge"><title>53&#45;&gt;35</title>
<path fill="none" stroke="grey" stroke-width="2" d="M1874.2,-359.697C1865.64,-351.135 1855.16,-340.656 1845.8,-331.304"/>
<polygon fill="grey" stroke="grey" stroke-width="2" points="1848.15,-328.701 1838.6,-324.104 1843.2,-333.65 1848.15,-328.701"/>
</g>
<!-- 54 -->
<g id="node55" class="node"><title>54</title>
<path fill="none" stroke="#59d856" stroke-width="2" stroke-dasharray="5,2" d="M2260.5,-396C2260.5,-396 2166.5,-396 2166.5,-396 2160.5,-396 2154.5,-390 2154.5,-384 2154.5,-384 2154.5,-372 2154.5,-372 2154.5,-366 2160.5,-360 2166.5,-360 2166.5,-360 2260.5,-360 2260.5,-360 2266.5,-360 2272.5,-366 2272.5,-372 2272.5,-372 2272.5,-384 2272.5,-384 2272.5,-390 2266.5,-396 2260.5,-396"/>
<text text-anchor="middle" x="2213.5" y="-381" font-family="sans" font-size="10.00">trimming</text>
<text text-anchor="middle" x="2213.5" y="-370" font-family="sans" font-size="10.00">sample: MOLM24X_2</text>
</g>
<!-- 54&#45;&gt;18 -->
<g id="edge54" class="edge"><title>54&#45;&gt;18</title>
<path fill="none" stroke="grey" stroke-width="2" d="M2218.08,-359.824C2220.83,-349.456 2224.39,-335.976 2227.5,-324 2239.67,-277.093 2253.52,-222.411 2261.61,-190.362"/>
<polygon fill="grey" stroke="grey" stroke-width="2" points="2265.07,-190.957 2264.12,-180.405 2258.28,-189.246 2265.07,-190.957"/>
</g>
<!-- 54&#45;&gt;27 -->
<g id="edge63" class="edge"><title>54&#45;&gt;27</title>
<path fill="none" stroke="grey" stroke-width="2" d="M2215.73,-359.723C2220.14,-319.804 2226.92,-218.86 2194.5,-144 2189.97,-133.534 2182.51,-123.753 2174.8,-115.515"/>
<polygon fill="grey" stroke="grey" stroke-width="2" points="2177.27,-113.031 2167.74,-108.407 2172.3,-117.966 2177.27,-113.031"/>
</g>
<!-- 54&#45;&gt;36 -->
<g id="edge72" class="edge"><title>54&#45;&gt;36</title>
<path fill="none" stroke="grey" stroke-width="2" d="M2190.02,-359.697C2177.94,-350.796 2163.05,-339.823 2149.98,-330.199"/>
<polygon fill="grey" stroke="grey" stroke-width="2" points="2151.84,-327.219 2141.71,-324.104 2147.69,-332.854 2151.84,-327.219"/>
</g>
<!-- 55 -->
<g id="node56" class="node"><title>55</title>
<path fill="none" stroke="#59d856" stroke-width="2" stroke-dasharray="5,2" d="M2429.5,-396C2429.5,-396 2335.5,-396 2335.5,-396 2329.5,-396 2323.5,-390 2323.5,-384 2323.5,-384 2323.5,-372 2323.5,-372 2323.5,-366 2329.5,-360 2335.5,-360 2335.5,-360 2429.5,-360 2429.5,-360 2435.5,-360 2441.5,-366 2441.5,-372 2441.5,-372 2441.5,-384 2441.5,-384 2441.5,-390 2435.5,-396 2429.5,-396"/>
<text text-anchor="middle" x="2382.5" y="-381" font-family="sans" font-size="10.00">trimming</text>
<text text-anchor="middle" x="2382.5" y="-370" font-family="sans" font-size="10.00">sample: MOLM24X_3</text>
</g>
<!-- 55&#45;&gt;19 -->
<g id="edge55" class="edge"><title>55&#45;&gt;19</title>
<path fill="none" stroke="grey" stroke-width="2" d="M2382.5,-359.871C2382.5,-335.67 2382.5,-291.211 2382.5,-262.393"/>
<polygon fill="grey" stroke="grey" stroke-width="2" points="2386,-262.189 2382.5,-252.189 2379,-262.189 2386,-262.189"/>
</g>
<!-- 55&#45;&gt;28 -->
<g id="edge64" class="edge"><title>55&#45;&gt;28</title>
<path fill="none" stroke="grey" stroke-width="2" d="M2388.01,-359.743C2395.56,-335.75 2409.21,-290.878 2418.5,-252 2423.41,-231.474 2427.84,-208.02 2430.95,-190.343"/>
<polygon fill="grey" stroke="grey" stroke-width="2" points="2434.45,-190.611 2432.7,-180.161 2427.55,-189.42 2434.45,-190.611"/>
</g>
<!-- 55&#45;&gt;37 -->
<g id="edge73" class="edge"><title>55&#45;&gt;37</title>
<path fill="none" stroke="grey" stroke-width="2" d="M2366.68,-359.697C2358.93,-351.22 2349.46,-340.864 2340.98,-331.583"/>
<polygon fill="grey" stroke="grey" stroke-width="2" points="2343.47,-329.123 2334.14,-324.104 2338.3,-333.846 2343.47,-329.123"/>
</g>
</g>
</svg>
