<?xml version="1.0" encoding="UTF-8" standalone="no"?>
<!DOCTYPE svg PUBLIC "-//W3C//DTD SVG 1.1//EN"
 "http://www.w3.org/Graphics/SVG/1.1/DTD/svg11.dtd">
<!-- Generated by graphviz version 2.38.0 (20140413.2041)
 -->
<!-- Title: snakemake_dag Pages: 1 -->
<svg width="1396pt" height="404pt"
 viewBox="0.00 0.00 1395.50 404.00" xmlns="http://www.w3.org/2000/svg" xmlns:xlink="http://www.w3.org/1999/xlink">
<g id="graph0" class="graph" transform="scale(1 1) rotate(0) translate(4 400)">
<title>snakemake_dag</title>
<polygon fill="white" stroke="none" points="-4,4 -4,-400 1391.5,-400 1391.5,4 -4,4"/>
<!-- 0 -->
<g id="node1" class="node"><title>0</title>
<path fill="none" stroke="#afd856" stroke-width="2" d="M702.5,-36C702.5,-36 672.5,-36 672.5,-36 666.5,-36 660.5,-30 660.5,-24 660.5,-24 660.5,-12 660.5,-12 660.5,-6 666.5,-0 672.5,-0 672.5,-0 702.5,-0 702.5,-0 708.5,-0 714.5,-6 714.5,-12 714.5,-12 714.5,-24 714.5,-24 714.5,-30 708.5,-36 702.5,-36"/>
<text text-anchor="middle" x="687.5" y="-15.5" font-family="sans" font-size="10.00">all</text>
</g>
<!-- 1 -->
<g id="node2" class="node"><title>1</title>
<path fill="none" stroke="#56d8a9" stroke-width="2" d="M519,-252C519,-252 486,-252 486,-252 480,-252 474,-246 474,-240 474,-240 474,-228 474,-228 474,-222 480,-216 486,-216 486,-216 519,-216 519,-216 525,-216 531,-222 531,-228 531,-228 531,-240 531,-240 531,-246 525,-252 519,-252"/>
<text text-anchor="middle" x="502.5" y="-231.5" font-family="sans" font-size="10.00">sortbam</text>
</g>
<!-- 1&#45;&gt;0 -->
<g id="edge1" class="edge"><title>1&#45;&gt;0</title>
<path fill="none" stroke="grey" stroke-width="2" d="M473.895,-228.411C452.348,-224.965 422.076,-220.147 395.5,-216 287.569,-199.159 92.7552,-229.693 160.5,-144 222.015,-66.1873 540.063,-31.7319 650.037,-22.0189"/>
<polygon fill="grey" stroke="grey" stroke-width="2" points="650.652,-25.4788 660.314,-21.1302 650.049,-18.5048 650.652,-25.4788"/>
</g>
<!-- 20 -->
<g id="node21" class="node"><title>20</title>
<path fill="none" stroke="#d8ac56" stroke-width="2" d="M603.5,-180C603.5,-180 529.5,-180 529.5,-180 523.5,-180 517.5,-174 517.5,-168 517.5,-168 517.5,-156 517.5,-156 517.5,-150 523.5,-144 529.5,-144 529.5,-144 603.5,-144 603.5,-144 609.5,-144 615.5,-150 615.5,-156 615.5,-156 615.5,-168 615.5,-168 615.5,-174 609.5,-180 603.5,-180"/>
<text text-anchor="middle" x="566.5" y="-159.5" font-family="sans" font-size="10.00">fragment_length</text>
</g>
<!-- 1&#45;&gt;20 -->
<g id="edge38" class="edge"><title>1&#45;&gt;20</title>
<path fill="none" stroke="grey" stroke-width="2" d="M518.32,-215.697C526.07,-207.22 535.539,-196.864 544.024,-187.583"/>
<polygon fill="grey" stroke="grey" stroke-width="2" points="546.697,-189.846 550.862,-180.104 541.531,-185.123 546.697,-189.846"/>
</g>
<!-- 2 -->
<g id="node3" class="node"><title>2</title>
<path fill="none" stroke="#56d8a9" stroke-width="2" d="M375,-252C375,-252 342,-252 342,-252 336,-252 330,-246 330,-240 330,-240 330,-228 330,-228 330,-222 336,-216 342,-216 342,-216 375,-216 375,-216 381,-216 387,-222 387,-228 387,-228 387,-240 387,-240 387,-246 381,-252 375,-252"/>
<text text-anchor="middle" x="358.5" y="-231.5" font-family="sans" font-size="10.00">sortbam</text>
</g>
<!-- 2&#45;&gt;0 -->
<g id="edge2" class="edge"><title>2&#45;&gt;0</title>
<path fill="none" stroke="grey" stroke-width="2" d="M329.664,-227.919C273.754,-217.782 155.058,-194.753 143.5,-180 133.633,-167.405 137.7,-158.912 143.5,-144 159.237,-103.543 170.79,-91.6459 209.5,-72 286.635,-32.853 552.04,-22.3555 650.423,-19.7759"/>
<polygon fill="grey" stroke="grey" stroke-width="2" points="650.585,-23.273 660.495,-19.5245 650.41,-16.2752 650.585,-23.273"/>
</g>
<!-- 21 -->
<g id="node22" class="node"><title>21</title>
<path fill="none" stroke="#d8ac56" stroke-width="2" d="M487.5,-180C487.5,-180 413.5,-180 413.5,-180 407.5,-180 401.5,-174 401.5,-168 401.5,-168 401.5,-156 401.5,-156 401.5,-150 407.5,-144 413.5,-144 413.5,-144 487.5,-144 487.5,-144 493.5,-144 499.5,-150 499.5,-156 499.5,-156 499.5,-168 499.5,-168 499.5,-174 493.5,-180 487.5,-180"/>
<text text-anchor="middle" x="450.5" y="-159.5" font-family="sans" font-size="10.00">fragment_length</text>
</g>
<!-- 2&#45;&gt;21 -->
<g id="edge39" class="edge"><title>2&#45;&gt;21</title>
<path fill="none" stroke="grey" stroke-width="2" d="M381.242,-215.697C392.94,-206.796 407.361,-195.823 420.01,-186.199"/>
<polygon fill="grey" stroke="grey" stroke-width="2" points="422.181,-188.945 428.02,-180.104 417.942,-183.374 422.181,-188.945"/>
</g>
<!-- 3 -->
<g id="node4" class="node"><title>3</title>
<path fill="none" stroke="#56d8a9" stroke-width="2" d="M728,-252C728,-252 695,-252 695,-252 689,-252 683,-246 683,-240 683,-240 683,-228 683,-228 683,-222 689,-216 695,-216 695,-216 728,-216 728,-216 734,-216 740,-222 740,-228 740,-228 740,-240 740,-240 740,-246 734,-252 728,-252"/>
<text text-anchor="middle" x="711.5" y="-231.5" font-family="sans" font-size="10.00">sortbam</text>
</g>
<!-- 3&#45;&gt;0 -->
<g id="edge3" class="edge"><title>3&#45;&gt;0</title>
<path fill="none" stroke="grey" stroke-width="2" d="M689.347,-215.875C679.09,-206.524 667.981,-194.003 662.5,-180 645.004,-135.302 652.007,-118.839 662.5,-72 664.514,-63.0093 668.232,-53.747 672.196,-45.5303"/>
<polygon fill="grey" stroke="grey" stroke-width="2" points="675.408,-46.9368 676.875,-36.444 669.185,-43.732 675.408,-46.9368"/>
</g>
<!-- 22 -->
<g id="node23" class="node"><title>22</title>
<path fill="none" stroke="#d8ac56" stroke-width="2" d="M757.5,-180C757.5,-180 683.5,-180 683.5,-180 677.5,-180 671.5,-174 671.5,-168 671.5,-168 671.5,-156 671.5,-156 671.5,-150 677.5,-144 683.5,-144 683.5,-144 757.5,-144 757.5,-144 763.5,-144 769.5,-150 769.5,-156 769.5,-156 769.5,-168 769.5,-168 769.5,-174 763.5,-180 757.5,-180"/>
<text text-anchor="middle" x="720.5" y="-159.5" font-family="sans" font-size="10.00">fragment_length</text>
</g>
<!-- 3&#45;&gt;22 -->
<g id="edge40" class="edge"><title>3&#45;&gt;22</title>
<path fill="none" stroke="grey" stroke-width="2" d="M713.725,-215.697C714.717,-207.983 715.908,-198.712 717.014,-190.112"/>
<polygon fill="grey" stroke="grey" stroke-width="2" points="720.497,-190.469 718.301,-180.104 713.554,-189.576 720.497,-190.469"/>
</g>
<!-- 4 -->
<g id="node5" class="node"><title>4</title>
<path fill="none" stroke="#56d8a9" stroke-width="2" d="M222,-252C222,-252 189,-252 189,-252 183,-252 177,-246 177,-240 177,-240 177,-228 177,-228 177,-222 183,-216 189,-216 189,-216 222,-216 222,-216 228,-216 234,-222 234,-228 234,-228 234,-240 234,-240 234,-246 228,-252 222,-252"/>
<text text-anchor="middle" x="205.5" y="-231.5" font-family="sans" font-size="10.00">sortbam</text>
</g>
<!-- 4&#45;&gt;0 -->
<g id="edge4" class="edge"><title>4&#45;&gt;0</title>
<path fill="none" stroke="grey" stroke-width="2" d="M176.983,-219.907C161.353,-211.057 143.394,-197.738 134.5,-180 112.46,-136.045 120.095,-102.706 158.5,-72 196.819,-41.3633 536.372,-25.058 650.367,-20.4111"/>
<polygon fill="grey" stroke="grey" stroke-width="2" points="650.516,-23.908 660.368,-20.0099 650.236,-16.9136 650.516,-23.908"/>
</g>
<!-- 23 -->
<g id="node24" class="node"><title>23</title>
<path fill="none" stroke="#d8ac56" stroke-width="2" d="M371.5,-180C371.5,-180 297.5,-180 297.5,-180 291.5,-180 285.5,-174 285.5,-168 285.5,-168 285.5,-156 285.5,-156 285.5,-150 291.5,-144 297.5,-144 297.5,-144 371.5,-144 371.5,-144 377.5,-144 383.5,-150 383.5,-156 383.5,-156 383.5,-168 383.5,-168 383.5,-174 377.5,-180 371.5,-180"/>
<text text-anchor="middle" x="334.5" y="-159.5" font-family="sans" font-size="10.00">fragment_length</text>
</g>
<!-- 4&#45;&gt;23 -->
<g id="edge41" class="edge"><title>4&#45;&gt;23</title>
<path fill="none" stroke="grey" stroke-width="2" d="M234.129,-217.465C251.687,-207.937 274.444,-195.588 293.85,-185.058"/>
<polygon fill="grey" stroke="grey" stroke-width="2" points="295.663,-188.057 302.783,-180.211 292.324,-181.904 295.663,-188.057"/>
</g>
<!-- 5 -->
<g id="node6" class="node"><title>5</title>
<path fill="none" stroke="#56d8a9" stroke-width="2" d="M76,-252C76,-252 43,-252 43,-252 37,-252 31,-246 31,-240 31,-240 31,-228 31,-228 31,-222 37,-216 43,-216 43,-216 76,-216 76,-216 82,-216 88,-222 88,-228 88,-228 88,-240 88,-240 88,-246 82,-252 76,-252"/>
<text text-anchor="middle" x="59.5" y="-231.5" font-family="sans" font-size="10.00">sortbam</text>
</g>
<!-- 5&#45;&gt;0 -->
<g id="edge5" class="edge"><title>5&#45;&gt;0</title>
<path fill="none" stroke="grey" stroke-width="2" d="M60.785,-215.916C64.3254,-182.154 77.3697,-107.125 124.5,-72 166.574,-40.6429 531.047,-24.6955 650.073,-20.2897"/>
<polygon fill="grey" stroke="grey" stroke-width="2" points="650.298,-23.7839 660.164,-19.9222 650.043,-16.7885 650.298,-23.7839"/>
</g>
<!-- 24 -->
<g id="node25" class="node"><title>24</title>
<path fill="none" stroke="#d8ac56" stroke-width="2" d="M255.5,-180C255.5,-180 181.5,-180 181.5,-180 175.5,-180 169.5,-174 169.5,-168 169.5,-168 169.5,-156 169.5,-156 169.5,-150 175.5,-144 181.5,-144 181.5,-144 255.5,-144 255.5,-144 261.5,-144 267.5,-150 267.5,-156 267.5,-156 267.5,-168 267.5,-168 267.5,-174 261.5,-180 255.5,-180"/>
<text text-anchor="middle" x="218.5" y="-159.5" font-family="sans" font-size="10.00">fragment_length</text>
</g>
<!-- 5&#45;&gt;24 -->
<g id="edge42" class="edge"><title>5&#45;&gt;24</title>
<path fill="none" stroke="grey" stroke-width="2" d="M88.2937,-220.324C111.189,-210.244 143.713,-195.925 170.528,-184.12"/>
<polygon fill="grey" stroke="grey" stroke-width="2" points="172.007,-187.293 179.749,-180.06 169.186,-180.886 172.007,-187.293"/>
</g>
<!-- 6 -->
<g id="node7" class="node"><title>6</title>
<path fill="none" stroke="#56d8a9" stroke-width="2" d="M1199,-252C1199,-252 1166,-252 1166,-252 1160,-252 1154,-246 1154,-240 1154,-240 1154,-228 1154,-228 1154,-222 1160,-216 1166,-216 1166,-216 1199,-216 1199,-216 1205,-216 1211,-222 1211,-228 1211,-228 1211,-240 1211,-240 1211,-246 1205,-252 1199,-252"/>
<text text-anchor="middle" x="1182.5" y="-231.5" font-family="sans" font-size="10.00">sortbam</text>
</g>
<!-- 6&#45;&gt;0 -->
<g id="edge6" class="edge"><title>6&#45;&gt;0</title>
<path fill="none" stroke="grey" stroke-width="2" d="M1180.97,-215.961C1178.7,-197.296 1173.25,-166.961 1160.5,-144 1138.84,-104.98 1130.39,-92.0183 1090.5,-72 1026.7,-39.9822 812.049,-25.4697 724.822,-20.7908"/>
<polygon fill="grey" stroke="grey" stroke-width="2" points="724.762,-17.283 714.593,-20.2561 724.396,-24.2734 724.762,-17.283"/>
</g>
<!-- 25 -->
<g id="node26" class="node"><title>25</title>
<path fill="none" stroke="#d8ac56" stroke-width="2" d="M1105.5,-180C1105.5,-180 1031.5,-180 1031.5,-180 1025.5,-180 1019.5,-174 1019.5,-168 1019.5,-168 1019.5,-156 1019.5,-156 1019.5,-150 1025.5,-144 1031.5,-144 1031.5,-144 1105.5,-144 1105.5,-144 1111.5,-144 1117.5,-150 1117.5,-156 1117.5,-156 1117.5,-168 1117.5,-168 1117.5,-174 1111.5,-180 1105.5,-180"/>
<text text-anchor="middle" x="1068.5" y="-159.5" font-family="sans" font-size="10.00">fragment_length</text>
</g>
<!-- 6&#45;&gt;25 -->
<g id="edge43" class="edge"><title>6&#45;&gt;25</title>
<path fill="none" stroke="grey" stroke-width="2" d="M1154.61,-215.876C1139.71,-206.724 1121.17,-195.342 1105.12,-185.485"/>
<polygon fill="grey" stroke="grey" stroke-width="2" points="1106.85,-182.44 1096.49,-180.19 1103.19,-188.405 1106.85,-182.44"/>
</g>
<!-- 7 -->
<g id="node8" class="node"><title>7</title>
<path fill="none" stroke="#56d8a9" stroke-width="2" d="M873,-252C873,-252 840,-252 840,-252 834,-252 828,-246 828,-240 828,-240 828,-228 828,-228 828,-222 834,-216 840,-216 840,-216 873,-216 873,-216 879,-216 885,-222 885,-228 885,-228 885,-240 885,-240 885,-246 879,-252 873,-252"/>
<text text-anchor="middle" x="856.5" y="-231.5" font-family="sans" font-size="10.00">sortbam</text>
</g>
<!-- 7&#45;&gt;0 -->
<g id="edge7" class="edge"><title>7&#45;&gt;0</title>
<path fill="none" stroke="grey" stroke-width="2" d="M885.426,-229.407C951.926,-220.858 1111.17,-198.629 1126.5,-180 1136.67,-167.645 1136.14,-156.769 1126.5,-144 1077.15,-78.6324 821.252,-37.3271 724.557,-23.8463"/>
<polygon fill="grey" stroke="grey" stroke-width="2" points="725.022,-20.3774 714.638,-22.4837 724.069,-27.3123 725.022,-20.3774"/>
</g>
<!-- 26 -->
<g id="node27" class="node"><title>26</title>
<path fill="none" stroke="#d8ac56" stroke-width="2" d="M873.5,-180C873.5,-180 799.5,-180 799.5,-180 793.5,-180 787.5,-174 787.5,-168 787.5,-168 787.5,-156 787.5,-156 787.5,-150 793.5,-144 799.5,-144 799.5,-144 873.5,-144 873.5,-144 879.5,-144 885.5,-150 885.5,-156 885.5,-156 885.5,-168 885.5,-168 885.5,-174 879.5,-180 873.5,-180"/>
<text text-anchor="middle" x="836.5" y="-159.5" font-family="sans" font-size="10.00">fragment_length</text>
</g>
<!-- 7&#45;&gt;26 -->
<g id="edge44" class="edge"><title>7&#45;&gt;26</title>
<path fill="none" stroke="grey" stroke-width="2" d="M851.556,-215.697C849.328,-207.898 846.645,-198.509 844.165,-189.829"/>
<polygon fill="grey" stroke="grey" stroke-width="2" points="847.5,-188.758 841.387,-180.104 840.769,-190.681 847.5,-188.758"/>
</g>
<!-- 8 -->
<g id="node9" class="node"><title>8</title>
<path fill="none" stroke="#56d8a9" stroke-width="2" d="M1345,-252C1345,-252 1312,-252 1312,-252 1306,-252 1300,-246 1300,-240 1300,-240 1300,-228 1300,-228 1300,-222 1306,-216 1312,-216 1312,-216 1345,-216 1345,-216 1351,-216 1357,-222 1357,-228 1357,-228 1357,-240 1357,-240 1357,-246 1351,-252 1345,-252"/>
<text text-anchor="middle" x="1328.5" y="-231.5" font-family="sans" font-size="10.00">sortbam</text>
</g>
<!-- 8&#45;&gt;0 -->
<g id="edge8" class="edge"><title>8&#45;&gt;0</title>
<path fill="none" stroke="grey" stroke-width="2" d="M1342.35,-215.772C1355.91,-196.664 1372.41,-165.678 1356.5,-144 1280.86,-40.9233 855.001,-22.7912 725.113,-19.6483"/>
<polygon fill="grey" stroke="grey" stroke-width="2" points="724.951,-16.1438 714.875,-19.4172 724.793,-23.142 724.951,-16.1438"/>
</g>
<!-- 27 -->
<g id="node28" class="node"><title>27</title>
<path fill="none" stroke="#d8ac56" stroke-width="2" d="M1335.5,-180C1335.5,-180 1261.5,-180 1261.5,-180 1255.5,-180 1249.5,-174 1249.5,-168 1249.5,-168 1249.5,-156 1249.5,-156 1249.5,-150 1255.5,-144 1261.5,-144 1261.5,-144 1335.5,-144 1335.5,-144 1341.5,-144 1347.5,-150 1347.5,-156 1347.5,-156 1347.5,-168 1347.5,-168 1347.5,-174 1341.5,-180 1335.5,-180"/>
<text text-anchor="middle" x="1298.5" y="-159.5" font-family="sans" font-size="10.00">fragment_length</text>
</g>
<!-- 8&#45;&gt;27 -->
<g id="edge45" class="edge"><title>8&#45;&gt;27</title>
<path fill="none" stroke="grey" stroke-width="2" d="M1321.08,-215.697C1317.71,-207.813 1313.63,-198.304 1309.88,-189.546"/>
<polygon fill="grey" stroke="grey" stroke-width="2" points="1312.99,-187.917 1305.83,-180.104 1306.55,-190.675 1312.99,-187.917"/>
</g>
<!-- 9 -->
<g id="node10" class="node"><title>9</title>
<path fill="none" stroke="#56d8a9" stroke-width="2" d="M1044,-252C1044,-252 1011,-252 1011,-252 1005,-252 999,-246 999,-240 999,-240 999,-228 999,-228 999,-222 1005,-216 1011,-216 1011,-216 1044,-216 1044,-216 1050,-216 1056,-222 1056,-228 1056,-228 1056,-240 1056,-240 1056,-246 1050,-252 1044,-252"/>
<text text-anchor="middle" x="1027.5" y="-231.5" font-family="sans" font-size="10.00">sortbam</text>
</g>
<!-- 9&#45;&gt;0 -->
<g id="edge9" class="edge"><title>9&#45;&gt;0</title>
<path fill="none" stroke="grey" stroke-width="2" d="M1056.12,-228.804C1083.82,-223.056 1124.35,-209.804 1143.5,-180 1152.15,-166.539 1150.96,-158.156 1143.5,-144 1117.13,-93.9377 1091.14,-92.75 1038.5,-72 930.149,-29.2913 790.493,-20.7559 724.796,-19.2141"/>
<polygon fill="grey" stroke="grey" stroke-width="2" points="724.595,-15.7096 714.53,-19.0169 724.461,-22.7084 724.595,-15.7096"/>
</g>
<!-- 28 -->
<g id="node29" class="node"><title>28</title>
<path fill="none" stroke="#d8ac56" stroke-width="2" d="M989.5,-180C989.5,-180 915.5,-180 915.5,-180 909.5,-180 903.5,-174 903.5,-168 903.5,-168 903.5,-156 903.5,-156 903.5,-150 909.5,-144 915.5,-144 915.5,-144 989.5,-144 989.5,-144 995.5,-144 1001.5,-150 1001.5,-156 1001.5,-156 1001.5,-168 1001.5,-168 1001.5,-174 995.5,-180 989.5,-180"/>
<text text-anchor="middle" x="952.5" y="-159.5" font-family="sans" font-size="10.00">fragment_length</text>
</g>
<!-- 9&#45;&gt;28 -->
<g id="edge46" class="edge"><title>9&#45;&gt;28</title>
<path fill="none" stroke="grey" stroke-width="2" d="M1008.96,-215.697C999.697,-207.05 988.338,-196.449 978.243,-187.027"/>
<polygon fill="grey" stroke="grey" stroke-width="2" points="980.525,-184.369 970.826,-180.104 975.749,-189.486 980.525,-184.369"/>
</g>
<!-- 10 -->
<g id="node11" class="node"><title>10</title>
<path fill="none" stroke="#56a9d8" stroke-width="2" d="M781.5,-108C781.5,-108 683.5,-108 683.5,-108 677.5,-108 671.5,-102 671.5,-96 671.5,-96 671.5,-84 671.5,-84 671.5,-78 677.5,-72 683.5,-72 683.5,-72 781.5,-72 781.5,-72 787.5,-72 793.5,-78 793.5,-84 793.5,-84 793.5,-96 793.5,-96 793.5,-102 787.5,-108 781.5,-108"/>
<text text-anchor="middle" x="732.5" y="-87.5" font-family="sans" font-size="10.00">fragment_length_plot</text>
</g>
<!-- 10&#45;&gt;0 -->
<g id="edge10" class="edge"><title>10&#45;&gt;0</title>
<path fill="none" stroke="grey" stroke-width="2" d="M721.376,-71.6966C716.145,-63.5589 709.8,-53.689 704.022,-44.7013"/>
<polygon fill="grey" stroke="grey" stroke-width="2" points="706.847,-42.6235 698.496,-36.1043 700.959,-46.4088 706.847,-42.6235"/>
</g>
<!-- 11 -->
<g id="node12" class="node"><title>11</title>
<path fill="none" stroke="#59d856" stroke-width="2" stroke-dasharray="5,2" d="M517.5,-324C517.5,-324 487.5,-324 487.5,-324 481.5,-324 475.5,-318 475.5,-312 475.5,-312 475.5,-300 475.5,-300 475.5,-294 481.5,-288 487.5,-288 487.5,-288 517.5,-288 517.5,-288 523.5,-288 529.5,-294 529.5,-300 529.5,-300 529.5,-312 529.5,-312 529.5,-318 523.5,-324 517.5,-324"/>
<text text-anchor="middle" x="502.5" y="-303.5" font-family="sans" font-size="10.00">align</text>
</g>
<!-- 11&#45;&gt;1 -->
<g id="edge11" class="edge"><title>11&#45;&gt;1</title>
<path fill="none" stroke="grey" stroke-width="2" d="M502.5,-287.697C502.5,-279.983 502.5,-270.712 502.5,-262.112"/>
<polygon fill="grey" stroke="grey" stroke-width="2" points="506,-262.104 502.5,-252.104 499,-262.104 506,-262.104"/>
</g>
<!-- 12 -->
<g id="node13" class="node"><title>12</title>
<path fill="none" stroke="#59d856" stroke-width="2" stroke-dasharray="5,2" d="M373.5,-324C373.5,-324 343.5,-324 343.5,-324 337.5,-324 331.5,-318 331.5,-312 331.5,-312 331.5,-300 331.5,-300 331.5,-294 337.5,-288 343.5,-288 343.5,-288 373.5,-288 373.5,-288 379.5,-288 385.5,-294 385.5,-300 385.5,-300 385.5,-312 385.5,-312 385.5,-318 379.5,-324 373.5,-324"/>
<text text-anchor="middle" x="358.5" y="-303.5" font-family="sans" font-size="10.00">align</text>
</g>
<!-- 12&#45;&gt;2 -->
<g id="edge12" class="edge"><title>12&#45;&gt;2</title>
<path fill="none" stroke="grey" stroke-width="2" d="M358.5,-287.697C358.5,-279.983 358.5,-270.712 358.5,-262.112"/>
<polygon fill="grey" stroke="grey" stroke-width="2" points="362,-262.104 358.5,-252.104 355,-262.104 362,-262.104"/>
</g>
<!-- 13 -->
<g id="node14" class="node"><title>13</title>
<path fill="none" stroke="#59d856" stroke-width="2" stroke-dasharray="5,2" d="M726.5,-324C726.5,-324 696.5,-324 696.5,-324 690.5,-324 684.5,-318 684.5,-312 684.5,-312 684.5,-300 684.5,-300 684.5,-294 690.5,-288 696.5,-288 696.5,-288 726.5,-288 726.5,-288 732.5,-288 738.5,-294 738.5,-300 738.5,-300 738.5,-312 738.5,-312 738.5,-318 732.5,-324 726.5,-324"/>
<text text-anchor="middle" x="711.5" y="-303.5" font-family="sans" font-size="10.00">align</text>
</g>
<!-- 13&#45;&gt;3 -->
<g id="edge13" class="edge"><title>13&#45;&gt;3</title>
<path fill="none" stroke="grey" stroke-width="2" d="M711.5,-287.697C711.5,-279.983 711.5,-270.712 711.5,-262.112"/>
<polygon fill="grey" stroke="grey" stroke-width="2" points="715,-262.104 711.5,-252.104 708,-262.104 715,-262.104"/>
</g>
<!-- 14 -->
<g id="node15" class="node"><title>14</title>
<path fill="none" stroke="#59d856" stroke-width="2" stroke-dasharray="5,2" d="M220.5,-324C220.5,-324 190.5,-324 190.5,-324 184.5,-324 178.5,-318 178.5,-312 178.5,-312 178.5,-300 178.5,-300 178.5,-294 184.5,-288 190.5,-288 190.5,-288 220.5,-288 220.5,-288 226.5,-288 232.5,-294 232.5,-300 232.5,-300 232.5,-312 232.5,-312 232.5,-318 226.5,-324 220.5,-324"/>
<text text-anchor="middle" x="205.5" y="-303.5" font-family="sans" font-size="10.00">align</text>
</g>
<!-- 14&#45;&gt;4 -->
<g id="edge14" class="edge"><title>14&#45;&gt;4</title>
<path fill="none" stroke="grey" stroke-width="2" d="M205.5,-287.697C205.5,-279.983 205.5,-270.712 205.5,-262.112"/>
<polygon fill="grey" stroke="grey" stroke-width="2" points="209,-262.104 205.5,-252.104 202,-262.104 209,-262.104"/>
</g>
<!-- 15 -->
<g id="node16" class="node"><title>15</title>
<path fill="none" stroke="#59d856" stroke-width="2" stroke-dasharray="5,2" d="M74.5,-324C74.5,-324 44.5,-324 44.5,-324 38.5,-324 32.5,-318 32.5,-312 32.5,-312 32.5,-300 32.5,-300 32.5,-294 38.5,-288 44.5,-288 44.5,-288 74.5,-288 74.5,-288 80.5,-288 86.5,-294 86.5,-300 86.5,-300 86.5,-312 86.5,-312 86.5,-318 80.5,-324 74.5,-324"/>
<text text-anchor="middle" x="59.5" y="-303.5" font-family="sans" font-size="10.00">align</text>
</g>
<!-- 15&#45;&gt;5 -->
<g id="edge15" class="edge"><title>15&#45;&gt;5</title>
<path fill="none" stroke="grey" stroke-width="2" d="M59.5,-287.697C59.5,-279.983 59.5,-270.712 59.5,-262.112"/>
<polygon fill="grey" stroke="grey" stroke-width="2" points="63.0001,-262.104 59.5,-252.104 56.0001,-262.104 63.0001,-262.104"/>
</g>
<!-- 16 -->
<g id="node17" class="node"><title>16</title>
<path fill="none" stroke="#59d856" stroke-width="2" stroke-dasharray="5,2" d="M1197.5,-324C1197.5,-324 1167.5,-324 1167.5,-324 1161.5,-324 1155.5,-318 1155.5,-312 1155.5,-312 1155.5,-300 1155.5,-300 1155.5,-294 1161.5,-288 1167.5,-288 1167.5,-288 1197.5,-288 1197.5,-288 1203.5,-288 1209.5,-294 1209.5,-300 1209.5,-300 1209.5,-312 1209.5,-312 1209.5,-318 1203.5,-324 1197.5,-324"/>
<text text-anchor="middle" x="1182.5" y="-303.5" font-family="sans" font-size="10.00">align</text>
</g>
<!-- 16&#45;&gt;6 -->
<g id="edge16" class="edge"><title>16&#45;&gt;6</title>
<path fill="none" stroke="grey" stroke-width="2" d="M1182.5,-287.697C1182.5,-279.983 1182.5,-270.712 1182.5,-262.112"/>
<polygon fill="grey" stroke="grey" stroke-width="2" points="1186,-262.104 1182.5,-252.104 1179,-262.104 1186,-262.104"/>
</g>
<!-- 17 -->
<g id="node18" class="node"><title>17</title>
<path fill="none" stroke="#59d856" stroke-width="2" stroke-dasharray="5,2" d="M871.5,-324C871.5,-324 841.5,-324 841.5,-324 835.5,-324 829.5,-318 829.5,-312 829.5,-312 829.5,-300 829.5,-300 829.5,-294 835.5,-288 841.5,-288 841.5,-288 871.5,-288 871.5,-288 877.5,-288 883.5,-294 883.5,-300 883.5,-300 883.5,-312 883.5,-312 883.5,-318 877.5,-324 871.5,-324"/>
<text text-anchor="middle" x="856.5" y="-303.5" font-family="sans" font-size="10.00">align</text>
</g>
<!-- 17&#45;&gt;7 -->
<g id="edge17" class="edge"><title>17&#45;&gt;7</title>
<path fill="none" stroke="grey" stroke-width="2" d="M856.5,-287.697C856.5,-279.983 856.5,-270.712 856.5,-262.112"/>
<polygon fill="grey" stroke="grey" stroke-width="2" points="860,-262.104 856.5,-252.104 853,-262.104 860,-262.104"/>
</g>
<!-- 18 -->
<g id="node19" class="node"><title>18</title>
<path fill="none" stroke="#59d856" stroke-width="2" stroke-dasharray="5,2" d="M1343.5,-324C1343.5,-324 1313.5,-324 1313.5,-324 1307.5,-324 1301.5,-318 1301.5,-312 1301.5,-312 1301.5,-300 1301.5,-300 1301.5,-294 1307.5,-288 1313.5,-288 1313.5,-288 1343.5,-288 1343.5,-288 1349.5,-288 1355.5,-294 1355.5,-300 1355.5,-300 1355.5,-312 1355.5,-312 1355.5,-318 1349.5,-324 1343.5,-324"/>
<text text-anchor="middle" x="1328.5" y="-303.5" font-family="sans" font-size="10.00">align</text>
</g>
<!-- 18&#45;&gt;8 -->
<g id="edge18" class="edge"><title>18&#45;&gt;8</title>
<path fill="none" stroke="grey" stroke-width="2" d="M1328.5,-287.697C1328.5,-279.983 1328.5,-270.712 1328.5,-262.112"/>
<polygon fill="grey" stroke="grey" stroke-width="2" points="1332,-262.104 1328.5,-252.104 1325,-262.104 1332,-262.104"/>
</g>
<!-- 19 -->
<g id="node20" class="node"><title>19</title>
<path fill="none" stroke="#59d856" stroke-width="2" stroke-dasharray="5,2" d="M1042.5,-324C1042.5,-324 1012.5,-324 1012.5,-324 1006.5,-324 1000.5,-318 1000.5,-312 1000.5,-312 1000.5,-300 1000.5,-300 1000.5,-294 1006.5,-288 1012.5,-288 1012.5,-288 1042.5,-288 1042.5,-288 1048.5,-288 1054.5,-294 1054.5,-300 1054.5,-300 1054.5,-312 1054.5,-312 1054.5,-318 1048.5,-324 1042.5,-324"/>
<text text-anchor="middle" x="1027.5" y="-303.5" font-family="sans" font-size="10.00">align</text>
</g>
<!-- 19&#45;&gt;9 -->
<g id="edge19" class="edge"><title>19&#45;&gt;9</title>
<path fill="none" stroke="grey" stroke-width="2" d="M1027.5,-287.697C1027.5,-279.983 1027.5,-270.712 1027.5,-262.112"/>
<polygon fill="grey" stroke="grey" stroke-width="2" points="1031,-262.104 1027.5,-252.104 1024,-262.104 1031,-262.104"/>
</g>
<!-- 20&#45;&gt;10 -->
<g id="edge20" class="edge"><title>20&#45;&gt;10</title>
<path fill="none" stroke="grey" stroke-width="2" d="M607.108,-143.876C629.902,-134.264 658.527,-122.193 682.67,-112.013"/>
<polygon fill="grey" stroke="grey" stroke-width="2" points="684.169,-115.179 692.024,-108.068 681.449,-108.729 684.169,-115.179"/>
</g>
<!-- 21&#45;&gt;10 -->
<g id="edge21" class="edge"><title>21&#45;&gt;10</title>
<path fill="none" stroke="grey" stroke-width="2" d="M499.811,-146.354C502.747,-145.542 505.66,-144.752 508.5,-144 559.501,-130.502 617.47,-116.831 661.657,-106.755"/>
<polygon fill="grey" stroke="grey" stroke-width="2" points="662.462,-110.162 671.437,-104.532 660.91,-103.336 662.462,-110.162"/>
</g>
<!-- 22&#45;&gt;10 -->
<g id="edge22" class="edge"><title>22&#45;&gt;10</title>
<path fill="none" stroke="grey" stroke-width="2" d="M723.466,-143.697C724.789,-135.983 726.378,-126.712 727.852,-118.112"/>
<polygon fill="grey" stroke="grey" stroke-width="2" points="731.328,-118.552 729.568,-108.104 724.428,-117.369 731.328,-118.552"/>
</g>
<!-- 23&#45;&gt;10 -->
<g id="edge23" class="edge"><title>23&#45;&gt;10</title>
<path fill="none" stroke="grey" stroke-width="2" d="M383.747,-146.091C386.699,-145.345 389.633,-144.641 392.5,-144 484.279,-123.488 591.747,-108.162 660.905,-99.3999"/>
<polygon fill="grey" stroke="grey" stroke-width="2" points="661.759,-102.82 671.246,-98.1026 660.888,-95.8748 661.759,-102.82"/>
</g>
<!-- 24&#45;&gt;10 -->
<g id="edge24" class="edge"><title>24&#45;&gt;10</title>
<path fill="none" stroke="grey" stroke-width="2" d="M267.719,-145.957C270.677,-145.245 273.621,-144.585 276.5,-144 411.119,-116.654 571.17,-102.106 661.385,-95.5185"/>
<polygon fill="grey" stroke="grey" stroke-width="2" points="661.776,-98.9996 671.499,-94.7921 661.274,-92.0176 661.776,-98.9996"/>
</g>
<!-- 25&#45;&gt;10 -->
<g id="edge25" class="edge"><title>25&#45;&gt;10</title>
<path fill="none" stroke="grey" stroke-width="2" d="M1019.23,-146.205C1016.28,-145.431 1013.36,-144.689 1010.5,-144 940.661,-127.149 859.908,-112.257 803.492,-102.584"/>
<polygon fill="grey" stroke="grey" stroke-width="2" points="804.047,-99.128 793.601,-100.899 802.872,-106.029 804.047,-99.128"/>
</g>
<!-- 26&#45;&gt;10 -->
<g id="edge26" class="edge"><title>26&#45;&gt;10</title>
<path fill="none" stroke="grey" stroke-width="2" d="M811.059,-143.876C797.713,-134.893 781.176,-123.763 766.722,-114.034"/>
<polygon fill="grey" stroke="grey" stroke-width="2" points="768.289,-110.87 758.039,-108.19 764.381,-116.677 768.289,-110.87"/>
</g>
<!-- 27&#45;&gt;10 -->
<g id="edge27" class="edge"><title>27&#45;&gt;10</title>
<path fill="none" stroke="grey" stroke-width="2" d="M1249.26,-154.91C1149.01,-142.512 920.834,-114.292 804.134,-99.8594"/>
<polygon fill="grey" stroke="grey" stroke-width="2" points="804.233,-96.345 793.879,-98.5911 803.374,-103.292 804.233,-96.345"/>
</g>
<!-- 28&#45;&gt;10 -->
<g id="edge28" class="edge"><title>28&#45;&gt;10</title>
<path fill="none" stroke="grey" stroke-width="2" d="M903.402,-145.378C871.705,-135.292 830.156,-122.073 795.963,-111.193"/>
<polygon fill="grey" stroke="grey" stroke-width="2" points="796.66,-107.742 786.069,-108.045 794.537,-114.412 796.66,-107.742"/>
</g>
<!-- 29 -->
<g id="node30" class="node"><title>29</title>
<path fill="none" stroke="#d85656" stroke-width="2" stroke-dasharray="5,2" d="M549.5,-396C549.5,-396 455.5,-396 455.5,-396 449.5,-396 443.5,-390 443.5,-384 443.5,-384 443.5,-372 443.5,-372 443.5,-366 449.5,-360 455.5,-360 455.5,-360 549.5,-360 549.5,-360 555.5,-360 561.5,-366 561.5,-372 561.5,-372 561.5,-384 561.5,-384 561.5,-390 555.5,-396 549.5,-396"/>
<text text-anchor="middle" x="502.5" y="-381" font-family="sans" font-size="10.00">trimming</text>
<text text-anchor="middle" x="502.5" y="-370" font-family="sans" font-size="10.00">sample: MOLM24C_1</text>
</g>
<!-- 29&#45;&gt;11 -->
<g id="edge29" class="edge"><title>29&#45;&gt;11</title>
<path fill="none" stroke="grey" stroke-width="2" d="M502.5,-359.697C502.5,-351.983 502.5,-342.712 502.5,-334.112"/>
<polygon fill="grey" stroke="grey" stroke-width="2" points="506,-334.104 502.5,-324.104 499,-334.104 506,-334.104"/>
</g>
<!-- 30 -->
<g id="node31" class="node"><title>30</title>
<path fill="none" stroke="#d85656" stroke-width="2" stroke-dasharray="5,2" d="M405.5,-396C405.5,-396 311.5,-396 311.5,-396 305.5,-396 299.5,-390 299.5,-384 299.5,-384 299.5,-372 299.5,-372 299.5,-366 305.5,-360 311.5,-360 311.5,-360 405.5,-360 405.5,-360 411.5,-360 417.5,-366 417.5,-372 417.5,-372 417.5,-384 417.5,-384 417.5,-390 411.5,-396 405.5,-396"/>
<text text-anchor="middle" x="358.5" y="-381" font-family="sans" font-size="10.00">trimming</text>
<text text-anchor="middle" x="358.5" y="-370" font-family="sans" font-size="10.00">sample: MOLM24C_2</text>
</g>
<!-- 30&#45;&gt;12 -->
<g id="edge30" class="edge"><title>30&#45;&gt;12</title>
<path fill="none" stroke="grey" stroke-width="2" d="M358.5,-359.697C358.5,-351.983 358.5,-342.712 358.5,-334.112"/>
<polygon fill="grey" stroke="grey" stroke-width="2" points="362,-334.104 358.5,-324.104 355,-334.104 362,-334.104"/>
</g>
<!-- 31 -->
<g id="node32" class="node"><title>31</title>
<path fill="none" stroke="#d85656" stroke-width="2" stroke-dasharray="5,2" d="M758.5,-396C758.5,-396 664.5,-396 664.5,-396 658.5,-396 652.5,-390 652.5,-384 652.5,-384 652.5,-372 652.5,-372 652.5,-366 658.5,-360 664.5,-360 664.5,-360 758.5,-360 758.5,-360 764.5,-360 770.5,-366 770.5,-372 770.5,-372 770.5,-384 770.5,-384 770.5,-390 764.5,-396 758.5,-396"/>
<text text-anchor="middle" x="711.5" y="-381" font-family="sans" font-size="10.00">trimming</text>
<text text-anchor="middle" x="711.5" y="-370" font-family="sans" font-size="10.00">sample: MOLM24C_3</text>
</g>
<!-- 31&#45;&gt;13 -->
<g id="edge31" class="edge"><title>31&#45;&gt;13</title>
<path fill="none" stroke="grey" stroke-width="2" d="M711.5,-359.697C711.5,-351.983 711.5,-342.712 711.5,-334.112"/>
<polygon fill="grey" stroke="grey" stroke-width="2" points="715,-334.104 711.5,-324.104 708,-334.104 715,-334.104"/>
</g>
<!-- 32 -->
<g id="node33" class="node"><title>32</title>
<path fill="none" stroke="#d85656" stroke-width="2" stroke-dasharray="5,2" d="M253,-396C253,-396 158,-396 158,-396 152,-396 146,-390 146,-384 146,-384 146,-372 146,-372 146,-366 152,-360 158,-360 158,-360 253,-360 253,-360 259,-360 265,-366 265,-372 265,-372 265,-384 265,-384 265,-390 259,-396 253,-396"/>
<text text-anchor="middle" x="205.5" y="-381" font-family="sans" font-size="10.00">trimming</text>
<text text-anchor="middle" x="205.5" y="-370" font-family="sans" font-size="10.00">sample: MOLM24D_1</text>
</g>
<!-- 32&#45;&gt;14 -->
<g id="edge32" class="edge"><title>32&#45;&gt;14</title>
<path fill="none" stroke="grey" stroke-width="2" d="M205.5,-359.697C205.5,-351.983 205.5,-342.712 205.5,-334.112"/>
<polygon fill="grey" stroke="grey" stroke-width="2" points="209,-334.104 205.5,-324.104 202,-334.104 209,-334.104"/>
</g>
<!-- 33 -->
<g id="node34" class="node"><title>33</title>
<path fill="none" stroke="#d85656" stroke-width="2" stroke-dasharray="5,2" d="M107,-396C107,-396 12,-396 12,-396 6,-396 0,-390 0,-384 0,-384 0,-372 0,-372 0,-366 6,-360 12,-360 12,-360 107,-360 107,-360 113,-360 119,-366 119,-372 119,-372 119,-384 119,-384 119,-390 113,-396 107,-396"/>
<text text-anchor="middle" x="59.5" y="-381" font-family="sans" font-size="10.00">trimming</text>
<text text-anchor="middle" x="59.5" y="-370" font-family="sans" font-size="10.00">sample: MOLM24D_2</text>
</g>
<!-- 33&#45;&gt;15 -->
<g id="edge33" class="edge"><title>33&#45;&gt;15</title>
<path fill="none" stroke="grey" stroke-width="2" d="M59.5,-359.697C59.5,-351.983 59.5,-342.712 59.5,-334.112"/>
<polygon fill="grey" stroke="grey" stroke-width="2" points="63.0001,-334.104 59.5,-324.104 56.0001,-334.104 63.0001,-334.104"/>
</g>
<!-- 34 -->
<g id="node35" class="node"><title>34</title>
<path fill="none" stroke="#d85656" stroke-width="2" stroke-dasharray="5,2" d="M1230,-396C1230,-396 1135,-396 1135,-396 1129,-396 1123,-390 1123,-384 1123,-384 1123,-372 1123,-372 1123,-366 1129,-360 1135,-360 1135,-360 1230,-360 1230,-360 1236,-360 1242,-366 1242,-372 1242,-372 1242,-384 1242,-384 1242,-390 1236,-396 1230,-396"/>
<text text-anchor="middle" x="1182.5" y="-381" font-family="sans" font-size="10.00">trimming</text>
<text text-anchor="middle" x="1182.5" y="-370" font-family="sans" font-size="10.00">sample: MOLM24D_3</text>
</g>
<!-- 34&#45;&gt;16 -->
<g id="edge34" class="edge"><title>34&#45;&gt;16</title>
<path fill="none" stroke="grey" stroke-width="2" d="M1182.5,-359.697C1182.5,-351.983 1182.5,-342.712 1182.5,-334.112"/>
<polygon fill="grey" stroke="grey" stroke-width="2" points="1186,-334.104 1182.5,-324.104 1179,-334.104 1186,-334.104"/>
</g>
<!-- 35 -->
<g id="node36" class="node"><title>35</title>
<path fill="none" stroke="#d85656" stroke-width="2" stroke-dasharray="5,2" d="M903.5,-396C903.5,-396 809.5,-396 809.5,-396 803.5,-396 797.5,-390 797.5,-384 797.5,-384 797.5,-372 797.5,-372 797.5,-366 803.5,-360 809.5,-360 809.5,-360 903.5,-360 903.5,-360 909.5,-360 915.5,-366 915.5,-372 915.5,-372 915.5,-384 915.5,-384 915.5,-390 909.5,-396 903.5,-396"/>
<text text-anchor="middle" x="856.5" y="-381" font-family="sans" font-size="10.00">trimming</text>
<text text-anchor="middle" x="856.5" y="-370" font-family="sans" font-size="10.00">sample: MOLM24X_1</text>
</g>
<!-- 35&#45;&gt;17 -->
<g id="edge35" class="edge"><title>35&#45;&gt;17</title>
<path fill="none" stroke="grey" stroke-width="2" d="M856.5,-359.697C856.5,-351.983 856.5,-342.712 856.5,-334.112"/>
<polygon fill="grey" stroke="grey" stroke-width="2" points="860,-334.104 856.5,-324.104 853,-334.104 860,-334.104"/>
</g>
<!-- 36 -->
<g id="node37" class="node"><title>36</title>
<path fill="none" stroke="#d85656" stroke-width="2" stroke-dasharray="5,2" d="M1375.5,-396C1375.5,-396 1281.5,-396 1281.5,-396 1275.5,-396 1269.5,-390 1269.5,-384 1269.5,-384 1269.5,-372 1269.5,-372 1269.5,-366 1275.5,-360 1281.5,-360 1281.5,-360 1375.5,-360 1375.5,-360 1381.5,-360 1387.5,-366 1387.5,-372 1387.5,-372 1387.5,-384 1387.5,-384 1387.5,-390 1381.5,-396 1375.5,-396"/>
<text text-anchor="middle" x="1328.5" y="-381" font-family="sans" font-size="10.00">trimming</text>
<text text-anchor="middle" x="1328.5" y="-370" font-family="sans" font-size="10.00">sample: MOLM24X_2</text>
</g>
<!-- 36&#45;&gt;18 -->
<g id="edge36" class="edge"><title>36&#45;&gt;18</title>
<path fill="none" stroke="grey" stroke-width="2" d="M1328.5,-359.697C1328.5,-351.983 1328.5,-342.712 1328.5,-334.112"/>
<polygon fill="grey" stroke="grey" stroke-width="2" points="1332,-334.104 1328.5,-324.104 1325,-334.104 1332,-334.104"/>
</g>
<!-- 37 -->
<g id="node38" class="node"><title>37</title>
<path fill="none" stroke="#d85656" stroke-width="2" stroke-dasharray="5,2" d="M1074.5,-396C1074.5,-396 980.5,-396 980.5,-396 974.5,-396 968.5,-390 968.5,-384 968.5,-384 968.5,-372 968.5,-372 968.5,-366 974.5,-360 980.5,-360 980.5,-360 1074.5,-360 1074.5,-360 1080.5,-360 1086.5,-366 1086.5,-372 1086.5,-372 1086.5,-384 1086.5,-384 1086.5,-390 1080.5,-396 1074.5,-396"/>
<text text-anchor="middle" x="1027.5" y="-381" font-family="sans" font-size="10.00">trimming</text>
<text text-anchor="middle" x="1027.5" y="-370" font-family="sans" font-size="10.00">sample: MOLM24X_3</text>
</g>
<!-- 37&#45;&gt;19 -->
<g id="edge37" class="edge"><title>37&#45;&gt;19</title>
<path fill="none" stroke="grey" stroke-width="2" d="M1027.5,-359.697C1027.5,-351.983 1027.5,-342.712 1027.5,-334.112"/>
<polygon fill="grey" stroke="grey" stroke-width="2" points="1031,-334.104 1027.5,-324.104 1024,-334.104 1031,-334.104"/>
</g>
</g>
</svg>
