<?xml version="1.0" encoding="UTF-8" standalone="no"?>
<!DOCTYPE svg PUBLIC "-//W3C//DTD SVG 1.1//EN"
 "http://www.w3.org/Graphics/SVG/1.1/DTD/svg11.dtd">
<!-- Generated by graphviz version 2.38.0 (20140413.2041)
 -->
<!-- Title: snakemake_dag Pages: 1 -->
<svg width="502pt" height="764pt"
 viewBox="0.00 0.00 502.00 764.00" xmlns="http://www.w3.org/2000/svg" xmlns:xlink="http://www.w3.org/1999/xlink">
<g id="graph0" class="graph" transform="scale(1 1) rotate(0) translate(4 760)">
<title>snakemake_dag</title>
<polygon fill="white" stroke="none" points="-4,4 -4,-760 498,-760 498,4 -4,4"/>
<!-- 0 -->
<g id="node1" class="node"><title>0</title>
<path fill="none" stroke="#b6d856" stroke-width="2" d="M196,-36C196,-36 166,-36 166,-36 160,-36 154,-30 154,-24 154,-24 154,-12 154,-12 154,-6 160,-0 166,-0 166,-0 196,-0 196,-0 202,-0 208,-6 208,-12 208,-12 208,-24 208,-24 208,-30 202,-36 196,-36"/>
<text text-anchor="middle" x="181" y="-15.5" font-family="sans" font-size="10.00">all</text>
</g>
<!-- 1 -->
<g id="node2" class="node"><title>1</title>
<path fill="none" stroke="#d85656" stroke-width="2" d="M268.5,-612C268.5,-612 235.5,-612 235.5,-612 229.5,-612 223.5,-606 223.5,-600 223.5,-600 223.5,-588 223.5,-588 223.5,-582 229.5,-576 235.5,-576 235.5,-576 268.5,-576 268.5,-576 274.5,-576 280.5,-582 280.5,-588 280.5,-588 280.5,-600 280.5,-600 280.5,-606 274.5,-612 268.5,-612"/>
<text text-anchor="middle" x="252" y="-591.5" font-family="sans" font-size="10.00">sortbam</text>
</g>
<!-- 1&#45;&gt;0 -->
<g id="edge1" class="edge"><title>1&#45;&gt;0</title>
<path fill="none" stroke="grey" stroke-width="2" d="M280.568,-577.272C294.687,-568.128 310.834,-555.371 321,-540 343.538,-505.924 344,-491.855 344,-451 344,-451 344,-451 344,-161 344,-94.4629 265.827,-51.9811 217.754,-32.1475"/>
<polygon fill="grey" stroke="grey" stroke-width="2" points="218.868,-28.8235 208.283,-28.3702 216.275,-35.3255 218.868,-28.8235"/>
</g>
<!-- 7 -->
<g id="node8" class="node"><title>7</title>
<path fill="none" stroke="#567bd8" stroke-width="2" d="M461,-540C461,-540 387,-540 387,-540 381,-540 375,-534 375,-528 375,-528 375,-516 375,-516 375,-510 381,-504 387,-504 387,-504 461,-504 461,-504 467,-504 473,-510 473,-516 473,-516 473,-528 473,-528 473,-534 467,-540 461,-540"/>
<text text-anchor="middle" x="424" y="-519.5" font-family="sans" font-size="10.00">fragment_length</text>
</g>
<!-- 1&#45;&gt;7 -->
<g id="edge13" class="edge"><title>1&#45;&gt;7</title>
<path fill="none" stroke="grey" stroke-width="2" d="M280.789,-581.284C305.814,-571.099 342.668,-556.1 372.722,-543.869"/>
<polygon fill="grey" stroke="grey" stroke-width="2" points="374.275,-547.016 382.218,-540.004 371.636,-540.532 374.275,-547.016"/>
</g>
<!-- 12 -->
<g id="node13" class="node"><title>12</title>
<path fill="none" stroke="#59d856" stroke-width="2" d="M189,-324C189,-324 159,-324 159,-324 153,-324 147,-318 147,-312 147,-312 147,-300 147,-300 147,-294 153,-288 159,-288 159,-288 189,-288 189,-288 195,-288 201,-294 201,-300 201,-300 201,-312 201,-312 201,-318 195,-324 189,-324"/>
<text text-anchor="middle" x="174" y="-303.5" font-family="sans" font-size="10.00">index</text>
</g>
<!-- 1&#45;&gt;12 -->
<g id="edge19" class="edge"><title>1&#45;&gt;12</title>
<path fill="none" stroke="grey" stroke-width="2" d="M223.392,-578.589C208.706,-569.599 192.043,-556.575 183,-540 146.741,-473.545 158.654,-379.845 167.708,-334.167"/>
<polygon fill="grey" stroke="grey" stroke-width="2" points="171.183,-334.651 169.804,-324.146 164.331,-333.218 171.183,-334.651"/>
</g>
<!-- 13 -->
<g id="node14" class="node"><title>13</title>
<path fill="none" stroke="#78d856" stroke-width="2" d="M300,-540C300,-540 204,-540 204,-540 198,-540 192,-534 192,-528 192,-528 192,-516 192,-516 192,-510 198,-504 204,-504 204,-504 300,-504 300,-504 306,-504 312,-510 312,-516 312,-516 312,-528 312,-528 312,-534 306,-540 300,-540"/>
<text text-anchor="middle" x="252" y="-519.5" font-family="sans" font-size="10.00">removeMitochondrial</text>
</g>
<!-- 1&#45;&gt;13 -->
<g id="edge21" class="edge"><title>1&#45;&gt;13</title>
<path fill="none" stroke="grey" stroke-width="2" d="M252,-575.697C252,-567.983 252,-558.712 252,-550.112"/>
<polygon fill="grey" stroke="grey" stroke-width="2" points="255.5,-550.104 252,-540.104 248.5,-550.104 255.5,-550.104"/>
</g>
<!-- 2 -->
<g id="node3" class="node"><title>2</title>
<path fill="none" stroke="#56b9d8" stroke-width="2" d="M482,-396C482,-396 384,-396 384,-396 378,-396 372,-390 372,-384 372,-384 372,-372 372,-372 372,-366 378,-360 384,-360 384,-360 482,-360 482,-360 488,-360 494,-366 494,-372 494,-372 494,-384 494,-384 494,-390 488,-396 482,-396"/>
<text text-anchor="middle" x="433" y="-375.5" font-family="sans" font-size="10.00">fragment_length_plot</text>
</g>
<!-- 2&#45;&gt;0 -->
<g id="edge4" class="edge"><title>2&#45;&gt;0</title>
<path fill="none" stroke="grey" stroke-width="2" d="M427.739,-359.698C420.141,-333.142 407,-280.614 407,-235 407,-235 407,-235 407,-161 407,-115.846 393.133,-100.366 358,-72 317.507,-39.3062 257.245,-26.7649 218.537,-21.9639"/>
<polygon fill="grey" stroke="grey" stroke-width="2" points="218.554,-18.4438 208.226,-20.8047 217.772,-25.4 218.554,-18.4438"/>
</g>
<!-- 3 -->
<g id="node4" class="node"><title>3</title>
<path fill="none" stroke="#d89556" stroke-width="2" d="M42,-612C42,-612 12,-612 12,-612 6,-612 0,-606 0,-600 0,-600 0,-588 0,-588 0,-582 6,-576 12,-576 12,-576 42,-576 42,-576 48,-576 54,-582 54,-588 54,-588 54,-600 54,-600 54,-606 48,-612 42,-612"/>
<text text-anchor="middle" x="27" y="-591.5" font-family="sans" font-size="10.00">fastqc</text>
</g>
<!-- 3&#45;&gt;0 -->
<g id="edge2" class="edge"><title>3&#45;&gt;0</title>
<path fill="none" stroke="grey" stroke-width="2" d="M25.617,-575.964C23.577,-549.323 20,-496.169 20,-451 20,-451 20,-451 20,-161 20,-95.1001 96.807,-52.4911 144.32,-32.4374"/>
<polygon fill="grey" stroke="grey" stroke-width="2" points="145.753,-35.6331 153.689,-28.6136 143.107,-29.1522 145.753,-35.6331"/>
</g>
<!-- 4 -->
<g id="node5" class="node"><title>4</title>
<path fill="none" stroke="#569ad8" stroke-width="2" d="M115.5,-468C115.5,-468 60.5,-468 60.5,-468 54.5,-468 48.5,-462 48.5,-456 48.5,-456 48.5,-444 48.5,-444 48.5,-438 54.5,-432 60.5,-432 60.5,-432 115.5,-432 115.5,-432 121.5,-432 127.5,-438 127.5,-444 127.5,-444 127.5,-456 127.5,-456 127.5,-462 121.5,-468 115.5,-468"/>
<text text-anchor="middle" x="88" y="-447.5" font-family="sans" font-size="10.00">fastq_screen</text>
</g>
<!-- 4&#45;&gt;0 -->
<g id="edge3" class="edge"><title>4&#45;&gt;0</title>
<path fill="none" stroke="grey" stroke-width="2" d="M92.2497,-431.634C98.3859,-404.993 109,-352.356 109,-307 109,-307 109,-307 109,-161 109,-120.145 112.429,-107.863 132,-72 137.607,-61.7253 145.646,-51.8926 153.595,-43.5473"/>
<polygon fill="grey" stroke="grey" stroke-width="2" points="156.211,-45.8813 160.798,-36.3312 151.256,-40.936 156.211,-45.8813"/>
</g>
<!-- 5 -->
<g id="node6" class="node"><title>5</title>
<path fill="none" stroke="#56d8d8" stroke-width="2" d="M209,-108C209,-108 153,-108 153,-108 147,-108 141,-102 141,-96 141,-96 141,-84 141,-84 141,-78 147,-72 153,-72 153,-72 209,-72 209,-72 215,-72 221,-78 221,-84 221,-84 221,-96 221,-96 221,-102 215,-108 209,-108"/>
<text text-anchor="middle" x="181" y="-87.5" font-family="sans" font-size="10.00">downSample</text>
</g>
<!-- 5&#45;&gt;0 -->
<g id="edge5" class="edge"><title>5&#45;&gt;0</title>
<path fill="none" stroke="grey" stroke-width="2" d="M181,-71.6966C181,-63.9827 181,-54.7125 181,-46.1124"/>
<polygon fill="grey" stroke="grey" stroke-width="2" points="184.5,-46.1043 181,-36.1043 177.5,-46.1044 184.5,-46.1043"/>
</g>
<!-- 6 -->
<g id="node7" class="node"><title>6</title>
<path fill="none" stroke="#56d87b" stroke-width="2" d="M212,-684C212,-684 182,-684 182,-684 176,-684 170,-678 170,-672 170,-672 170,-660 170,-660 170,-654 176,-648 182,-648 182,-648 212,-648 212,-648 218,-648 224,-654 224,-660 224,-660 224,-672 224,-672 224,-678 218,-684 212,-684"/>
<text text-anchor="middle" x="197" y="-663.5" font-family="sans" font-size="10.00">align</text>
</g>
<!-- 6&#45;&gt;1 -->
<g id="edge6" class="edge"><title>6&#45;&gt;1</title>
<path fill="none" stroke="grey" stroke-width="2" d="M210.596,-647.697C217.123,-639.389 225.068,-629.277 232.247,-620.141"/>
<polygon fill="grey" stroke="grey" stroke-width="2" points="235.135,-622.13 238.561,-612.104 229.631,-617.805 235.135,-622.13"/>
</g>
<!-- 7&#45;&gt;2 -->
<g id="edge7" class="edge"><title>7&#45;&gt;2</title>
<path fill="none" stroke="grey" stroke-width="2" d="M425.086,-503.871C426.619,-479.67 429.437,-435.211 431.264,-406.393"/>
<polygon fill="grey" stroke="grey" stroke-width="2" points="434.771,-406.391 431.911,-396.189 427.785,-405.948 434.771,-406.391"/>
</g>
<!-- 8 -->
<g id="node9" class="node"><title>8</title>
<path fill="none" stroke="#56d8b9" stroke-width="2" d="M107,-756C107,-756 69,-756 69,-756 63,-756 57,-750 57,-744 57,-744 57,-732 57,-732 57,-726 63,-720 69,-720 69,-720 107,-720 107,-720 113,-720 119,-726 119,-732 119,-732 119,-744 119,-744 119,-750 113,-756 107,-756"/>
<text text-anchor="middle" x="88" y="-735.5" font-family="sans" font-size="10.00">trimming</text>
</g>
<!-- 8&#45;&gt;3 -->
<g id="edge8" class="edge"><title>8&#45;&gt;3</title>
<path fill="none" stroke="grey" stroke-width="2" d="M80.642,-719.871C70.1541,-695.457 50.8097,-650.426 38.4419,-621.635"/>
<polygon fill="grey" stroke="grey" stroke-width="2" points="41.547,-619.996 34.3841,-612.189 35.1153,-622.759 41.547,-619.996"/>
</g>
<!-- 8&#45;&gt;4 -->
<g id="edge9" class="edge"><title>8&#45;&gt;4</title>
<path fill="none" stroke="grey" stroke-width="2" d="M88,-719.966C88,-672.291 88,-537.185 88,-478.63"/>
<polygon fill="grey" stroke="grey" stroke-width="2" points="91.5001,-478.306 88,-468.306 84.5001,-478.306 91.5001,-478.306"/>
</g>
<!-- 8&#45;&gt;6 -->
<g id="edge12" class="edge"><title>8&#45;&gt;6</title>
<path fill="none" stroke="grey" stroke-width="2" d="M114.664,-719.876C128.784,-710.808 146.311,-699.552 161.561,-689.759"/>
<polygon fill="grey" stroke="grey" stroke-width="2" points="163.71,-692.538 170.233,-684.19 159.927,-686.648 163.71,-692.538"/>
</g>
<!-- 9 -->
<g id="node10" class="node"><title>9</title>
<path fill="none" stroke="#d6d856" stroke-width="2" d="M225,-252C225,-252 181,-252 181,-252 175,-252 169,-246 169,-240 169,-240 169,-228 169,-228 169,-222 175,-216 181,-216 181,-216 225,-216 225,-216 231,-216 237,-222 237,-228 237,-228 237,-240 237,-240 237,-246 231,-252 225,-252"/>
<text text-anchor="middle" x="203" y="-231.5" font-family="sans" font-size="10.00">shiftReads</text>
</g>
<!-- 9&#45;&gt;5 -->
<g id="edge10" class="edge"><title>9&#45;&gt;5</title>
<path fill="none" stroke="grey" stroke-width="2" d="M200.346,-215.871C196.597,-191.67 189.709,-147.211 185.244,-118.393"/>
<polygon fill="grey" stroke="grey" stroke-width="2" points="188.653,-117.535 183.663,-108.189 181.736,-118.607 188.653,-117.535"/>
</g>
<!-- 10 -->
<g id="node11" class="node"><title>10</title>
<path fill="none" stroke="#56d89a" stroke-width="2" d="M303.5,-180C303.5,-180 216.5,-180 216.5,-180 210.5,-180 204.5,-174 204.5,-168 204.5,-168 204.5,-156 204.5,-156 204.5,-150 210.5,-144 216.5,-144 216.5,-144 303.5,-144 303.5,-144 309.5,-144 315.5,-150 315.5,-156 315.5,-156 315.5,-168 315.5,-168 315.5,-174 309.5,-180 303.5,-180"/>
<text text-anchor="middle" x="260" y="-159.5" font-family="sans" font-size="10.00">createDownsample</text>
</g>
<!-- 9&#45;&gt;10 -->
<g id="edge16" class="edge"><title>9&#45;&gt;10</title>
<path fill="none" stroke="grey" stroke-width="2" d="M217.09,-215.697C223.923,-207.305 232.257,-197.07 239.756,-187.861"/>
<polygon fill="grey" stroke="grey" stroke-width="2" points="242.472,-190.069 246.072,-180.104 237.044,-185.649 242.472,-190.069"/>
</g>
<!-- 10&#45;&gt;5 -->
<g id="edge11" class="edge"><title>10&#45;&gt;5</title>
<path fill="none" stroke="grey" stroke-width="2" d="M240.472,-143.697C230.618,-134.965 218.514,-124.24 207.804,-114.75"/>
<polygon fill="grey" stroke="grey" stroke-width="2" points="210.109,-112.117 200.303,-108.104 205.467,-117.356 210.109,-112.117"/>
</g>
<!-- 11 -->
<g id="node12" class="node"><title>11</title>
<path fill="none" stroke="#d8b456" stroke-width="2" d="M265.5,-396C265.5,-396 192.5,-396 192.5,-396 186.5,-396 180.5,-390 180.5,-384 180.5,-384 180.5,-372 180.5,-372 180.5,-366 186.5,-360 192.5,-360 192.5,-360 265.5,-360 265.5,-360 271.5,-360 277.5,-366 277.5,-372 277.5,-372 277.5,-384 277.5,-384 277.5,-390 271.5,-396 265.5,-396"/>
<text text-anchor="middle" x="229" y="-375.5" font-family="sans" font-size="10.00">samtoolsQuality</text>
</g>
<!-- 11&#45;&gt;9 -->
<g id="edge15" class="edge"><title>11&#45;&gt;9</title>
<path fill="none" stroke="grey" stroke-width="2" d="M225.864,-359.871C221.433,-335.67 213.292,-291.211 208.016,-262.393"/>
<polygon fill="grey" stroke="grey" stroke-width="2" points="211.391,-261.395 206.147,-252.189 204.506,-262.656 211.391,-261.395"/>
</g>
<!-- 11&#45;&gt;12 -->
<g id="edge20" class="edge"><title>11&#45;&gt;12</title>
<path fill="none" stroke="grey" stroke-width="2" d="M215.404,-359.697C208.877,-351.389 200.932,-341.277 193.753,-332.141"/>
<polygon fill="grey" stroke="grey" stroke-width="2" points="196.369,-329.805 187.439,-324.104 190.865,-334.13 196.369,-329.805"/>
</g>
<!-- 12&#45;&gt;9 -->
<g id="edge14" class="edge"><title>12&#45;&gt;9</title>
<path fill="none" stroke="grey" stroke-width="2" d="M181.169,-287.697C184.435,-279.813 188.374,-270.304 192.002,-261.546"/>
<polygon fill="grey" stroke="grey" stroke-width="2" points="195.32,-262.683 195.914,-252.104 188.853,-260.003 195.32,-262.683"/>
</g>
<!-- 13&#45;&gt;10 -->
<g id="edge17" class="edge"><title>13&#45;&gt;10</title>
<path fill="none" stroke="grey" stroke-width="2" d="M263.189,-503.87C279.006,-477.957 306,-426.739 306,-379 306,-379 306,-379 306,-305 306,-263.043 287.6,-217.357 274.074,-189.442"/>
<polygon fill="grey" stroke="grey" stroke-width="2" points="277.13,-187.728 269.531,-180.345 270.867,-190.855 277.13,-187.728"/>
</g>
<!-- 14 -->
<g id="node15" class="node"><title>14</title>
<path fill="none" stroke="#d87556" stroke-width="2" d="M255,-468C255,-468 225,-468 225,-468 219,-468 213,-462 213,-456 213,-456 213,-444 213,-444 213,-438 219,-432 225,-432 225,-432 255,-432 255,-432 261,-432 267,-438 267,-444 267,-444 267,-456 267,-456 267,-462 261,-468 255,-468"/>
<text text-anchor="middle" x="240" y="-447.5" font-family="sans" font-size="10.00">dedup</text>
</g>
<!-- 13&#45;&gt;14 -->
<g id="edge22" class="edge"><title>13&#45;&gt;14</title>
<path fill="none" stroke="grey" stroke-width="2" d="M249.034,-503.697C247.711,-495.983 246.122,-486.712 244.648,-478.112"/>
<polygon fill="grey" stroke="grey" stroke-width="2" points="248.072,-477.369 242.932,-468.104 241.172,-478.552 248.072,-477.369"/>
</g>
<!-- 14&#45;&gt;11 -->
<g id="edge18" class="edge"><title>14&#45;&gt;11</title>
<path fill="none" stroke="grey" stroke-width="2" d="M237.281,-431.697C236.069,-423.983 234.612,-414.712 233.261,-406.112"/>
<polygon fill="grey" stroke="grey" stroke-width="2" points="236.698,-405.44 231.688,-396.104 229.783,-406.526 236.698,-405.44"/>
</g>
</g>
</svg>
