<?xml version="1.0" encoding="UTF-8" standalone="no"?>
<!DOCTYPE svg PUBLIC "-//W3C//DTD SVG 1.1//EN"
 "http://www.w3.org/Graphics/SVG/1.1/DTD/svg11.dtd">
<!-- Generated by graphviz version 2.38.0 (20140413.2041)
 -->
<!-- Title: snakemake_dag Pages: 1 -->
<svg width="390pt" height="1124pt"
 viewBox="0.00 0.00 390.00 1124.00" xmlns="http://www.w3.org/2000/svg" xmlns:xlink="http://www.w3.org/1999/xlink">
<g id="graph0" class="graph" transform="scale(1 1) rotate(0) translate(4 1120)">
<title>snakemake_dag</title>
<polygon fill="white" stroke="none" points="-4,4 -4,-1120 386,-1120 386,4 -4,4"/>
<!-- 0 -->
<g id="node1" class="node"><title>0</title>
<path fill="none" stroke="#88d856" stroke-width="2" d="M167,-36C167,-36 137,-36 137,-36 131,-36 125,-30 125,-24 125,-24 125,-12 125,-12 125,-6 131,-0 137,-0 137,-0 167,-0 167,-0 173,-0 179,-6 179,-12 179,-12 179,-24 179,-24 179,-30 173,-36 167,-36"/>
<text text-anchor="middle" x="152" y="-15.5" font-family="sans" font-size="10.00">all</text>
</g>
<!-- 1 -->
<g id="node2" class="node"><title>1</title>
<path fill="none" stroke="#9fd856" stroke-width="2" d="M43,-1116C43,-1116 13,-1116 13,-1116 7,-1116 1,-1110 1,-1104 1,-1104 1,-1092 1,-1092 1,-1086 7,-1080 13,-1080 13,-1080 43,-1080 43,-1080 49,-1080 55,-1086 55,-1092 55,-1092 55,-1104 55,-1104 55,-1110 49,-1116 43,-1116"/>
<text text-anchor="middle" x="28" y="-1095.5" font-family="sans" font-size="10.00">fastp</text>
</g>
<!-- 1&#45;&gt;0 -->
<g id="edge6" class="edge"><title>1&#45;&gt;0</title>
<path fill="none" stroke="grey" stroke-width="2" d="M22.3338,-1079.73C14.1521,-1053.21 0,-1000.73 0,-955 0,-955 0,-955 0,-161 0,-115.41 18.1708,-103.633 51,-72 69.3421,-54.3261 94.7507,-41.0324 115.494,-32.1792"/>
<polygon fill="grey" stroke="grey" stroke-width="2" points="117.023,-35.3352 124.952,-28.3073 114.371,-28.857 117.023,-35.3352"/>
</g>
<!-- 8 -->
<g id="node9" class="node"><title>8</title>
<path fill="none" stroke="#d8d356" stroke-width="2" d="M71,-1044C71,-1044 41,-1044 41,-1044 35,-1044 29,-1038 29,-1032 29,-1032 29,-1020 29,-1020 29,-1014 35,-1008 41,-1008 41,-1008 71,-1008 71,-1008 77,-1008 83,-1014 83,-1020 83,-1020 83,-1032 83,-1032 83,-1038 77,-1044 71,-1044"/>
<text text-anchor="middle" x="56" y="-1023.5" font-family="sans" font-size="10.00">bwa</text>
</g>
<!-- 1&#45;&gt;8 -->
<g id="edge16" class="edge"><title>1&#45;&gt;8</title>
<path fill="none" stroke="grey" stroke-width="2" d="M34.9214,-1079.7C38.0747,-1071.81 41.8783,-1062.3 45.3814,-1053.55"/>
<polygon fill="grey" stroke="grey" stroke-width="2" points="48.694,-1054.69 49.1583,-1044.1 42.1946,-1052.09 48.694,-1054.69"/>
</g>
<!-- 2 -->
<g id="node3" class="node"><title>2</title>
<path fill="none" stroke="#d85656" stroke-width="2" d="M118,-612C118,-612 88,-612 88,-612 82,-612 76,-606 76,-600 76,-600 76,-588 76,-588 76,-582 82,-576 88,-576 88,-576 118,-576 118,-576 124,-576 130,-582 130,-588 130,-588 130,-600 130,-600 130,-606 124,-612 118,-612"/>
<text text-anchor="middle" x="103" y="-591.5" font-family="sans" font-size="10.00">sort</text>
</g>
<!-- 2&#45;&gt;0 -->
<g id="edge2" class="edge"><title>2&#45;&gt;0</title>
<path fill="none" stroke="grey" stroke-width="2" d="M89.2152,-575.789C70.135,-550.179 38,-499.803 38,-451 38,-451 38,-451 38,-161 38,-109.997 83.2736,-66.8836 116.759,-41.971"/>
<polygon fill="grey" stroke="grey" stroke-width="2" points="118.923,-44.7258 124.984,-36.0357 114.826,-39.0495 118.923,-44.7258"/>
</g>
<!-- 9 -->
<g id="node10" class="node"><title>9</title>
<path fill="none" stroke="#c6d856" stroke-width="2" d="M108,-468C108,-468 78,-468 78,-468 72,-468 66,-462 66,-456 66,-456 66,-444 66,-444 66,-438 72,-432 78,-432 78,-432 108,-432 108,-432 114,-432 120,-438 120,-444 120,-444 120,-456 120,-456 120,-462 114,-468 108,-468"/>
<text text-anchor="middle" x="93" y="-447.5" font-family="sans" font-size="10.00">bigwig</text>
</g>
<!-- 2&#45;&gt;9 -->
<g id="edge18" class="edge"><title>2&#45;&gt;9</title>
<path fill="none" stroke="grey" stroke-width="2" d="M99.8501,-575.88C98.0875,-565.531 96.0408,-552.052 95,-540 93.2162,-519.343 92.7527,-495.894 92.7156,-478.254"/>
<polygon fill="grey" stroke="grey" stroke-width="2" points="96.2159,-478.105 92.7397,-468.097 89.2159,-478.089 96.2159,-478.105"/>
</g>
<!-- 10 -->
<g id="node11" class="node"><title>10</title>
<path fill="none" stroke="#5692d8" stroke-width="2" d="M146,-540C146,-540 116,-540 116,-540 110,-540 104,-534 104,-528 104,-528 104,-516 104,-516 104,-510 110,-504 116,-504 116,-504 146,-504 146,-504 152,-504 158,-510 158,-516 158,-516 158,-528 158,-528 158,-534 152,-540 146,-540"/>
<text text-anchor="middle" x="131" y="-519.5" font-family="sans" font-size="10.00">index</text>
</g>
<!-- 2&#45;&gt;10 -->
<g id="edge19" class="edge"><title>2&#45;&gt;10</title>
<path fill="none" stroke="grey" stroke-width="2" d="M109.921,-575.697C113.075,-567.813 116.878,-558.304 120.381,-549.546"/>
<polygon fill="grey" stroke="grey" stroke-width="2" points="123.694,-550.689 124.158,-540.104 117.195,-548.089 123.694,-550.689"/>
</g>
<!-- 11 -->
<g id="node12" class="node"><title>11</title>
<path fill="none" stroke="#56d0d8" stroke-width="2" d="M185,-468C185,-468 155,-468 155,-468 149,-468 143,-462 143,-456 143,-456 143,-444 143,-444 143,-438 149,-432 155,-432 155,-432 185,-432 185,-432 191,-432 197,-438 197,-444 197,-444 197,-456 197,-456 197,-462 191,-468 185,-468"/>
<text text-anchor="middle" x="170" y="-447.5" font-family="sans" font-size="10.00">macs2</text>
</g>
<!-- 2&#45;&gt;11 -->
<g id="edge21" class="edge"><title>2&#45;&gt;11</title>
<path fill="none" stroke="grey" stroke-width="2" d="M130.211,-578.066C143.854,-568.994 159.116,-556.058 167,-540 176.398,-520.859 176.54,-496.508 174.672,-478.117"/>
<polygon fill="grey" stroke="grey" stroke-width="2" points="178.127,-477.541 173.394,-468.062 171.183,-478.424 178.127,-477.541"/>
</g>
<!-- 14 -->
<g id="node15" class="node"><title>14</title>
<path fill="none" stroke="#d87d56" stroke-width="2" d="M244,-324C244,-324 214,-324 214,-324 208,-324 202,-318 202,-312 202,-312 202,-300 202,-300 202,-294 208,-288 214,-288 214,-288 244,-288 244,-288 250,-288 256,-294 256,-300 256,-300 256,-312 256,-312 256,-318 250,-324 244,-324"/>
<text text-anchor="middle" x="229" y="-303.5" font-family="sans" font-size="10.00">counts</text>
</g>
<!-- 2&#45;&gt;14 -->
<g id="edge24" class="edge"><title>2&#45;&gt;14</title>
<path fill="none" stroke="grey" stroke-width="2" d="M130.309,-581.881C148.615,-573.091 171.87,-559.108 186,-540 232.06,-477.712 233.622,-380.97 231.23,-334.178"/>
<polygon fill="grey" stroke="grey" stroke-width="2" points="234.723,-333.959 230.618,-324.192 227.736,-334.387 234.723,-333.959"/>
</g>
<!-- 3 -->
<g id="node4" class="node"><title>3</title>
<path fill="none" stroke="#56a9d8" stroke-width="2" d="M89,-684C89,-684 59,-684 59,-684 53,-684 47,-678 47,-672 47,-672 47,-660 47,-660 47,-654 53,-648 59,-648 59,-648 89,-648 89,-648 95,-648 101,-654 101,-660 101,-660 101,-672 101,-672 101,-678 95,-684 89,-684"/>
<text text-anchor="middle" x="74" y="-663.5" font-family="sans" font-size="10.00">shift</text>
</g>
<!-- 3&#45;&gt;2 -->
<g id="edge10" class="edge"><title>3&#45;&gt;2</title>
<path fill="none" stroke="grey" stroke-width="2" d="M81.1685,-647.697C84.4345,-639.813 88.374,-630.304 92.0022,-621.546"/>
<polygon fill="grey" stroke="grey" stroke-width="2" points="95.32,-622.683 95.9139,-612.104 88.853,-620.003 95.32,-622.683"/>
</g>
<!-- 4 -->
<g id="node5" class="node"><title>4</title>
<path fill="none" stroke="#56d8c9" stroke-width="2" d="M85,-756C85,-756 55,-756 55,-756 49,-756 43,-750 43,-744 43,-744 43,-732 43,-732 43,-726 49,-720 55,-720 55,-720 85,-720 85,-720 91,-720 97,-726 97,-732 97,-732 97,-744 97,-744 97,-750 91,-756 85,-756"/>
<text text-anchor="middle" x="70" y="-735.5" font-family="sans" font-size="10.00">banlist</text>
</g>
<!-- 4&#45;&gt;3 -->
<g id="edge11" class="edge"><title>4&#45;&gt;3</title>
<path fill="none" stroke="grey" stroke-width="2" d="M70.9888,-719.697C71.4296,-711.983 71.9593,-702.712 72.4507,-694.112"/>
<polygon fill="grey" stroke="grey" stroke-width="2" points="75.9463,-694.288 73.0226,-684.104 68.9577,-693.888 75.9463,-694.288"/>
</g>
<!-- 5 -->
<g id="node6" class="node"><title>5</title>
<path fill="none" stroke="#b6d856" stroke-width="2" d="M76,-828C76,-828 46,-828 46,-828 40,-828 34,-822 34,-816 34,-816 34,-804 34,-804 34,-798 40,-792 46,-792 46,-792 76,-792 76,-792 82,-792 88,-798 88,-804 88,-804 88,-816 88,-816 88,-822 82,-828 76,-828"/>
<text text-anchor="middle" x="61" y="-807.5" font-family="sans" font-size="10.00">quality</text>
</g>
<!-- 5&#45;&gt;4 -->
<g id="edge12" class="edge"><title>5&#45;&gt;4</title>
<path fill="none" stroke="grey" stroke-width="2" d="M63.2247,-791.697C64.2165,-783.983 65.4084,-774.712 66.5141,-766.112"/>
<polygon fill="grey" stroke="grey" stroke-width="2" points="69.997,-766.469 67.8009,-756.104 63.0541,-765.576 69.997,-766.469"/>
</g>
<!-- 6 -->
<g id="node7" class="node"><title>6</title>
<path fill="none" stroke="#d8ac56" stroke-width="2" d="M78,-900C78,-900 42,-900 42,-900 36,-900 30,-894 30,-888 30,-888 30,-876 30,-876 30,-870 36,-864 42,-864 42,-864 78,-864 78,-864 84,-864 90,-870 90,-876 90,-876 90,-888 90,-888 90,-894 84,-900 78,-900"/>
<text text-anchor="middle" x="60" y="-879.5" font-family="sans" font-size="10.00">markdup</text>
</g>
<!-- 6&#45;&gt;5 -->
<g id="edge13" class="edge"><title>6&#45;&gt;5</title>
<path fill="none" stroke="grey" stroke-width="2" d="M60.2472,-863.697C60.3574,-855.983 60.4898,-846.712 60.6127,-838.112"/>
<polygon fill="grey" stroke="grey" stroke-width="2" points="64.1124,-838.153 60.7557,-828.104 57.1131,-838.053 64.1124,-838.153"/>
</g>
<!-- 7 -->
<g id="node8" class="node"><title>7</title>
<path fill="none" stroke="#61d856" stroke-width="2" d="M73,-972C73,-972 43,-972 43,-972 37,-972 31,-966 31,-960 31,-960 31,-948 31,-948 31,-942 37,-936 43,-936 43,-936 73,-936 73,-936 79,-936 85,-942 85,-948 85,-948 85,-960 85,-960 85,-966 79,-972 73,-972"/>
<text text-anchor="middle" x="58" y="-951.5" font-family="sans" font-size="10.00">mito</text>
</g>
<!-- 7&#45;&gt;6 -->
<g id="edge14" class="edge"><title>7&#45;&gt;6</title>
<path fill="none" stroke="grey" stroke-width="2" d="M58.4944,-935.697C58.7148,-927.983 58.9796,-918.712 59.2254,-910.112"/>
<polygon fill="grey" stroke="grey" stroke-width="2" points="62.7242,-910.2 59.5113,-900.104 55.727,-910 62.7242,-910.2"/>
</g>
<!-- 8&#45;&gt;7 -->
<g id="edge15" class="edge"><title>8&#45;&gt;7</title>
<path fill="none" stroke="grey" stroke-width="2" d="M56.4944,-1007.7C56.7148,-999.983 56.9796,-990.712 57.2254,-982.112"/>
<polygon fill="grey" stroke="grey" stroke-width="2" points="60.7242,-982.2 57.5113,-972.104 53.727,-982 60.7242,-982.2"/>
</g>
<!-- 9&#45;&gt;0 -->
<g id="edge1" class="edge"><title>9&#45;&gt;0</title>
<path fill="none" stroke="grey" stroke-width="2" d="M89.5598,-431.592C84.5923,-404.896 76,-352.188 76,-307 76,-307 76,-307 76,-161 76,-115.641 106.517,-70.7492 128.875,-43.9457"/>
<polygon fill="grey" stroke="grey" stroke-width="2" points="131.645,-46.0926 135.509,-36.2276 126.336,-41.5297 131.645,-46.0926"/>
</g>
<!-- 10&#45;&gt;9 -->
<g id="edge17" class="edge"><title>10&#45;&gt;9</title>
<path fill="none" stroke="grey" stroke-width="2" d="M121.607,-503.697C117.235,-495.644 111.943,-485.894 107.105,-476.982"/>
<polygon fill="grey" stroke="grey" stroke-width="2" points="110.132,-475.223 102.285,-468.104 103.98,-478.563 110.132,-475.223"/>
</g>
<!-- 10&#45;&gt;11 -->
<g id="edge20" class="edge"><title>10&#45;&gt;11</title>
<path fill="none" stroke="grey" stroke-width="2" d="M140.64,-503.697C145.127,-495.644 150.559,-485.894 155.524,-476.982"/>
<polygon fill="grey" stroke="grey" stroke-width="2" points="158.661,-478.544 160.47,-468.104 152.546,-475.137 158.661,-478.544"/>
</g>
<!-- 11&#45;&gt;0 -->
<g id="edge4" class="edge"><title>11&#45;&gt;0</title>
<path fill="none" stroke="grey" stroke-width="2" d="M155.426,-431.911C147.686,-422.01 138.635,-408.968 133,-396 116.881,-358.904 114,-347.447 114,-307 114,-307 114,-307 114,-161 114,-119.633 129.235,-73.7216 140.412,-45.6051"/>
<polygon fill="grey" stroke="grey" stroke-width="2" points="143.756,-46.6733 144.31,-36.0929 137.279,-44.0187 143.756,-46.6733"/>
</g>
<!-- 12 -->
<g id="node13" class="node"><title>12</title>
<path fill="none" stroke="#56d863" stroke-width="2" d="M198,-396C198,-396 154,-396 154,-396 148,-396 142,-390 142,-384 142,-384 142,-372 142,-372 142,-366 148,-360 154,-360 154,-360 198,-360 198,-360 204,-360 210,-366 210,-372 210,-372 210,-384 210,-384 210,-390 204,-396 198,-396"/>
<text text-anchor="middle" x="176" y="-375.5" font-family="sans" font-size="10.00">consensus</text>
</g>
<!-- 11&#45;&gt;12 -->
<g id="edge22" class="edge"><title>11&#45;&gt;12</title>
<path fill="none" stroke="grey" stroke-width="2" d="M171.483,-431.697C172.144,-423.983 172.939,-414.712 173.676,-406.112"/>
<polygon fill="grey" stroke="grey" stroke-width="2" points="177.167,-406.367 174.534,-396.104 170.193,-405.769 177.167,-406.367"/>
</g>
<!-- 12&#45;&gt;0 -->
<g id="edge3" class="edge"><title>12&#45;&gt;0</title>
<path fill="none" stroke="grey" stroke-width="2" d="M171.143,-359.671C164.13,-333.079 152,-280.504 152,-235 152,-235 152,-235 152,-161 152,-120.996 152,-74.6528 152,-46.0798"/>
<polygon fill="grey" stroke="grey" stroke-width="2" points="155.5,-46.0492 152,-36.0493 148.5,-46.0493 155.5,-46.0492"/>
</g>
<!-- 12&#45;&gt;14 -->
<g id="edge25" class="edge"><title>12&#45;&gt;14</title>
<path fill="none" stroke="grey" stroke-width="2" d="M189.101,-359.697C195.391,-351.389 203.047,-341.277 209.965,-332.141"/>
<polygon fill="grey" stroke="grey" stroke-width="2" points="212.804,-334.19 216.05,-324.104 207.223,-329.964 212.804,-334.19"/>
</g>
<!-- 13 -->
<g id="node14" class="node"><title>13</title>
<path fill="none" stroke="#d8bc56" stroke-width="2" d="M256.5,-252C256.5,-252 201.5,-252 201.5,-252 195.5,-252 189.5,-246 189.5,-240 189.5,-240 189.5,-228 189.5,-228 189.5,-222 195.5,-216 201.5,-216 201.5,-216 256.5,-216 256.5,-216 262.5,-216 268.5,-222 268.5,-228 268.5,-228 268.5,-240 268.5,-240 268.5,-246 262.5,-252 256.5,-252"/>
<text text-anchor="middle" x="229" y="-231.5" font-family="sans" font-size="10.00">counts_table</text>
</g>
<!-- 13&#45;&gt;0 -->
<g id="edge8" class="edge"><title>13&#45;&gt;0</title>
<path fill="none" stroke="grey" stroke-width="2" d="M222.829,-215.849C209.453,-178.675 177.705,-90.4388 161.65,-45.8204"/>
<polygon fill="grey" stroke="grey" stroke-width="2" points="164.879,-44.4569 158.2,-36.2325 158.293,-46.8269 164.879,-44.4569"/>
</g>
<!-- 15 -->
<g id="node16" class="node"><title>15</title>
<path fill="none" stroke="#56d8b1" stroke-width="2" d="M279,-180C279,-180 249,-180 249,-180 243,-180 237,-174 237,-168 237,-168 237,-156 237,-156 237,-150 243,-144 249,-144 249,-144 279,-144 279,-144 285,-144 291,-150 291,-156 291,-156 291,-168 291,-168 291,-174 285,-180 279,-180"/>
<text text-anchor="middle" x="264" y="-159.5" font-family="sans" font-size="10.00">deseq2</text>
</g>
<!-- 13&#45;&gt;15 -->
<g id="edge26" class="edge"><title>13&#45;&gt;15</title>
<path fill="none" stroke="grey" stroke-width="2" d="M237.652,-215.697C241.636,-207.728 246.45,-198.1 250.868,-189.264"/>
<polygon fill="grey" stroke="grey" stroke-width="2" points="254.106,-190.614 255.448,-180.104 247.845,-187.483 254.106,-190.614"/>
</g>
<!-- 14&#45;&gt;13 -->
<g id="edge23" class="edge"><title>14&#45;&gt;13</title>
<path fill="none" stroke="grey" stroke-width="2" d="M229,-287.697C229,-279.983 229,-270.712 229,-262.112"/>
<polygon fill="grey" stroke="grey" stroke-width="2" points="232.5,-262.104 229,-252.104 225.5,-262.104 232.5,-262.104"/>
</g>
<!-- 15&#45;&gt;0 -->
<g id="edge7" class="edge"><title>15&#45;&gt;0</title>
<path fill="none" stroke="grey" stroke-width="2" d="M253.81,-143.952C242.513,-125.543 223.324,-95.6762 204,-72 196.057,-62.2678 186.626,-52.2647 177.99,-43.6074"/>
<polygon fill="grey" stroke="grey" stroke-width="2" points="180.243,-40.9135 170.664,-36.3865 175.329,-45.899 180.243,-40.9135"/>
</g>
<!-- 16 -->
<g id="node17" class="node"><title>16</title>
<path fill="none" stroke="#d86e56" stroke-width="2" d="M298,-108C298,-108 268,-108 268,-108 262,-108 256,-102 256,-96 256,-96 256,-84 256,-84 256,-78 262,-72 268,-72 268,-72 298,-72 298,-72 304,-72 310,-78 310,-84 310,-84 310,-96 310,-96 310,-102 304,-108 298,-108"/>
<text text-anchor="middle" x="283" y="-87.5" font-family="sans" font-size="10.00">multiqc</text>
</g>
<!-- 15&#45;&gt;16 -->
<g id="edge27" class="edge"><title>15&#45;&gt;16</title>
<path fill="none" stroke="grey" stroke-width="2" d="M268.697,-143.697C270.813,-135.898 273.362,-126.509 275.718,-117.829"/>
<polygon fill="grey" stroke="grey" stroke-width="2" points="279.116,-118.672 278.357,-108.104 272.36,-116.838 279.116,-118.672"/>
</g>
<!-- 17 -->
<g id="node18" class="node"><title>17</title>
<path fill="none" stroke="#566bd8" stroke-width="2" d="M370,-108C370,-108 340,-108 340,-108 334,-108 328,-102 328,-96 328,-96 328,-84 328,-84 328,-78 334,-72 340,-72 340,-72 370,-72 370,-72 376,-72 382,-78 382,-84 382,-84 382,-96 382,-96 382,-102 376,-108 370,-108"/>
<text text-anchor="middle" x="355" y="-87.5" font-family="sans" font-size="10.00">HOMER</text>
</g>
<!-- 15&#45;&gt;17 -->
<g id="edge28" class="edge"><title>15&#45;&gt;17</title>
<path fill="none" stroke="grey" stroke-width="2" d="M286.494,-143.697C297.955,-134.881 312.058,-124.032 324.484,-114.474"/>
<polygon fill="grey" stroke="grey" stroke-width="2" points="326.972,-116.976 332.764,-108.104 322.704,-111.427 326.972,-116.976"/>
</g>
<!-- 16&#45;&gt;0 -->
<g id="edge5" class="edge"><title>16&#45;&gt;0</title>
<path fill="none" stroke="grey" stroke-width="2" d="M255.857,-74.496C236.184,-63.9839 209.384,-49.6634 187.936,-38.2027"/>
<polygon fill="grey" stroke="grey" stroke-width="2" points="189.578,-35.1115 179.109,-33.4855 186.279,-41.2853 189.578,-35.1115"/>
</g>
<!-- 17&#45;&gt;0 -->
<g id="edge9" class="edge"><title>17&#45;&gt;0</title>
<path fill="none" stroke="grey" stroke-width="2" d="M327.649,-75.6213C324.752,-74.3436 321.831,-73.1118 319,-72 275.252,-54.8179 223.476,-39.0691 189.3,-29.2829"/>
<polygon fill="grey" stroke="grey" stroke-width="2" points="189.863,-25.8045 179.287,-26.4422 187.952,-32.5387 189.863,-25.8045"/>
</g>
</g>
</svg>
