<?xml version="1.0" encoding="UTF-8" standalone="no"?>
<!DOCTYPE svg PUBLIC "-//W3C//DTD SVG 1.1//EN"
 "http://www.w3.org/Graphics/SVG/1.1/DTD/svg11.dtd">
<!-- Generated by graphviz version 2.38.0 (20140413.2041)
 -->
<!-- Title: snakemake_dag Pages: 1 -->
<svg width="737pt" height="836pt"
 viewBox="0.00 0.00 737.00 836.00" xmlns="http://www.w3.org/2000/svg" xmlns:xlink="http://www.w3.org/1999/xlink">
<g id="graph0" class="graph" transform="scale(1 1) rotate(0) translate(4 832)">
<title>snakemake_dag</title>
<polygon fill="white" stroke="none" points="-4,4 -4,-832 733,-832 733,4 -4,4"/>
<!-- 0 -->
<g id="node1" class="node"><title>0</title>
<path fill="none" stroke="#d88556" stroke-width="2" d="M345,-36C345,-36 315,-36 315,-36 309,-36 303,-30 303,-24 303,-24 303,-12 303,-12 303,-6 309,-0 315,-0 315,-0 345,-0 345,-0 351,-0 357,-6 357,-12 357,-12 357,-24 357,-24 357,-30 351,-36 345,-36"/>
<text text-anchor="middle" x="330" y="-15.5" font-family="sans" font-size="10.00">all</text>
</g>
<!-- 1 -->
<g id="node2" class="node"><title>1</title>
<path fill="none" stroke="#56d87b" stroke-width="2" d="M155,-828C155,-828 125,-828 125,-828 119,-828 113,-822 113,-816 113,-816 113,-804 113,-804 113,-798 119,-792 125,-792 125,-792 155,-792 155,-792 161,-792 167,-798 167,-804 167,-804 167,-816 167,-816 167,-822 161,-828 155,-828"/>
<text text-anchor="middle" x="140" y="-807.5" font-family="sans" font-size="10.00">fastp</text>
</g>
<!-- 1&#45;&gt;0 -->
<g id="edge9" class="edge"><title>1&#45;&gt;0</title>
<path fill="none" stroke="grey" stroke-width="2" d="M112.674,-796.569C71.9317,-775.941 0,-730.527 0,-667 0,-667 0,-667 0,-161 0,-34.6672 206.588,-19.3523 292.852,-18.4642"/>
<polygon fill="grey" stroke="grey" stroke-width="2" points="293.01,-21.9636 302.995,-18.4213 292.98,-14.9637 293.01,-21.9636"/>
</g>
<!-- 2 -->
<g id="node3" class="node"><title>2</title>
<path fill="none" stroke="#56d8a2" stroke-width="2" d="M70,-468C70,-468 40,-468 40,-468 34,-468 28,-462 28,-456 28,-456 28,-444 28,-444 28,-438 34,-432 40,-432 40,-432 70,-432 70,-432 76,-432 82,-438 82,-444 82,-444 82,-456 82,-456 82,-462 76,-468 70,-468"/>
<text text-anchor="middle" x="55" y="-447.5" font-family="sans" font-size="10.00">fastqc</text>
</g>
<!-- 1&#45;&gt;2 -->
<g id="edge17" class="edge"><title>1&#45;&gt;2</title>
<path fill="none" stroke="grey" stroke-width="2" d="M126.851,-791.688C108.652,-765.952 78,-715.42 78,-667 78,-667 78,-667 78,-593 78,-552.696 68.8597,-506.776 62.1031,-478.337"/>
<polygon fill="grey" stroke="grey" stroke-width="2" points="65.4335,-477.222 59.6544,-468.342 58.6346,-478.888 65.4335,-477.222"/>
</g>
<!-- 3 -->
<g id="node4" class="node"><title>3</title>
<path fill="none" stroke="#566bd8" stroke-width="2" d="M167.5,-468C167.5,-468 112.5,-468 112.5,-468 106.5,-468 100.5,-462 100.5,-456 100.5,-456 100.5,-444 100.5,-444 100.5,-438 106.5,-432 112.5,-432 112.5,-432 167.5,-432 167.5,-432 173.5,-432 179.5,-438 179.5,-444 179.5,-444 179.5,-456 179.5,-456 179.5,-462 173.5,-468 167.5,-468"/>
<text text-anchor="middle" x="140" y="-447.5" font-family="sans" font-size="10.00">fastq_screen</text>
</g>
<!-- 1&#45;&gt;3 -->
<g id="edge18" class="edge"><title>1&#45;&gt;3</title>
<path fill="none" stroke="grey" stroke-width="2" d="M140,-791.951C140,-765.292 140,-712.115 140,-667 140,-667 140,-667 140,-593 140,-552.996 140,-506.653 140,-478.08"/>
<polygon fill="grey" stroke="grey" stroke-width="2" points="143.5,-478.049 140,-468.049 136.5,-478.049 143.5,-478.049"/>
</g>
<!-- 8 -->
<g id="node9" class="node"><title>8</title>
<path fill="none" stroke="#56b1d8" stroke-width="2" d="M278,-756C278,-756 248,-756 248,-756 242,-756 236,-750 236,-744 236,-744 236,-732 236,-732 236,-726 242,-720 248,-720 248,-720 278,-720 278,-720 284,-720 290,-726 290,-732 290,-732 290,-744 290,-744 290,-750 284,-756 278,-756"/>
<text text-anchor="middle" x="263" y="-735.5" font-family="sans" font-size="10.00">bwa</text>
</g>
<!-- 1&#45;&gt;8 -->
<g id="edge23" class="edge"><title>1&#45;&gt;8</title>
<path fill="none" stroke="grey" stroke-width="2" d="M167.298,-793.465C184.894,-783.451 207.968,-770.319 227.05,-759.459"/>
<polygon fill="grey" stroke="grey" stroke-width="2" points="228.819,-762.48 235.779,-754.492 225.356,-756.396 228.819,-762.48"/>
</g>
<!-- 10 -->
<g id="node11" class="node"><title>10</title>
<path fill="none" stroke="#8fd856" stroke-width="2" d="M156,-396C156,-396 126,-396 126,-396 120,-396 114,-390 114,-384 114,-384 114,-372 114,-372 114,-366 120,-360 126,-360 126,-360 156,-360 156,-360 162,-360 168,-366 168,-372 168,-372 168,-384 168,-384 168,-390 162,-396 156,-396"/>
<text text-anchor="middle" x="141" y="-375.5" font-family="sans" font-size="10.00">multiqc</text>
</g>
<!-- 1&#45;&gt;10 -->
<g id="edge26" class="edge"><title>1&#45;&gt;10</title>
<path fill="none" stroke="grey" stroke-width="2" d="M154.421,-791.894C174.382,-766.416 208,-716.201 208,-667 208,-667 208,-667 208,-521 208,-480.458 206.479,-468.086 188,-432 182.764,-421.775 175.092,-411.956 167.459,-403.608"/>
<polygon fill="grey" stroke="grey" stroke-width="2" points="169.978,-401.179 160.53,-396.385 164.927,-406.024 169.978,-401.179"/>
</g>
<!-- 2&#45;&gt;0 -->
<g id="edge13" class="edge"><title>2&#45;&gt;0</title>
<path fill="none" stroke="grey" stroke-width="2" d="M53.617,-431.964C51.577,-405.323 48,-352.169 48,-307 48,-307 48,-307 48,-161 48,-117.261 55.8148,-99.2847 90,-72 120.989,-47.266 233.465,-30.5123 292.786,-23.187"/>
<polygon fill="grey" stroke="grey" stroke-width="2" points="293.359,-26.6434 302.867,-21.9699 292.52,-19.6939 293.359,-26.6434"/>
</g>
<!-- 2&#45;&gt;10 -->
<g id="edge28" class="edge"><title>2&#45;&gt;10</title>
<path fill="none" stroke="grey" stroke-width="2" d="M76.2584,-431.697C87.0894,-422.881 100.418,-412.032 112.16,-402.474"/>
<polygon fill="grey" stroke="grey" stroke-width="2" points="114.44,-405.132 119.986,-396.104 110.021,-399.703 114.44,-405.132"/>
</g>
<!-- 3&#45;&gt;0 -->
<g id="edge15" class="edge"><title>3&#45;&gt;0</title>
<path fill="none" stroke="grey" stroke-width="2" d="M126.246,-431.791C118.934,-421.853 110.372,-408.813 105,-396 89.3618,-358.699 86,-347.447 86,-307 86,-307 86,-307 86,-161 86,-118.162 90.6179,-100.044 123,-72 170.999,-30.431 247.352,-20.7559 292.685,-18.9085"/>
<polygon fill="grey" stroke="grey" stroke-width="2" points="292.795,-22.4069 302.685,-18.6079 292.585,-15.41 292.795,-22.4069"/>
</g>
<!-- 3&#45;&gt;10 -->
<g id="edge29" class="edge"><title>3&#45;&gt;10</title>
<path fill="none" stroke="grey" stroke-width="2" d="M140.247,-431.697C140.357,-423.983 140.49,-414.712 140.613,-406.112"/>
<polygon fill="grey" stroke="grey" stroke-width="2" points="144.112,-406.153 140.756,-396.104 137.113,-406.053 144.112,-406.153"/>
</g>
<!-- 4 -->
<g id="node5" class="node"><title>4</title>
<path fill="none" stroke="#d86e56" stroke-width="2" d="M717,-180C717,-180 687,-180 687,-180 681,-180 675,-174 675,-168 675,-168 675,-156 675,-156 675,-150 681,-144 687,-144 687,-144 717,-144 717,-144 723,-144 729,-150 729,-156 729,-156 729,-168 729,-168 729,-174 723,-180 717,-180"/>
<text text-anchor="middle" x="702" y="-159.5" font-family="sans" font-size="10.00">preseq</text>
</g>
<!-- 4&#45;&gt;0 -->
<g id="edge4" class="edge"><title>4&#45;&gt;0</title>
<path fill="none" stroke="grey" stroke-width="2" d="M699.107,-143.895C694.685,-123.385 684.177,-89.5807 661,-72 615.332,-37.3593 443.963,-24.6481 367.38,-20.6284"/>
<polygon fill="grey" stroke="grey" stroke-width="2" points="367.389,-17.1245 357.226,-20.1175 367.037,-24.1157 367.389,-17.1245"/>
</g>
<!-- 5 -->
<g id="node6" class="node"><title>5</title>
<path fill="none" stroke="#d8b456" stroke-width="2" d="M454,-540C454,-540 424,-540 424,-540 418,-540 412,-534 412,-528 412,-528 412,-516 412,-516 412,-510 418,-504 424,-504 424,-504 454,-504 454,-504 460,-504 466,-510 466,-516 466,-516 466,-528 466,-528 466,-534 460,-540 454,-540"/>
<text text-anchor="middle" x="439" y="-519.5" font-family="sans" font-size="10.00">banlist</text>
</g>
<!-- 5&#45;&gt;0 -->
<g id="edge8" class="edge"><title>5&#45;&gt;0</title>
<path fill="none" stroke="grey" stroke-width="2" d="M466.145,-518.44C501.037,-513.86 561.784,-501.366 601,-468 634.913,-439.146 647,-423.527 647,-379 647,-379 647,-379 647,-161 647,-39.5556 450.826,-21.3078 367.125,-19.0492"/>
<polygon fill="grey" stroke="grey" stroke-width="2" points="367.098,-15.5479 357.027,-18.8403 366.953,-22.5464 367.098,-15.5479"/>
</g>
<!-- 5&#45;&gt;4 -->
<g id="edge19" class="edge"><title>5&#45;&gt;4</title>
<path fill="none" stroke="grey" stroke-width="2" d="M466.287,-517.718C518.994,-510.872 632.157,-493.555 661,-468 692.576,-440.023 694,-421.187 694,-379 694,-379 694,-379 694,-305 694,-264.933 697.214,-218.606 699.568,-190.054"/>
<polygon fill="grey" stroke="grey" stroke-width="2" points="703.06,-190.292 700.419,-180.032 696.085,-189.7 703.06,-190.292"/>
</g>
<!-- 9 -->
<g id="node10" class="node"><title>9</title>
<path fill="none" stroke="#78d856" stroke-width="2" d="M474.5,-468C474.5,-468 403.5,-468 403.5,-468 397.5,-468 391.5,-462 391.5,-456 391.5,-456 391.5,-444 391.5,-444 391.5,-438 397.5,-432 403.5,-432 403.5,-432 474.5,-432 474.5,-432 480.5,-432 486.5,-438 486.5,-444 486.5,-444 486.5,-456 486.5,-456 486.5,-462 480.5,-468 474.5,-468"/>
<text text-anchor="middle" x="439" y="-447.5" font-family="sans" font-size="10.00">preseq_lcextrap</text>
</g>
<!-- 5&#45;&gt;9 -->
<g id="edge24" class="edge"><title>5&#45;&gt;9</title>
<path fill="none" stroke="grey" stroke-width="2" d="M439,-503.697C439,-495.983 439,-486.712 439,-478.112"/>
<polygon fill="grey" stroke="grey" stroke-width="2" points="442.5,-478.104 439,-468.104 435.5,-478.104 442.5,-478.104"/>
</g>
<!-- 11 -->
<g id="node12" class="node"><title>11</title>
<path fill="none" stroke="#a7d856" stroke-width="2" d="M278,-468C278,-468 248,-468 248,-468 242,-468 236,-462 236,-456 236,-456 236,-444 236,-444 236,-438 242,-432 248,-432 248,-432 278,-432 278,-432 284,-432 290,-438 290,-444 290,-444 290,-456 290,-456 290,-462 284,-468 278,-468"/>
<text text-anchor="middle" x="263" y="-447.5" font-family="sans" font-size="10.00">macs2</text>
</g>
<!-- 5&#45;&gt;11 -->
<g id="edge30" class="edge"><title>5&#45;&gt;11</title>
<path fill="none" stroke="grey" stroke-width="2" d="M411.886,-510.216C381.784,-498.243 333.038,-478.856 299.575,-465.547"/>
<polygon fill="grey" stroke="grey" stroke-width="2" points="300.731,-462.24 290.145,-461.796 298.144,-468.744 300.731,-462.24"/>
</g>
<!-- 13 -->
<g id="node14" class="node"><title>13</title>
<path fill="none" stroke="#d85656" stroke-width="2" d="M559.5,-468C559.5,-468 516.5,-468 516.5,-468 510.5,-468 504.5,-462 504.5,-456 504.5,-456 504.5,-444 504.5,-444 504.5,-438 510.5,-432 516.5,-432 516.5,-432 559.5,-432 559.5,-432 565.5,-432 571.5,-438 571.5,-444 571.5,-444 571.5,-456 571.5,-456 571.5,-462 565.5,-468 559.5,-468"/>
<text text-anchor="middle" x="538" y="-447.5" font-family="sans" font-size="10.00">fraglength</text>
</g>
<!-- 5&#45;&gt;13 -->
<g id="edge32" class="edge"><title>5&#45;&gt;13</title>
<path fill="none" stroke="grey" stroke-width="2" d="M463.218,-503.876C475.923,-494.893 491.664,-483.763 505.423,-474.034"/>
<polygon fill="grey" stroke="grey" stroke-width="2" points="507.544,-476.821 513.689,-468.19 503.503,-471.105 507.544,-476.821"/>
</g>
<!-- 15 -->
<g id="node16" class="node"><title>15</title>
<path fill="none" stroke="#d8c356" stroke-width="2" d="M348,-324C348,-324 302,-324 302,-324 296,-324 290,-318 290,-312 290,-312 290,-300 290,-300 290,-294 296,-288 302,-288 302,-288 348,-288 348,-288 354,-288 360,-294 360,-300 360,-300 360,-312 360,-312 360,-318 354,-324 348,-324"/>
<text text-anchor="middle" x="325" y="-303.5" font-family="sans" font-size="10.00">FRiP_count</text>
</g>
<!-- 5&#45;&gt;15 -->
<g id="edge35" class="edge"><title>5&#45;&gt;15</title>
<path fill="none" stroke="grey" stroke-width="2" d="M411.934,-506.079C397.537,-496.856 380.655,-483.771 370,-468 342.144,-426.77 331.416,-368.554 327.368,-334.596"/>
<polygon fill="grey" stroke="grey" stroke-width="2" points="330.829,-334.041 326.275,-324.475 323.869,-334.793 330.829,-334.041"/>
</g>
<!-- 17 -->
<g id="node18" class="node"><title>17</title>
<path fill="none" stroke="#bed856" stroke-width="2" d="M607,-396C607,-396 577,-396 577,-396 571,-396 565,-390 565,-384 565,-384 565,-372 565,-372 565,-366 571,-360 577,-360 577,-360 607,-360 607,-360 613,-360 619,-366 619,-372 619,-372 619,-384 619,-384 619,-390 613,-396 607,-396"/>
<text text-anchor="middle" x="592" y="-375.5" font-family="sans" font-size="10.00">bigwig</text>
</g>
<!-- 5&#45;&gt;17 -->
<g id="edge37" class="edge"><title>5&#45;&gt;17</title>
<path fill="none" stroke="grey" stroke-width="2" d="M466.096,-518.92C498.586,-514.875 552.138,-502.978 580,-468 593.706,-450.793 595.949,-425.519 595.201,-406.296"/>
<polygon fill="grey" stroke="grey" stroke-width="2" points="598.676,-405.797 594.506,-396.057 591.692,-406.271 598.676,-405.797"/>
</g>
<!-- 19 -->
<g id="node20" class="node"><title>19</title>
<path fill="none" stroke="#569ad8" stroke-width="2" d="M420,-324C420,-324 390,-324 390,-324 384,-324 378,-318 378,-312 378,-312 378,-300 378,-300 378,-294 384,-288 390,-288 390,-288 420,-288 420,-288 426,-288 432,-294 432,-300 432,-300 432,-312 432,-312 432,-318 426,-324 420,-324"/>
<text text-anchor="middle" x="405" y="-303.5" font-family="sans" font-size="10.00">counts</text>
</g>
<!-- 5&#45;&gt;19 -->
<g id="edge40" class="edge"><title>5&#45;&gt;19</title>
<path fill="none" stroke="grey" stroke-width="2" d="M412.42,-503.912C400.763,-494.81 388.315,-482.494 382,-468 362.684,-423.663 379.511,-366.583 392.764,-333.66"/>
<polygon fill="grey" stroke="grey" stroke-width="2" points="396.068,-334.833 396.718,-324.258 389.615,-332.119 396.068,-334.833"/>
</g>
<!-- 6 -->
<g id="node7" class="node"><title>6</title>
<path fill="none" stroke="#61d856" stroke-width="2" d="M366,-612C366,-612 336,-612 336,-612 330,-612 324,-606 324,-600 324,-600 324,-588 324,-588 324,-582 330,-576 336,-576 336,-576 366,-576 366,-576 372,-576 378,-582 378,-588 378,-588 378,-600 378,-600 378,-606 372,-612 366,-612"/>
<text text-anchor="middle" x="351" y="-591.5" font-family="sans" font-size="10.00">rmdup</text>
</g>
<!-- 6&#45;&gt;5 -->
<g id="edge20" class="edge"><title>6&#45;&gt;5</title>
<path fill="none" stroke="grey" stroke-width="2" d="M372.753,-575.697C383.836,-566.881 397.474,-556.032 409.49,-546.474"/>
<polygon fill="grey" stroke="grey" stroke-width="2" points="411.85,-549.069 417.497,-540.104 407.493,-543.59 411.85,-549.069"/>
</g>
<!-- 7 -->
<g id="node8" class="node"><title>7</title>
<path fill="none" stroke="#5682d8" stroke-width="2" d="M366,-684C366,-684 336,-684 336,-684 330,-684 324,-678 324,-672 324,-672 324,-660 324,-660 324,-654 330,-648 336,-648 336,-648 366,-648 366,-648 372,-648 378,-654 378,-660 378,-660 378,-672 378,-672 378,-678 372,-684 366,-684"/>
<text text-anchor="middle" x="351" y="-663.5" font-family="sans" font-size="10.00">filter</text>
</g>
<!-- 7&#45;&gt;6 -->
<g id="edge21" class="edge"><title>7&#45;&gt;6</title>
<path fill="none" stroke="grey" stroke-width="2" d="M351,-647.697C351,-639.983 351,-630.712 351,-622.112"/>
<polygon fill="grey" stroke="grey" stroke-width="2" points="354.5,-622.104 351,-612.104 347.5,-622.104 354.5,-622.104"/>
</g>
<!-- 8&#45;&gt;7 -->
<g id="edge22" class="edge"><title>8&#45;&gt;7</title>
<path fill="none" stroke="grey" stroke-width="2" d="M284.753,-719.697C295.836,-710.881 309.474,-700.032 321.49,-690.474"/>
<polygon fill="grey" stroke="grey" stroke-width="2" points="323.85,-693.069 329.497,-684.104 319.493,-687.59 323.85,-693.069"/>
</g>
<!-- 9&#45;&gt;0 -->
<g id="edge2" class="edge"><title>9&#45;&gt;0</title>
<path fill="none" stroke="grey" stroke-width="2" d="M442.051,-431.672C453.312,-365.424 489.69,-129.034 446,-72 426.862,-47.0175 393.218,-33.4384 367.075,-26.3012"/>
<polygon fill="grey" stroke="grey" stroke-width="2" points="367.664,-22.8403 357.111,-23.7879 365.952,-29.6276 367.664,-22.8403"/>
</g>
<!-- 9&#45;&gt;10 -->
<g id="edge25" class="edge"><title>9&#45;&gt;10</title>
<path fill="none" stroke="grey" stroke-width="2" d="M391.452,-437.831C332.172,-423.906 232.092,-400.397 178.136,-387.723"/>
<polygon fill="grey" stroke="grey" stroke-width="2" points="178.837,-384.293 168.302,-385.413 177.236,-391.107 178.837,-384.293"/>
</g>
<!-- 10&#45;&gt;0 -->
<g id="edge16" class="edge"><title>10&#45;&gt;0</title>
<path fill="none" stroke="grey" stroke-width="2" d="M137.56,-359.592C132.592,-332.896 124,-280.188 124,-235 124,-235 124,-235 124,-161 124,-120.031 119.322,-101.257 148,-72 186.252,-32.976 251.45,-22.2779 292.547,-19.578"/>
<polygon fill="grey" stroke="grey" stroke-width="2" points="292.896,-23.0645 302.697,-19.0413 292.526,-16.0743 292.896,-23.0645"/>
</g>
<!-- 11&#45;&gt;0 -->
<g id="edge11" class="edge"><title>11&#45;&gt;0</title>
<path fill="none" stroke="grey" stroke-width="2" d="M245.832,-431.69C236.992,-421.923 226.694,-409.079 220,-396 182.706,-323.133 173.699,-297.53 181,-216 186.801,-151.224 166.549,-122.924 207,-72 228.125,-45.4064 265.184,-31.9058 293.119,-25.2147"/>
<polygon fill="grey" stroke="grey" stroke-width="2" points="293.94,-28.6178 302.951,-23.046 292.432,-21.7821 293.94,-28.6178"/>
</g>
<!-- 11&#45;&gt;10 -->
<g id="edge27" class="edge"><title>11&#45;&gt;10</title>
<path fill="none" stroke="grey" stroke-width="2" d="M235.924,-433.465C218.55,-423.496 195.792,-410.438 176.915,-399.607"/>
<polygon fill="grey" stroke="grey" stroke-width="2" points="178.416,-396.433 168,-394.492 174.932,-402.504 178.416,-396.433"/>
</g>
<!-- 16 -->
<g id="node17" class="node"><title>16</title>
<path fill="none" stroke="#d89c56" stroke-width="2" d="M285,-396C285,-396 241,-396 241,-396 235,-396 229,-390 229,-384 229,-384 229,-372 229,-372 229,-366 235,-360 241,-360 241,-360 285,-360 285,-360 291,-360 297,-366 297,-372 297,-372 297,-384 297,-384 297,-390 291,-396 285,-396"/>
<text text-anchor="middle" x="263" y="-375.5" font-family="sans" font-size="10.00">consensus</text>
</g>
<!-- 11&#45;&gt;16 -->
<g id="edge36" class="edge"><title>11&#45;&gt;16</title>
<path fill="none" stroke="grey" stroke-width="2" d="M263,-431.697C263,-423.983 263,-414.712 263,-406.112"/>
<polygon fill="grey" stroke="grey" stroke-width="2" points="266.5,-406.104 263,-396.104 259.5,-406.104 266.5,-406.104"/>
</g>
<!-- 12 -->
<g id="node13" class="node"><title>12</title>
<path fill="none" stroke="#56c9d8" stroke-width="2" d="M568.5,-324C568.5,-324 501.5,-324 501.5,-324 495.5,-324 489.5,-318 489.5,-312 489.5,-312 489.5,-300 489.5,-300 489.5,-294 495.5,-288 501.5,-288 501.5,-288 568.5,-288 568.5,-288 574.5,-288 580.5,-294 580.5,-300 580.5,-300 580.5,-312 580.5,-312 580.5,-318 574.5,-324 568.5,-324"/>
<text text-anchor="middle" x="535" y="-303.5" font-family="sans" font-size="10.00">fraglength_plot</text>
</g>
<!-- 12&#45;&gt;0 -->
<g id="edge3" class="edge"><title>12&#45;&gt;0</title>
<path fill="none" stroke="grey" stroke-width="2" d="M539.002,-287.956C547.804,-245.857 564.08,-135.753 511,-72 475.849,-29.7807 409.026,-20.1363 367.146,-18.5029"/>
<polygon fill="grey" stroke="grey" stroke-width="2" points="367.156,-15.0021 357.07,-18.2453 366.977,-21.9999 367.156,-15.0021"/>
</g>
<!-- 13&#45;&gt;12 -->
<g id="edge31" class="edge"><title>13&#45;&gt;12</title>
<path fill="none" stroke="grey" stroke-width="2" d="M537.638,-431.871C537.127,-407.67 536.188,-363.211 535.579,-334.393"/>
<polygon fill="grey" stroke="grey" stroke-width="2" points="539.074,-334.113 535.363,-324.189 532.075,-334.261 539.074,-334.113"/>
</g>
<!-- 14 -->
<g id="node15" class="node"><title>14</title>
<path fill="none" stroke="#56d892" stroke-width="2" d="M309,-108C309,-108 279,-108 279,-108 273,-108 267,-102 267,-96 267,-96 267,-84 267,-84 267,-78 273,-72 279,-72 279,-72 309,-72 309,-72 315,-72 321,-78 321,-84 321,-84 321,-96 321,-96 321,-102 315,-108 309,-108"/>
<text text-anchor="middle" x="294" y="-87.5" font-family="sans" font-size="10.00">FRiP</text>
</g>
<!-- 14&#45;&gt;0 -->
<g id="edge10" class="edge"><title>14&#45;&gt;0</title>
<path fill="none" stroke="grey" stroke-width="2" d="M302.899,-71.6966C306.997,-63.7284 311.949,-54.0995 316.493,-45.2641"/>
<polygon fill="grey" stroke="grey" stroke-width="2" points="319.742,-46.598 321.203,-36.1043 313.517,-43.3965 319.742,-46.598"/>
</g>
<!-- 15&#45;&gt;14 -->
<g id="edge33" class="edge"><title>15&#45;&gt;14</title>
<path fill="none" stroke="grey" stroke-width="2" d="M322.516,-287.849C317.153,-250.832 304.456,-163.181 297.967,-118.386"/>
<polygon fill="grey" stroke="grey" stroke-width="2" points="301.394,-117.627 296.496,-108.232 294.466,-118.631 301.394,-117.627"/>
</g>
<!-- 16&#45;&gt;0 -->
<g id="edge7" class="edge"><title>16&#45;&gt;0</title>
<path fill="none" stroke="grey" stroke-width="2" d="M261.785,-359.706C257.643,-298.961 245.037,-97.6391 258,-72 265.698,-56.774 280.06,-44.852 293.944,-36.2039"/>
<polygon fill="grey" stroke="grey" stroke-width="2" points="296.032,-39.0388 302.923,-30.9917 292.518,-32.9848 296.032,-39.0388"/>
</g>
<!-- 16&#45;&gt;15 -->
<g id="edge34" class="edge"><title>16&#45;&gt;15</title>
<path fill="none" stroke="grey" stroke-width="2" d="M278.326,-359.697C285.759,-351.305 294.823,-341.07 302.98,-331.861"/>
<polygon fill="grey" stroke="grey" stroke-width="2" points="305.84,-333.911 309.85,-324.104 300.6,-329.27 305.84,-333.911"/>
</g>
<!-- 16&#45;&gt;19 -->
<g id="edge39" class="edge"><title>16&#45;&gt;19</title>
<path fill="none" stroke="grey" stroke-width="2" d="M297.013,-360.233C318.694,-349.545 346.76,-335.71 368.845,-324.823"/>
<polygon fill="grey" stroke="grey" stroke-width="2" points="370.486,-327.916 377.908,-320.355 367.391,-321.637 370.486,-327.916"/>
</g>
<!-- 21 -->
<g id="node22" class="node"><title>21</title>
<path fill="none" stroke="#56d863" stroke-width="2" d="M232,-252C232,-252 202,-252 202,-252 196,-252 190,-246 190,-240 190,-240 190,-228 190,-228 190,-222 196,-216 202,-216 202,-216 232,-216 232,-216 238,-216 244,-222 244,-228 244,-228 244,-240 244,-240 244,-246 238,-252 232,-252"/>
<text text-anchor="middle" x="217" y="-231.5" font-family="sans" font-size="10.00">diffbind</text>
</g>
<!-- 16&#45;&gt;21 -->
<g id="edge42" class="edge"><title>16&#45;&gt;21</title>
<path fill="none" stroke="grey" stroke-width="2" d="M257.451,-359.871C249.577,-335.564 235.082,-290.819 225.751,-262.013"/>
<polygon fill="grey" stroke="grey" stroke-width="2" points="228.98,-260.624 222.568,-252.189 222.321,-262.781 228.98,-260.624"/>
</g>
<!-- 17&#45;&gt;0 -->
<g id="edge5" class="edge"><title>17&#45;&gt;0</title>
<path fill="none" stroke="grey" stroke-width="2" d="M595.44,-359.592C600.408,-332.896 609,-280.188 609,-235 609,-235 609,-235 609,-161 609,-53.6787 443.006,-27.4347 367.092,-21.0442"/>
<polygon fill="grey" stroke="grey" stroke-width="2" points="367.244,-17.5456 357.005,-20.2678 366.707,-24.525 367.244,-17.5456"/>
</g>
<!-- 18 -->
<g id="node19" class="node"><title>18</title>
<path fill="none" stroke="#56d8b9" stroke-width="2" d="M432.5,-252C432.5,-252 377.5,-252 377.5,-252 371.5,-252 365.5,-246 365.5,-240 365.5,-240 365.5,-228 365.5,-228 365.5,-222 371.5,-216 377.5,-216 377.5,-216 432.5,-216 432.5,-216 438.5,-216 444.5,-222 444.5,-228 444.5,-228 444.5,-240 444.5,-240 444.5,-246 438.5,-252 432.5,-252"/>
<text text-anchor="middle" x="405" y="-231.5" font-family="sans" font-size="10.00">counts_table</text>
</g>
<!-- 18&#45;&gt;0 -->
<g id="edge14" class="edge"><title>18&#45;&gt;0</title>
<path fill="none" stroke="grey" stroke-width="2" d="M420.183,-215.703C427.732,-205.939 436.066,-193.095 440,-180 454.021,-133.323 450.522,-110.778 421,-72 407.168,-53.8312 385.172,-40.7753 366.27,-32.168"/>
<polygon fill="grey" stroke="grey" stroke-width="2" points="367.579,-28.9208 357.01,-28.1832 364.812,-35.3508 367.579,-28.9208"/>
</g>
<!-- 20 -->
<g id="node21" class="node"><title>20</title>
<path fill="none" stroke="#d6d856" stroke-width="2" d="M419,-180C419,-180 389,-180 389,-180 383,-180 377,-174 377,-168 377,-168 377,-156 377,-156 377,-150 383,-144 389,-144 389,-144 419,-144 419,-144 425,-144 431,-150 431,-156 431,-156 431,-168 431,-168 431,-174 425,-180 419,-180"/>
<text text-anchor="middle" x="404" y="-159.5" font-family="sans" font-size="10.00">deseq2</text>
</g>
<!-- 18&#45;&gt;20 -->
<g id="edge41" class="edge"><title>18&#45;&gt;20</title>
<path fill="none" stroke="grey" stroke-width="2" d="M404.753,-215.697C404.643,-207.983 404.51,-198.712 404.387,-190.112"/>
<polygon fill="grey" stroke="grey" stroke-width="2" points="407.887,-190.053 404.244,-180.104 400.888,-190.153 407.887,-190.053"/>
</g>
<!-- 19&#45;&gt;18 -->
<g id="edge38" class="edge"><title>19&#45;&gt;18</title>
<path fill="none" stroke="grey" stroke-width="2" d="M405,-287.697C405,-279.983 405,-270.712 405,-262.112"/>
<polygon fill="grey" stroke="grey" stroke-width="2" points="408.5,-262.104 405,-252.104 401.5,-262.104 408.5,-262.104"/>
</g>
<!-- 20&#45;&gt;0 -->
<g id="edge1" class="edge"><title>20&#45;&gt;0</title>
<path fill="none" stroke="grey" stroke-width="2" d="M407.88,-143.835C411.192,-125.059 413.761,-94.627 402,-72 394.19,-56.9745 379.96,-45.1298 366.2,-36.4838"/>
<polygon fill="grey" stroke="grey" stroke-width="2" points="367.695,-33.3028 357.298,-31.2627 364.153,-39.3409 367.695,-33.3028"/>
</g>
<!-- 22 -->
<g id="node23" class="node"><title>22</title>
<path fill="none" stroke="#56d8d0" stroke-width="2" d="M381,-108C381,-108 351,-108 351,-108 345,-108 339,-102 339,-96 339,-96 339,-84 339,-84 339,-78 345,-72 351,-72 351,-72 381,-72 381,-72 387,-72 393,-78 393,-84 393,-84 393,-96 393,-96 393,-102 387,-108 381,-108"/>
<text text-anchor="middle" x="366" y="-87.5" font-family="sans" font-size="10.00">homer</text>
</g>
<!-- 20&#45;&gt;22 -->
<g id="edge43" class="edge"><title>20&#45;&gt;22</title>
<path fill="none" stroke="grey" stroke-width="2" d="M394.607,-143.697C390.235,-135.644 384.943,-125.894 380.105,-116.982"/>
<polygon fill="grey" stroke="grey" stroke-width="2" points="383.132,-115.223 375.285,-108.104 376.98,-118.563 383.132,-115.223"/>
</g>
<!-- 21&#45;&gt;0 -->
<g id="edge6" class="edge"><title>21&#45;&gt;0</title>
<path fill="none" stroke="grey" stroke-width="2" d="M212.65,-215.8C205.751,-184.379 195.863,-116.814 225,-72 240.291,-48.4821 269.407,-34.9426 293.107,-27.4445"/>
<polygon fill="grey" stroke="grey" stroke-width="2" points="294.26,-30.7541 302.877,-24.5895 292.296,-24.0351 294.26,-30.7541"/>
</g>
<!-- 22&#45;&gt;0 -->
<g id="edge12" class="edge"><title>22&#45;&gt;0</title>
<path fill="none" stroke="grey" stroke-width="2" d="M357.101,-71.6966C353.003,-63.7284 348.051,-54.0995 343.507,-45.2641"/>
<polygon fill="grey" stroke="grey" stroke-width="2" points="346.483,-43.3965 338.797,-36.1043 340.258,-46.598 346.483,-43.3965"/>
</g>
</g>
</svg>
