<?xml version="1.0" encoding="UTF-8" standalone="no"?>
<!DOCTYPE svg PUBLIC "-//W3C//DTD SVG 1.1//EN"
 "http://www.w3.org/Graphics/SVG/1.1/DTD/svg11.dtd">
<!-- Generated by graphviz version 2.38.0 (20140413.2041)
 -->
<!-- Title: snakemake_dag Pages: 1 -->
<svg width="151pt" height="404pt"
 viewBox="0.00 0.00 151.00 404.00" xmlns="http://www.w3.org/2000/svg" xmlns:xlink="http://www.w3.org/1999/xlink">
<g id="graph0" class="graph" transform="scale(1 1) rotate(0) translate(4 400)">
<title>snakemake_dag</title>
<polygon fill="white" stroke="none" points="-4,4 -4,-400 147,-400 147,4 -4,4"/>
<!-- 0 -->
<g id="node1" class="node"><title>0</title>
<path fill="none" stroke="#d8ac56" stroke-width="2" d="M52,-36C52,-36 22,-36 22,-36 16,-36 10,-30 10,-24 10,-24 10,-12 10,-12 10,-6 16,-0 22,-0 22,-0 52,-0 52,-0 58,-0 64,-6 64,-12 64,-12 64,-24 64,-24 64,-30 58,-36 52,-36"/>
<text text-anchor="middle" x="37" y="-15.5" font-family="sans" font-size="10.00">all</text>
</g>
<!-- 1 -->
<g id="node2" class="node"><title>1</title>
<path fill="none" stroke="#56d8a9" stroke-width="2" d="M47.5,-252C47.5,-252 14.5,-252 14.5,-252 8.5,-252 2.5,-246 2.5,-240 2.5,-240 2.5,-228 2.5,-228 2.5,-222 8.5,-216 14.5,-216 14.5,-216 47.5,-216 47.5,-216 53.5,-216 59.5,-222 59.5,-228 59.5,-228 59.5,-240 59.5,-240 59.5,-246 53.5,-252 47.5,-252"/>
<text text-anchor="middle" x="31" y="-231.5" font-family="sans" font-size="10.00">sortbam</text>
</g>
<!-- 1&#45;&gt;0 -->
<g id="edge1" class="edge"><title>1&#45;&gt;0</title>
<path fill="none" stroke="grey" stroke-width="2" d="M25.2421,-215.885C16.1021,-186.259 0.433373,-123.634 12,-72 14.014,-63.0093 17.7318,-53.747 21.6957,-45.5303"/>
<polygon fill="grey" stroke="grey" stroke-width="2" points="24.9082,-46.9368 26.3749,-36.444 18.6849,-43.732 24.9082,-46.9368"/>
</g>
<!-- 4 -->
<g id="node5" class="node"><title>4</title>
<path fill="none" stroke="#afd856" stroke-width="2" d="M113,-180C113,-180 39,-180 39,-180 33,-180 27,-174 27,-168 27,-168 27,-156 27,-156 27,-150 33,-144 39,-144 39,-144 113,-144 113,-144 119,-144 125,-150 125,-156 125,-156 125,-168 125,-168 125,-174 119,-180 113,-180"/>
<text text-anchor="middle" x="76" y="-159.5" font-family="sans" font-size="10.00">fragment_length</text>
</g>
<!-- 1&#45;&gt;4 -->
<g id="edge6" class="edge"><title>1&#45;&gt;4</title>
<path fill="none" stroke="grey" stroke-width="2" d="M42.1236,-215.697C47.355,-207.559 53.6999,-197.689 59.4778,-188.701"/>
<polygon fill="grey" stroke="grey" stroke-width="2" points="62.5409,-190.409 65.0044,-180.104 56.6526,-186.623 62.5409,-190.409"/>
</g>
<!-- 2 -->
<g id="node3" class="node"><title>2</title>
<path fill="none" stroke="#59d856" stroke-width="2" d="M131,-108C131,-108 33,-108 33,-108 27,-108 21,-102 21,-96 21,-96 21,-84 21,-84 21,-78 27,-72 33,-72 33,-72 131,-72 131,-72 137,-72 143,-78 143,-84 143,-84 143,-96 143,-96 143,-102 137,-108 131,-108"/>
<text text-anchor="middle" x="82" y="-87.5" font-family="sans" font-size="10.00">fragment_length_plot</text>
</g>
<!-- 2&#45;&gt;0 -->
<g id="edge2" class="edge"><title>2&#45;&gt;0</title>
<path fill="none" stroke="grey" stroke-width="2" d="M70.8764,-71.6966C65.645,-63.5589 59.3001,-53.689 53.5222,-44.7013"/>
<polygon fill="grey" stroke="grey" stroke-width="2" points="56.3474,-42.6235 47.9956,-36.1043 50.4591,-46.4088 56.3474,-42.6235"/>
</g>
<!-- 3 -->
<g id="node4" class="node"><title>3</title>
<path fill="none" stroke="#d85656" stroke-width="2" d="M46,-324C46,-324 16,-324 16,-324 10,-324 4,-318 4,-312 4,-312 4,-300 4,-300 4,-294 10,-288 16,-288 16,-288 46,-288 46,-288 52,-288 58,-294 58,-300 58,-300 58,-312 58,-312 58,-318 52,-324 46,-324"/>
<text text-anchor="middle" x="31" y="-303.5" font-family="sans" font-size="10.00">align</text>
</g>
<!-- 3&#45;&gt;1 -->
<g id="edge3" class="edge"><title>3&#45;&gt;1</title>
<path fill="none" stroke="grey" stroke-width="2" d="M31,-287.697C31,-279.983 31,-270.712 31,-262.112"/>
<polygon fill="grey" stroke="grey" stroke-width="2" points="34.5001,-262.104 31,-252.104 27.5001,-262.104 34.5001,-262.104"/>
</g>
<!-- 4&#45;&gt;2 -->
<g id="edge4" class="edge"><title>4&#45;&gt;2</title>
<path fill="none" stroke="grey" stroke-width="2" d="M77.4831,-143.697C78.1443,-135.983 78.9389,-126.712 79.6761,-118.112"/>
<polygon fill="grey" stroke="grey" stroke-width="2" points="83.167,-118.367 80.5339,-108.104 76.1926,-117.769 83.167,-118.367"/>
</g>
<!-- 5 -->
<g id="node6" class="node"><title>5</title>
<path fill="none" stroke="#56a9d8" stroke-width="2" d="M50,-396C50,-396 12,-396 12,-396 6,-396 0,-390 0,-384 0,-384 0,-372 0,-372 0,-366 6,-360 12,-360 12,-360 50,-360 50,-360 56,-360 62,-366 62,-372 62,-372 62,-384 62,-384 62,-390 56,-396 50,-396"/>
<text text-anchor="middle" x="31" y="-375.5" font-family="sans" font-size="10.00">trimming</text>
</g>
<!-- 5&#45;&gt;3 -->
<g id="edge5" class="edge"><title>5&#45;&gt;3</title>
<path fill="none" stroke="grey" stroke-width="2" d="M31,-359.697C31,-351.983 31,-342.712 31,-334.112"/>
<polygon fill="grey" stroke="grey" stroke-width="2" points="34.5001,-334.104 31,-324.104 27.5001,-334.104 34.5001,-334.104"/>
</g>
</g>
</svg>
