<?xml version="1.0" encoding="UTF-8" standalone="no"?>
<!DOCTYPE svg PUBLIC "-//W3C//DTD SVG 1.1//EN"
 "http://www.w3.org/Graphics/SVG/1.1/DTD/svg11.dtd">
<!-- Generated by graphviz version 2.38.0 (20140413.2041)
 -->
<!-- Title: snakemake_dag Pages: 1 -->
<svg width="600pt" height="1052pt"
 viewBox="0.00 0.00 600.00 1052.00" xmlns="http://www.w3.org/2000/svg" xmlns:xlink="http://www.w3.org/1999/xlink">
<g id="graph0" class="graph" transform="scale(1 1) rotate(0) translate(4 1048)">
<title>snakemake_dag</title>
<polygon fill="white" stroke="none" points="-4,4 -4,-1048 596,-1048 596,4 -4,4"/>
<!-- 0 -->
<g id="node1" class="node"><title>0</title>
<path fill="none" stroke="#56c9d8" stroke-width="2" d="M226,-36C226,-36 196,-36 196,-36 190,-36 184,-30 184,-24 184,-24 184,-12 184,-12 184,-6 190,-0 196,-0 196,-0 226,-0 226,-0 232,-0 238,-6 238,-12 238,-12 238,-24 238,-24 238,-30 232,-36 226,-36"/>
<text text-anchor="middle" x="211" y="-15.5" font-family="sans" font-size="10.00">all</text>
</g>
<!-- 1 -->
<g id="node2" class="node"><title>1</title>
<path fill="none" stroke="#d85656" stroke-width="2" d="M210.5,-900C210.5,-900 177.5,-900 177.5,-900 171.5,-900 165.5,-894 165.5,-888 165.5,-888 165.5,-876 165.5,-876 165.5,-870 171.5,-864 177.5,-864 177.5,-864 210.5,-864 210.5,-864 216.5,-864 222.5,-870 222.5,-876 222.5,-876 222.5,-888 222.5,-888 222.5,-894 216.5,-900 210.5,-900"/>
<text text-anchor="middle" x="194" y="-879.5" font-family="sans" font-size="10.00">sortbam</text>
</g>
<!-- 1&#45;&gt;0 -->
<g id="edge4" class="edge"><title>1&#45;&gt;0</title>
<path fill="none" stroke="grey" stroke-width="2" d="M187.814,-863.547C184.419,-853.313 180.419,-840.063 178,-828 157.531,-725.929 154,-699.103 154,-595 154,-595 154,-595 154,-161 154,-117.801 177,-72.1859 193.78,-44.6553"/>
<polygon fill="grey" stroke="grey" stroke-width="2" points="196.835,-46.3716 199.19,-36.0417 190.907,-42.6485 196.835,-46.3716"/>
</g>
<!-- 10 -->
<g id="node11" class="node"><title>10</title>
<path fill="none" stroke="#ced856" stroke-width="2" d="M273,-828C273,-828 199,-828 199,-828 193,-828 187,-822 187,-816 187,-816 187,-804 187,-804 187,-798 193,-792 199,-792 199,-792 273,-792 273,-792 279,-792 285,-798 285,-804 285,-804 285,-816 285,-816 285,-822 279,-828 273,-828"/>
<text text-anchor="middle" x="236" y="-807.5" font-family="sans" font-size="10.00">fragment_length</text>
</g>
<!-- 1&#45;&gt;10 -->
<g id="edge18" class="edge"><title>1&#45;&gt;10</title>
<path fill="none" stroke="grey" stroke-width="2" d="M204.382,-863.697C209.265,-855.559 215.187,-845.689 220.579,-836.701"/>
<polygon fill="grey" stroke="grey" stroke-width="2" points="223.594,-838.48 225.737,-828.104 217.591,-834.879 223.594,-838.48"/>
</g>
<!-- 21 -->
<g id="node22" class="node"><title>21</title>
<path fill="none" stroke="#56d89a" stroke-width="2" d="M413,-828C413,-828 317,-828 317,-828 311,-828 305,-822 305,-816 305,-816 305,-804 305,-804 305,-798 311,-792 317,-792 317,-792 413,-792 413,-792 419,-792 425,-798 425,-804 425,-804 425,-816 425,-816 425,-822 419,-828 413,-828"/>
<text text-anchor="middle" x="365" y="-807.5" font-family="sans" font-size="10.00">removeMitochondrial</text>
</g>
<!-- 1&#45;&gt;21 -->
<g id="edge31" class="edge"><title>1&#45;&gt;21</title>
<path fill="none" stroke="grey" stroke-width="2" d="M222.622,-869.284C247.501,-859.099 284.141,-844.1 314.021,-831.869"/>
<polygon fill="grey" stroke="grey" stroke-width="2" points="315.532,-835.032 323.461,-828.004 312.88,-828.554 315.532,-835.032"/>
</g>
<!-- 2 -->
<g id="node3" class="node"><title>2</title>
<path fill="none" stroke="#569ad8" stroke-width="2" d="M292,-684C292,-684 194,-684 194,-684 188,-684 182,-678 182,-672 182,-672 182,-660 182,-660 182,-654 188,-648 194,-648 194,-648 292,-648 292,-648 298,-648 304,-654 304,-660 304,-660 304,-672 304,-672 304,-678 298,-684 292,-684"/>
<text text-anchor="middle" x="243" y="-663.5" font-family="sans" font-size="10.00">fragment_length_plot</text>
</g>
<!-- 2&#45;&gt;0 -->
<g id="edge2" class="edge"><title>2&#45;&gt;0</title>
<path fill="none" stroke="grey" stroke-width="2" d="M232.433,-647.786C217.495,-621.765 192,-570.412 192,-523 192,-523 192,-523 192,-161 192,-120.86 199.551,-74.897 205.132,-46.4045"/>
<polygon fill="grey" stroke="grey" stroke-width="2" points="208.606,-46.8834 207.155,-36.3884 201.745,-45.4976 208.606,-46.8834"/>
</g>
<!-- 3 -->
<g id="node4" class="node"><title>3</title>
<path fill="none" stroke="#566bd8" stroke-width="2" d="M42,-900C42,-900 12,-900 12,-900 6,-900 0,-894 0,-888 0,-888 0,-876 0,-876 0,-870 6,-864 12,-864 12,-864 42,-864 42,-864 48,-864 54,-870 54,-876 54,-876 54,-888 54,-888 54,-894 48,-900 42,-900"/>
<text text-anchor="middle" x="27" y="-879.5" font-family="sans" font-size="10.00">fastqc</text>
</g>
<!-- 3&#45;&gt;0 -->
<g id="edge7" class="edge"><title>3&#45;&gt;0</title>
<path fill="none" stroke="grey" stroke-width="2" d="M25.617,-863.964C23.577,-837.323 20,-784.169 20,-739 20,-739 20,-739 20,-161 20,-85.1475 118.215,-45.0623 173.787,-28.4523"/>
<polygon fill="grey" stroke="grey" stroke-width="2" points="174.991,-31.7481 183.634,-25.6207 173.057,-25.0207 174.991,-31.7481"/>
</g>
<!-- 4 -->
<g id="node5" class="node"><title>4</title>
<path fill="none" stroke="#5682d8" stroke-width="2" d="M115.5,-756C115.5,-756 60.5,-756 60.5,-756 54.5,-756 48.5,-750 48.5,-744 48.5,-744 48.5,-732 48.5,-732 48.5,-726 54.5,-720 60.5,-720 60.5,-720 115.5,-720 115.5,-720 121.5,-720 127.5,-726 127.5,-732 127.5,-732 127.5,-744 127.5,-744 127.5,-750 121.5,-756 115.5,-756"/>
<text text-anchor="middle" x="88" y="-735.5" font-family="sans" font-size="10.00">fastq_screen</text>
</g>
<!-- 4&#45;&gt;0 -->
<g id="edge6" class="edge"><title>4&#45;&gt;0</title>
<path fill="none" stroke="grey" stroke-width="2" d="M91.8449,-719.612C97.3968,-692.942 107,-640.268 107,-595 107,-595 107,-595 107,-161 107,-118.813 114.728,-105.78 140,-72 149.508,-59.2909 162.887,-48.2163 175.471,-39.5234"/>
<polygon fill="grey" stroke="grey" stroke-width="2" points="177.58,-42.3247 183.999,-33.895 173.724,-36.4824 177.58,-42.3247"/>
</g>
<!-- 5 -->
<g id="node6" class="node"><title>5</title>
<path fill="none" stroke="#d8cb56" stroke-width="2" d="M365.5,-468C365.5,-468 326.5,-468 326.5,-468 320.5,-468 314.5,-462 314.5,-456 314.5,-456 314.5,-444 314.5,-444 314.5,-438 320.5,-432 326.5,-432 326.5,-432 365.5,-432 365.5,-432 371.5,-432 377.5,-438 377.5,-444 377.5,-444 377.5,-456 377.5,-456 377.5,-462 371.5,-468 365.5,-468"/>
<text text-anchor="middle" x="346" y="-447.5" font-family="sans" font-size="10.00">sortbam2</text>
</g>
<!-- 5&#45;&gt;0 -->
<g id="edge3" class="edge"><title>5&#45;&gt;0</title>
<path fill="none" stroke="grey" stroke-width="2" d="M318.215,-431.877C283.898,-408.347 230,-362.548 230,-307 230,-307 230,-307 230,-161 230,-120.86 222.449,-74.897 216.868,-46.4045"/>
<polygon fill="grey" stroke="grey" stroke-width="2" points="220.255,-45.4976 214.845,-36.3884 213.394,-46.8834 220.255,-45.4976"/>
</g>
<!-- 6 -->
<g id="node7" class="node"><title>6</title>
<path fill="none" stroke="#70d856" stroke-width="2" d="M323.5,-180C323.5,-180 270.5,-180 270.5,-180 264.5,-180 258.5,-174 258.5,-168 258.5,-168 258.5,-156 258.5,-156 258.5,-150 264.5,-144 270.5,-144 270.5,-144 323.5,-144 323.5,-144 329.5,-144 335.5,-150 335.5,-156 335.5,-156 335.5,-168 335.5,-168 335.5,-174 329.5,-180 323.5,-180"/>
<text text-anchor="middle" x="297" y="-159.5" font-family="sans" font-size="10.00">makeBigwig</text>
</g>
<!-- 5&#45;&gt;6 -->
<g id="edge14" class="edge"><title>5&#45;&gt;6</title>
<path fill="none" stroke="grey" stroke-width="2" d="M341.174,-431.746C334.622,-407.757 322.936,-362.888 316,-324 307.689,-277.403 302.098,-222.548 299.24,-190.394"/>
<polygon fill="grey" stroke="grey" stroke-width="2" points="302.691,-189.679 298.343,-180.018 295.717,-190.282 302.691,-189.679"/>
</g>
<!-- 13 -->
<g id="node14" class="node"><title>13</title>
<path fill="none" stroke="#88d856" stroke-width="2" d="M378.5,-324C378.5,-324 337.5,-324 337.5,-324 331.5,-324 325.5,-318 325.5,-312 325.5,-312 325.5,-300 325.5,-300 325.5,-294 331.5,-288 337.5,-288 337.5,-288 378.5,-288 378.5,-288 384.5,-288 390.5,-294 390.5,-300 390.5,-300 390.5,-312 390.5,-312 390.5,-318 384.5,-324 378.5,-324"/>
<text text-anchor="middle" x="358" y="-303.5" font-family="sans" font-size="10.00">frip_count</text>
</g>
<!-- 5&#45;&gt;13 -->
<g id="edge22" class="edge"><title>5&#45;&gt;13</title>
<path fill="none" stroke="grey" stroke-width="2" d="M347.447,-431.871C349.493,-407.67 353.25,-363.211 355.685,-334.393"/>
<polygon fill="grey" stroke="grey" stroke-width="2" points="359.193,-334.449 356.547,-324.189 352.218,-333.859 359.193,-334.449"/>
</g>
<!-- 17 -->
<g id="node18" class="node"><title>17</title>
<path fill="none" stroke="#56d882" stroke-width="2" d="M479.5,-396C479.5,-396 386.5,-396 386.5,-396 380.5,-396 374.5,-390 374.5,-384 374.5,-384 374.5,-372 374.5,-372 374.5,-366 380.5,-360 386.5,-360 386.5,-360 479.5,-360 479.5,-360 485.5,-360 491.5,-366 491.5,-372 491.5,-372 491.5,-384 491.5,-384 491.5,-390 485.5,-396 479.5,-396"/>
<text text-anchor="middle" x="433" y="-375.5" font-family="sans" font-size="10.00">MACS_no_downsmpl</text>
</g>
<!-- 5&#45;&gt;17 -->
<g id="edge26" class="edge"><title>5&#45;&gt;17</title>
<path fill="none" stroke="grey" stroke-width="2" d="M367.506,-431.697C378.463,-422.881 391.946,-412.032 403.825,-402.474"/>
<polygon fill="grey" stroke="grey" stroke-width="2" points="406.145,-405.1 411.742,-396.104 401.756,-399.646 406.145,-405.1"/>
</g>
<!-- 18 -->
<g id="node19" class="node"><title>18</title>
<path fill="none" stroke="#56d86b" stroke-width="2" d="M576,-252C576,-252 408,-252 408,-252 402,-252 396,-246 396,-240 396,-240 396,-228 396,-228 396,-222 402,-216 408,-216 408,-216 576,-216 576,-216 582,-216 588,-222 588,-228 588,-228 588,-240 588,-240 588,-246 582,-252 576,-252"/>
<text text-anchor="middle" x="492" y="-231.5" font-family="sans" font-size="10.00">peak_catalog_counts_no_downsmpl</text>
</g>
<!-- 5&#45;&gt;18 -->
<g id="edge27" class="edge"><title>5&#45;&gt;18</title>
<path fill="none" stroke="grey" stroke-width="2" d="M377.765,-443.915C432.097,-433.194 540.19,-402.445 573,-324 579.174,-309.239 580.61,-302.074 573,-288 566.182,-275.391 554.915,-265.3 542.921,-257.45"/>
<polygon fill="grey" stroke="grey" stroke-width="2" points="544.48,-254.303 534.112,-252.126 540.859,-260.294 544.48,-254.303"/>
</g>
<!-- 6&#45;&gt;0 -->
<g id="edge8" class="edge"><title>6&#45;&gt;0</title>
<path fill="none" stroke="grey" stroke-width="2" d="M286.939,-143.878C276.352,-125.913 259.153,-96.8825 244,-72 238.56,-63.0678 232.533,-53.3401 227.135,-44.6852"/>
<polygon fill="grey" stroke="grey" stroke-width="2" points="230.056,-42.7559 221.787,-36.1326 224.121,-46.4672 230.056,-42.7559"/>
</g>
<!-- 7 -->
<g id="node8" class="node"><title>7</title>
<path fill="none" stroke="#d86e56" stroke-width="2" d="M367.5,-108C367.5,-108 334.5,-108 334.5,-108 328.5,-108 322.5,-102 322.5,-96 322.5,-96 322.5,-84 322.5,-84 322.5,-78 328.5,-72 334.5,-72 334.5,-72 367.5,-72 367.5,-72 373.5,-72 379.5,-78 379.5,-84 379.5,-84 379.5,-96 379.5,-96 379.5,-102 373.5,-108 367.5,-108"/>
<text text-anchor="middle" x="351" y="-87.5" font-family="sans" font-size="10.00">frip_plot</text>
</g>
<!-- 7&#45;&gt;0 -->
<g id="edge5" class="edge"><title>7&#45;&gt;0</title>
<path fill="none" stroke="grey" stroke-width="2" d="M322.331,-74.6655C300.675,-63.8377 270.798,-48.8988 247.446,-37.2228"/>
<polygon fill="grey" stroke="grey" stroke-width="2" points="248.713,-33.9435 238.204,-32.6018 245.583,-40.2045 248.713,-33.9435"/>
</g>
<!-- 8 -->
<g id="node9" class="node"><title>8</title>
<path fill="none" stroke="#56d8c9" stroke-width="2" d="M482.5,-108C482.5,-108 439.5,-108 439.5,-108 433.5,-108 427.5,-102 427.5,-96 427.5,-96 427.5,-84 427.5,-84 427.5,-78 433.5,-72 439.5,-72 439.5,-72 482.5,-72 482.5,-72 488.5,-72 494.5,-78 494.5,-84 494.5,-84 494.5,-96 494.5,-96 494.5,-102 488.5,-108 482.5,-108"/>
<text text-anchor="middle" x="461" y="-87.5" font-family="sans" font-size="10.00">deseq_init</text>
</g>
<!-- 8&#45;&gt;0 -->
<g id="edge1" class="edge"><title>8&#45;&gt;0</title>
<path fill="none" stroke="grey" stroke-width="2" d="M427.284,-79.5595C380.498,-66.4596 296.2,-42.856 247.819,-29.3092"/>
<polygon fill="grey" stroke="grey" stroke-width="2" points="248.64,-25.9046 238.066,-26.5786 246.752,-32.6453 248.64,-25.9046"/>
</g>
<!-- 9 -->
<g id="node10" class="node"><title>9</title>
<path fill="none" stroke="#56d8b1" stroke-width="2" d="M183,-972C183,-972 153,-972 153,-972 147,-972 141,-966 141,-960 141,-960 141,-948 141,-948 141,-942 147,-936 153,-936 153,-936 183,-936 183,-936 189,-936 195,-942 195,-948 195,-948 195,-960 195,-960 195,-966 189,-972 183,-972"/>
<text text-anchor="middle" x="168" y="-951.5" font-family="sans" font-size="10.00">align</text>
</g>
<!-- 9&#45;&gt;1 -->
<g id="edge9" class="edge"><title>9&#45;&gt;1</title>
<path fill="none" stroke="grey" stroke-width="2" d="M174.427,-935.697C177.355,-927.813 180.887,-918.304 184.14,-909.546"/>
<polygon fill="grey" stroke="grey" stroke-width="2" points="187.446,-910.697 187.647,-900.104 180.884,-908.26 187.446,-910.697"/>
</g>
<!-- 10&#45;&gt;2 -->
<g id="edge10" class="edge"><title>10&#45;&gt;2</title>
<path fill="none" stroke="grey" stroke-width="2" d="M236.844,-791.871C238.037,-767.67 240.229,-723.211 241.65,-694.393"/>
<polygon fill="grey" stroke="grey" stroke-width="2" points="245.156,-694.349 242.153,-684.189 238.164,-694.005 245.156,-694.349"/>
</g>
<!-- 11 -->
<g id="node12" class="node"><title>11</title>
<path fill="none" stroke="#56b1d8" stroke-width="2" d="M107,-1044C107,-1044 69,-1044 69,-1044 63,-1044 57,-1038 57,-1032 57,-1032 57,-1020 57,-1020 57,-1014 63,-1008 69,-1008 69,-1008 107,-1008 107,-1008 113,-1008 119,-1014 119,-1020 119,-1020 119,-1032 119,-1032 119,-1038 113,-1044 107,-1044"/>
<text text-anchor="middle" x="88" y="-1023.5" font-family="sans" font-size="10.00">trimming</text>
</g>
<!-- 11&#45;&gt;3 -->
<g id="edge11" class="edge"><title>11&#45;&gt;3</title>
<path fill="none" stroke="grey" stroke-width="2" d="M80.642,-1007.87C70.1541,-983.457 50.8097,-938.426 38.4419,-909.635"/>
<polygon fill="grey" stroke="grey" stroke-width="2" points="41.547,-907.996 34.3841,-900.189 35.1153,-910.759 41.547,-907.996"/>
</g>
<!-- 11&#45;&gt;4 -->
<g id="edge12" class="edge"><title>11&#45;&gt;4</title>
<path fill="none" stroke="grey" stroke-width="2" d="M88,-1007.97C88,-960.291 88,-825.185 88,-766.63"/>
<polygon fill="grey" stroke="grey" stroke-width="2" points="91.5001,-766.306 88,-756.306 84.5001,-766.306 91.5001,-766.306"/>
</g>
<!-- 11&#45;&gt;9 -->
<g id="edge17" class="edge"><title>11&#45;&gt;9</title>
<path fill="none" stroke="grey" stroke-width="2" d="M107.775,-1007.7C117.754,-998.965 130.011,-988.24 140.857,-978.75"/>
<polygon fill="grey" stroke="grey" stroke-width="2" points="143.231,-981.323 148.452,-972.104 138.622,-976.055 143.231,-981.323"/>
</g>
<!-- 12 -->
<g id="node13" class="node"><title>12</title>
<path fill="none" stroke="#d8b456" stroke-width="2" d="M368,-540C368,-540 324,-540 324,-540 318,-540 312,-534 312,-528 312,-528 312,-516 312,-516 312,-510 318,-504 324,-504 324,-504 368,-504 368,-504 374,-504 380,-510 380,-516 380,-516 380,-528 380,-528 380,-534 374,-540 368,-540"/>
<text text-anchor="middle" x="346" y="-519.5" font-family="sans" font-size="10.00">shiftReads</text>
</g>
<!-- 12&#45;&gt;5 -->
<g id="edge13" class="edge"><title>12&#45;&gt;5</title>
<path fill="none" stroke="grey" stroke-width="2" d="M346,-503.697C346,-495.983 346,-486.712 346,-478.112"/>
<polygon fill="grey" stroke="grey" stroke-width="2" points="349.5,-478.104 346,-468.104 342.5,-478.104 349.5,-478.104"/>
</g>
<!-- 13&#45;&gt;7 -->
<g id="edge15" class="edge"><title>13&#45;&gt;7</title>
<path fill="none" stroke="grey" stroke-width="2" d="M357.439,-287.849C356.228,-250.832 353.361,-163.181 351.896,-118.386"/>
<polygon fill="grey" stroke="grey" stroke-width="2" points="355.389,-118.113 351.564,-108.232 348.393,-118.342 355.389,-118.113"/>
</g>
<!-- 14 -->
<g id="node15" class="node"><title>14</title>
<path fill="none" stroke="#d88556" stroke-width="2" d="M580,-180C580,-180 404,-180 404,-180 398,-180 392,-174 392,-168 392,-168 392,-156 392,-156 392,-150 398,-144 404,-144 404,-144 580,-144 580,-144 586,-144 592,-150 592,-156 592,-156 592,-168 592,-168 592,-174 586,-180 580,-180"/>
<text text-anchor="middle" x="492" y="-159.5" font-family="sans" font-size="10.00">merge_catalog_counts_no_downsmpl</text>
</g>
<!-- 14&#45;&gt;8 -->
<g id="edge16" class="edge"><title>14&#45;&gt;8</title>
<path fill="none" stroke="grey" stroke-width="2" d="M484.337,-143.697C480.808,-135.728 476.544,-126.1 472.631,-117.264"/>
<polygon fill="grey" stroke="grey" stroke-width="2" points="475.824,-115.831 468.575,-108.104 469.424,-118.665 475.824,-115.831"/>
</g>
<!-- 15 -->
<g id="node16" class="node"><title>15</title>
<path fill="none" stroke="#9fd856" stroke-width="2" d="M407.5,-684C407.5,-684 334.5,-684 334.5,-684 328.5,-684 322.5,-678 322.5,-672 322.5,-672 322.5,-660 322.5,-660 322.5,-654 328.5,-648 334.5,-648 334.5,-648 407.5,-648 407.5,-648 413.5,-648 419.5,-654 419.5,-660 419.5,-660 419.5,-672 419.5,-672 419.5,-678 413.5,-684 407.5,-684"/>
<text text-anchor="middle" x="371" y="-663.5" font-family="sans" font-size="10.00">samtoolsQuality</text>
</g>
<!-- 15&#45;&gt;12 -->
<g id="edge20" class="edge"><title>15&#45;&gt;12</title>
<path fill="none" stroke="grey" stroke-width="2" d="M362.491,-647.791C357.904,-637.637 352.654,-624.387 350,-612 345.653,-591.711 344.763,-568.245 344.901,-550.504"/>
<polygon fill="grey" stroke="grey" stroke-width="2" points="348.405,-550.342 345.098,-540.277 341.406,-550.207 348.405,-550.342"/>
</g>
<!-- 16 -->
<g id="node17" class="node"><title>16</title>
<path fill="none" stroke="#b6d856" stroke-width="2" d="M401,-612C401,-612 371,-612 371,-612 365,-612 359,-606 359,-600 359,-600 359,-588 359,-588 359,-582 365,-576 371,-576 371,-576 401,-576 401,-576 407,-576 413,-582 413,-588 413,-588 413,-600 413,-600 413,-606 407,-612 401,-612"/>
<text text-anchor="middle" x="386" y="-591.5" font-family="sans" font-size="10.00">index</text>
</g>
<!-- 15&#45;&gt;16 -->
<g id="edge25" class="edge"><title>15&#45;&gt;16</title>
<path fill="none" stroke="grey" stroke-width="2" d="M374.708,-647.697C376.361,-639.983 378.347,-630.712 380.19,-622.112"/>
<polygon fill="grey" stroke="grey" stroke-width="2" points="383.662,-622.616 382.335,-612.104 376.817,-621.149 383.662,-622.616"/>
</g>
<!-- 16&#45;&gt;12 -->
<g id="edge19" class="edge"><title>16&#45;&gt;12</title>
<path fill="none" stroke="grey" stroke-width="2" d="M376.112,-575.697C371.511,-567.644 365.94,-557.894 360.847,-548.982"/>
<polygon fill="grey" stroke="grey" stroke-width="2" points="363.774,-547.05 355.774,-540.104 357.696,-550.523 363.774,-547.05"/>
</g>
<!-- 17&#45;&gt;13 -->
<g id="edge21" class="edge"><title>17&#45;&gt;13</title>
<path fill="none" stroke="grey" stroke-width="2" d="M414.461,-359.697C405.197,-351.05 393.838,-340.449 383.743,-331.027"/>
<polygon fill="grey" stroke="grey" stroke-width="2" points="386.025,-328.369 376.326,-324.104 381.249,-333.486 386.025,-328.369"/>
</g>
<!-- 20 -->
<g id="node21" class="node"><title>20</title>
<path fill="none" stroke="#d89c56" stroke-width="2" d="M551.5,-324C551.5,-324 420.5,-324 420.5,-324 414.5,-324 408.5,-318 408.5,-312 408.5,-312 408.5,-300 408.5,-300 408.5,-294 414.5,-288 420.5,-288 420.5,-288 551.5,-288 551.5,-288 557.5,-288 563.5,-294 563.5,-300 563.5,-300 563.5,-312 563.5,-312 563.5,-318 557.5,-324 551.5,-324"/>
<text text-anchor="middle" x="486" y="-303.5" font-family="sans" font-size="10.00">peak_catalog_no_downsmpl</text>
</g>
<!-- 17&#45;&gt;20 -->
<g id="edge30" class="edge"><title>17&#45;&gt;20</title>
<path fill="none" stroke="grey" stroke-width="2" d="M446.101,-359.697C452.391,-351.389 460.047,-341.277 466.965,-332.141"/>
<polygon fill="grey" stroke="grey" stroke-width="2" points="469.804,-334.19 473.05,-324.104 464.223,-329.964 469.804,-334.19"/>
</g>
<!-- 18&#45;&gt;14 -->
<g id="edge23" class="edge"><title>18&#45;&gt;14</title>
<path fill="none" stroke="grey" stroke-width="2" d="M492,-215.697C492,-207.983 492,-198.712 492,-190.112"/>
<polygon fill="grey" stroke="grey" stroke-width="2" points="495.5,-190.104 492,-180.104 488.5,-190.104 495.5,-190.104"/>
</g>
<!-- 19 -->
<g id="node20" class="node"><title>19</title>
<path fill="none" stroke="#59d856" stroke-width="2" d="M383,-756C383,-756 353,-756 353,-756 347,-756 341,-750 341,-744 341,-744 341,-732 341,-732 341,-726 347,-720 353,-720 353,-720 383,-720 383,-720 389,-720 395,-726 395,-732 395,-732 395,-744 395,-744 395,-750 389,-756 383,-756"/>
<text text-anchor="middle" x="368" y="-735.5" font-family="sans" font-size="10.00">dedup</text>
</g>
<!-- 19&#45;&gt;15 -->
<g id="edge24" class="edge"><title>19&#45;&gt;15</title>
<path fill="none" stroke="grey" stroke-width="2" d="M368.742,-719.697C369.072,-711.983 369.469,-702.712 369.838,-694.112"/>
<polygon fill="grey" stroke="grey" stroke-width="2" points="373.335,-694.245 370.267,-684.104 366.342,-693.945 373.335,-694.245"/>
</g>
<!-- 20&#45;&gt;18 -->
<g id="edge28" class="edge"><title>20&#45;&gt;18</title>
<path fill="none" stroke="grey" stroke-width="2" d="M487.483,-287.697C488.144,-279.983 488.939,-270.712 489.676,-262.112"/>
<polygon fill="grey" stroke="grey" stroke-width="2" points="493.167,-262.367 490.534,-252.104 486.193,-261.769 493.167,-262.367"/>
</g>
<!-- 21&#45;&gt;19 -->
<g id="edge29" class="edge"><title>21&#45;&gt;19</title>
<path fill="none" stroke="grey" stroke-width="2" d="M365.742,-791.697C366.072,-783.983 366.469,-774.712 366.838,-766.112"/>
<polygon fill="grey" stroke="grey" stroke-width="2" points="370.335,-766.245 367.267,-756.104 363.342,-765.945 370.335,-766.245"/>
</g>
</g>
</svg>
