<?xml version="1.0" encoding="UTF-8" standalone="no"?>
<!DOCTYPE svg PUBLIC "-//W3C//DTD SVG 1.1//EN"
 "http://www.w3.org/Graphics/SVG/1.1/DTD/svg11.dtd">
<!-- Generated by graphviz version 2.38.0 (20140413.2041)
 -->
<!-- Title: snakemake_dag Pages: 1 -->
<svg width="480pt" height="908pt"
 viewBox="0.00 0.00 479.50 908.00" xmlns="http://www.w3.org/2000/svg" xmlns:xlink="http://www.w3.org/1999/xlink">
<g id="graph0" class="graph" transform="scale(1 1) rotate(0) translate(4 904)">
<title>snakemake_dag</title>
<polygon fill="white" stroke="none" points="-4,4 -4,-904 475.5,-904 475.5,4 -4,4"/>
<!-- 0 -->
<g id="node1" class="node"><title>0</title>
<path fill="none" stroke="#56d8c9" stroke-width="2" d="M207,-36C207,-36 177,-36 177,-36 171,-36 165,-30 165,-24 165,-24 165,-12 165,-12 165,-6 171,-0 177,-0 177,-0 207,-0 207,-0 213,-0 219,-6 219,-12 219,-12 219,-24 219,-24 219,-30 213,-36 207,-36"/>
<text text-anchor="middle" x="192" y="-15.5" font-family="sans" font-size="10.00">all</text>
</g>
<!-- 1 -->
<g id="node2" class="node"><title>1</title>
<path fill="none" stroke="#5673d8" stroke-width="2" d="M210.5,-756C210.5,-756 177.5,-756 177.5,-756 171.5,-756 165.5,-750 165.5,-744 165.5,-744 165.5,-732 165.5,-732 165.5,-726 171.5,-720 177.5,-720 177.5,-720 210.5,-720 210.5,-720 216.5,-720 222.5,-726 222.5,-732 222.5,-732 222.5,-744 222.5,-744 222.5,-750 216.5,-756 210.5,-756"/>
<text text-anchor="middle" x="194" y="-735.5" font-family="sans" font-size="10.00">sortbam</text>
</g>
<!-- 1&#45;&gt;0 -->
<g id="edge7" class="edge"><title>1&#45;&gt;0</title>
<path fill="none" stroke="grey" stroke-width="2" d="M186.952,-719.622C183.102,-709.413 178.602,-696.163 176,-684 154.238,-582.286 154,-555.016 154,-451 154,-451 154,-451 154,-161 154,-119.633 169.235,-73.7216 180.412,-45.6051"/>
<polygon fill="grey" stroke="grey" stroke-width="2" points="183.756,-46.6733 184.31,-36.0929 177.279,-44.0187 183.756,-46.6733"/>
</g>
<!-- 9 -->
<g id="node10" class="node"><title>9</title>
<path fill="none" stroke="#56d892" stroke-width="2" d="M271,-684C271,-684 197,-684 197,-684 191,-684 185,-678 185,-672 185,-672 185,-660 185,-660 185,-654 191,-648 197,-648 197,-648 271,-648 271,-648 277,-648 283,-654 283,-660 283,-660 283,-672 283,-672 283,-678 277,-684 271,-684"/>
<text text-anchor="middle" x="234" y="-663.5" font-family="sans" font-size="10.00">fragment_length</text>
</g>
<!-- 1&#45;&gt;9 -->
<g id="edge16" class="edge"><title>1&#45;&gt;9</title>
<path fill="none" stroke="grey" stroke-width="2" d="M203.888,-719.697C208.489,-711.644 214.06,-701.894 219.153,-692.982"/>
<polygon fill="grey" stroke="grey" stroke-width="2" points="222.304,-694.523 224.226,-684.104 216.226,-691.05 222.304,-694.523"/>
</g>
<!-- 17 -->
<g id="node18" class="node"><title>17</title>
<path fill="none" stroke="#56d8a9" stroke-width="2" d="M412,-684C412,-684 316,-684 316,-684 310,-684 304,-678 304,-672 304,-672 304,-660 304,-660 304,-654 310,-648 316,-648 316,-648 412,-648 412,-648 418,-648 424,-654 424,-660 424,-660 424,-672 424,-672 424,-678 418,-684 412,-684"/>
<text text-anchor="middle" x="364" y="-663.5" font-family="sans" font-size="10.00">removeMitochondrial</text>
</g>
<!-- 1&#45;&gt;17 -->
<g id="edge25" class="edge"><title>1&#45;&gt;17</title>
<path fill="none" stroke="grey" stroke-width="2" d="M222.838,-725.125C247.542,-714.953 283.701,-700.064 313.237,-687.902"/>
<polygon fill="grey" stroke="grey" stroke-width="2" points="314.657,-691.103 322.571,-684.059 311.992,-684.63 314.657,-691.103"/>
</g>
<!-- 2 -->
<g id="node3" class="node"><title>2</title>
<path fill="none" stroke="#56d87b" stroke-width="2" d="M292,-540C292,-540 194,-540 194,-540 188,-540 182,-534 182,-528 182,-528 182,-516 182,-516 182,-510 188,-504 194,-504 194,-504 292,-504 292,-504 298,-504 304,-510 304,-516 304,-516 304,-528 304,-528 304,-534 298,-540 292,-540"/>
<text text-anchor="middle" x="243" y="-519.5" font-family="sans" font-size="10.00">fragment_length_plot</text>
</g>
<!-- 2&#45;&gt;0 -->
<g id="edge1" class="edge"><title>2&#45;&gt;0</title>
<path fill="none" stroke="grey" stroke-width="2" d="M232.433,-503.786C217.495,-477.765 192,-426.412 192,-379 192,-379 192,-379 192,-161 192,-120.996 192,-74.6528 192,-46.0798"/>
<polygon fill="grey" stroke="grey" stroke-width="2" points="195.5,-46.0492 192,-36.0493 188.5,-46.0493 195.5,-46.0492"/>
</g>
<!-- 3 -->
<g id="node4" class="node"><title>3</title>
<path fill="none" stroke="#56a2d8" stroke-width="2" d="M42,-756C42,-756 12,-756 12,-756 6,-756 0,-750 0,-744 0,-744 0,-732 0,-732 0,-726 6,-720 12,-720 12,-720 42,-720 42,-720 48,-720 54,-726 54,-732 54,-732 54,-744 54,-744 54,-750 48,-756 42,-756"/>
<text text-anchor="middle" x="27" y="-735.5" font-family="sans" font-size="10.00">fastqc</text>
</g>
<!-- 3&#45;&gt;0 -->
<g id="edge6" class="edge"><title>3&#45;&gt;0</title>
<path fill="none" stroke="grey" stroke-width="2" d="M25.617,-719.964C23.577,-693.323 20,-640.169 20,-595 20,-595 20,-595 20,-161 20,-91.4807 104.592,-49.6309 155.128,-30.8321"/>
<polygon fill="grey" stroke="grey" stroke-width="2" points="156.517,-34.0521 164.746,-27.3784 154.152,-27.464 156.517,-34.0521"/>
</g>
<!-- 4 -->
<g id="node5" class="node"><title>4</title>
<path fill="none" stroke="#d8d356" stroke-width="2" d="M115.5,-612C115.5,-612 60.5,-612 60.5,-612 54.5,-612 48.5,-606 48.5,-600 48.5,-600 48.5,-588 48.5,-588 48.5,-582 54.5,-576 60.5,-576 60.5,-576 115.5,-576 115.5,-576 121.5,-576 127.5,-582 127.5,-588 127.5,-588 127.5,-600 127.5,-600 127.5,-606 121.5,-612 115.5,-612"/>
<text text-anchor="middle" x="88" y="-591.5" font-family="sans" font-size="10.00">fastq_screen</text>
</g>
<!-- 4&#45;&gt;0 -->
<g id="edge2" class="edge"><title>4&#45;&gt;0</title>
<path fill="none" stroke="grey" stroke-width="2" d="M90.3708,-575.99C93.868,-549.383 100,-496.275 100,-451 100,-451 100,-451 100,-161 100,-113.475 136.746,-69.3044 163.791,-43.2302"/>
<polygon fill="grey" stroke="grey" stroke-width="2" points="166.214,-45.7566 171.124,-36.3681 161.431,-40.6456 166.214,-45.7566"/>
</g>
<!-- 5 -->
<g id="node6" class="node"><title>5</title>
<path fill="none" stroke="#56d0d8" stroke-width="2" d="M342.5,-324C342.5,-324 303.5,-324 303.5,-324 297.5,-324 291.5,-318 291.5,-312 291.5,-312 291.5,-300 291.5,-300 291.5,-294 297.5,-288 303.5,-288 303.5,-288 342.5,-288 342.5,-288 348.5,-288 354.5,-294 354.5,-300 354.5,-300 354.5,-312 354.5,-312 354.5,-318 348.5,-324 342.5,-324"/>
<text text-anchor="middle" x="323" y="-303.5" font-family="sans" font-size="10.00">sortbam2</text>
</g>
<!-- 5&#45;&gt;0 -->
<g id="edge5" class="edge"><title>5&#45;&gt;0</title>
<path fill="none" stroke="grey" stroke-width="2" d="M311.345,-287.788C295.727,-264.211 267.801,-220.207 249,-180 227.694,-134.434 209.595,-78.56 199.809,-46.0477"/>
<polygon fill="grey" stroke="grey" stroke-width="2" points="203.133,-44.945 196.931,-36.3554 196.423,-46.938 203.133,-44.945"/>
</g>
<!-- 6 -->
<g id="node7" class="node"><title>6</title>
<path fill="none" stroke="#97d856" stroke-width="2" d="M323.5,-180C323.5,-180 270.5,-180 270.5,-180 264.5,-180 258.5,-174 258.5,-168 258.5,-168 258.5,-156 258.5,-156 258.5,-150 264.5,-144 270.5,-144 270.5,-144 323.5,-144 323.5,-144 329.5,-144 335.5,-150 335.5,-156 335.5,-156 335.5,-168 335.5,-168 335.5,-174 329.5,-180 323.5,-180"/>
<text text-anchor="middle" x="297" y="-159.5" font-family="sans" font-size="10.00">makeBigwig</text>
</g>
<!-- 5&#45;&gt;6 -->
<g id="edge13" class="edge"><title>5&#45;&gt;6</title>
<path fill="none" stroke="grey" stroke-width="2" d="M319.269,-287.847C317.058,-277.486 314.257,-264.006 312,-252 308.117,-231.34 304.184,-207.892 301.32,-190.252"/>
<polygon fill="grey" stroke="grey" stroke-width="2" points="304.73,-189.412 299.685,-180.096 297.819,-190.525 304.73,-189.412"/>
</g>
<!-- 12 -->
<g id="node13" class="node"><title>12</title>
<path fill="none" stroke="#d88556" stroke-width="2" d="M406.5,-180C406.5,-180 365.5,-180 365.5,-180 359.5,-180 353.5,-174 353.5,-168 353.5,-168 353.5,-156 353.5,-156 353.5,-150 359.5,-144 365.5,-144 365.5,-144 406.5,-144 406.5,-144 412.5,-144 418.5,-150 418.5,-156 418.5,-156 418.5,-168 418.5,-168 418.5,-174 412.5,-180 406.5,-180"/>
<text text-anchor="middle" x="386" y="-159.5" font-family="sans" font-size="10.00">frip_count</text>
</g>
<!-- 5&#45;&gt;12 -->
<g id="edge20" class="edge"><title>5&#45;&gt;12</title>
<path fill="none" stroke="grey" stroke-width="2" d="M325.079,-287.884C327.804,-269.416 333.637,-239.5 345,-216 349.71,-206.26 356.408,-196.602 363.029,-188.252"/>
<polygon fill="grey" stroke="grey" stroke-width="2" points="365.864,-190.317 369.548,-180.383 360.473,-185.851 365.864,-190.317"/>
</g>
<!-- 15 -->
<g id="node16" class="node"><title>15</title>
<path fill="none" stroke="#afd856" stroke-width="2" d="M459.5,-252C459.5,-252 366.5,-252 366.5,-252 360.5,-252 354.5,-246 354.5,-240 354.5,-240 354.5,-228 354.5,-228 354.5,-222 360.5,-216 366.5,-216 366.5,-216 459.5,-216 459.5,-216 465.5,-216 471.5,-222 471.5,-228 471.5,-228 471.5,-240 471.5,-240 471.5,-246 465.5,-252 459.5,-252"/>
<text text-anchor="middle" x="413" y="-231.5" font-family="sans" font-size="10.00">MACS_no_downsmpl</text>
</g>
<!-- 5&#45;&gt;15 -->
<g id="edge23" class="edge"><title>5&#45;&gt;15</title>
<path fill="none" stroke="grey" stroke-width="2" d="M345.247,-287.697C356.582,-278.881 370.53,-268.032 382.819,-258.474"/>
<polygon fill="grey" stroke="grey" stroke-width="2" points="385.264,-261.007 391.009,-252.104 380.966,-255.481 385.264,-261.007"/>
</g>
<!-- 6&#45;&gt;0 -->
<g id="edge4" class="edge"><title>6&#45;&gt;0</title>
<path fill="none" stroke="grey" stroke-width="2" d="M288.359,-143.83C278.689,-125.318 262.001,-95.3627 244,-72 236.333,-62.049 226.967,-51.9937 218.308,-43.3556"/>
<polygon fill="grey" stroke="grey" stroke-width="2" points="220.542,-40.6457 210.94,-36.1676 215.654,-45.6562 220.542,-40.6457"/>
</g>
<!-- 7 -->
<g id="node8" class="node"><title>7</title>
<path fill="none" stroke="#78d856" stroke-width="2" d="M378.5,-108C378.5,-108 345.5,-108 345.5,-108 339.5,-108 333.5,-102 333.5,-96 333.5,-96 333.5,-84 333.5,-84 333.5,-78 339.5,-72 345.5,-72 345.5,-72 378.5,-72 378.5,-72 384.5,-72 390.5,-78 390.5,-84 390.5,-84 390.5,-96 390.5,-96 390.5,-102 384.5,-108 378.5,-108"/>
<text text-anchor="middle" x="362" y="-87.5" font-family="sans" font-size="10.00">frip_plot</text>
</g>
<!-- 7&#45;&gt;0 -->
<g id="edge3" class="edge"><title>7&#45;&gt;0</title>
<path fill="none" stroke="grey" stroke-width="2" d="M333.162,-77.1255C304.231,-65.2126 259.588,-46.8302 228.271,-33.9351"/>
<polygon fill="grey" stroke="grey" stroke-width="2" points="229.591,-30.6937 219.012,-30.1225 226.926,-37.1665 229.591,-30.6937"/>
</g>
<!-- 8 -->
<g id="node9" class="node"><title>8</title>
<path fill="none" stroke="#61d856" stroke-width="2" d="M183,-828C183,-828 153,-828 153,-828 147,-828 141,-822 141,-816 141,-816 141,-804 141,-804 141,-798 147,-792 153,-792 153,-792 183,-792 183,-792 189,-792 195,-798 195,-804 195,-804 195,-816 195,-816 195,-822 189,-828 183,-828"/>
<text text-anchor="middle" x="168" y="-807.5" font-family="sans" font-size="10.00">align</text>
</g>
<!-- 8&#45;&gt;1 -->
<g id="edge8" class="edge"><title>8&#45;&gt;1</title>
<path fill="none" stroke="grey" stroke-width="2" d="M174.427,-791.697C177.355,-783.813 180.887,-774.304 184.14,-765.546"/>
<polygon fill="grey" stroke="grey" stroke-width="2" points="187.446,-766.697 187.647,-756.104 180.884,-764.26 187.446,-766.697"/>
</g>
<!-- 9&#45;&gt;2 -->
<g id="edge9" class="edge"><title>9&#45;&gt;2</title>
<path fill="none" stroke="grey" stroke-width="2" d="M235.086,-647.871C236.619,-623.67 239.437,-579.211 241.264,-550.393"/>
<polygon fill="grey" stroke="grey" stroke-width="2" points="244.771,-550.391 241.911,-540.189 237.785,-549.948 244.771,-550.391"/>
</g>
<!-- 10 -->
<g id="node11" class="node"><title>10</title>
<path fill="none" stroke="#d8a456" stroke-width="2" d="M107,-900C107,-900 69,-900 69,-900 63,-900 57,-894 57,-888 57,-888 57,-876 57,-876 57,-870 63,-864 69,-864 69,-864 107,-864 107,-864 113,-864 119,-870 119,-876 119,-876 119,-888 119,-888 119,-894 113,-900 107,-900"/>
<text text-anchor="middle" x="88" y="-879.5" font-family="sans" font-size="10.00">trimming</text>
</g>
<!-- 10&#45;&gt;3 -->
<g id="edge10" class="edge"><title>10&#45;&gt;3</title>
<path fill="none" stroke="grey" stroke-width="2" d="M80.642,-863.871C70.1541,-839.457 50.8097,-794.426 38.4419,-765.635"/>
<polygon fill="grey" stroke="grey" stroke-width="2" points="41.547,-763.996 34.3841,-756.189 35.1153,-766.759 41.547,-763.996"/>
</g>
<!-- 10&#45;&gt;4 -->
<g id="edge11" class="edge"><title>10&#45;&gt;4</title>
<path fill="none" stroke="grey" stroke-width="2" d="M88,-863.966C88,-816.291 88,-681.185 88,-622.63"/>
<polygon fill="grey" stroke="grey" stroke-width="2" points="91.5001,-622.306 88,-612.306 84.5001,-622.306 91.5001,-622.306"/>
</g>
<!-- 10&#45;&gt;8 -->
<g id="edge15" class="edge"><title>10&#45;&gt;8</title>
<path fill="none" stroke="grey" stroke-width="2" d="M107.775,-863.697C117.754,-854.965 130.011,-844.24 140.857,-834.75"/>
<polygon fill="grey" stroke="grey" stroke-width="2" points="143.231,-837.323 148.452,-828.104 138.622,-832.055 143.231,-837.323"/>
</g>
<!-- 11 -->
<g id="node12" class="node"><title>11</title>
<path fill="none" stroke="#d85656" stroke-width="2" d="M345,-396C345,-396 301,-396 301,-396 295,-396 289,-390 289,-384 289,-384 289,-372 289,-372 289,-366 295,-360 301,-360 301,-360 345,-360 345,-360 351,-360 357,-366 357,-372 357,-372 357,-384 357,-384 357,-390 351,-396 345,-396"/>
<text text-anchor="middle" x="323" y="-375.5" font-family="sans" font-size="10.00">shiftReads</text>
</g>
<!-- 11&#45;&gt;5 -->
<g id="edge12" class="edge"><title>11&#45;&gt;5</title>
<path fill="none" stroke="grey" stroke-width="2" d="M323,-359.697C323,-351.983 323,-342.712 323,-334.112"/>
<polygon fill="grey" stroke="grey" stroke-width="2" points="326.5,-334.104 323,-324.104 319.5,-334.104 326.5,-334.104"/>
</g>
<!-- 12&#45;&gt;7 -->
<g id="edge14" class="edge"><title>12&#45;&gt;7</title>
<path fill="none" stroke="grey" stroke-width="2" d="M380.067,-143.697C377.394,-135.898 374.174,-126.509 371.199,-117.829"/>
<polygon fill="grey" stroke="grey" stroke-width="2" points="374.418,-116.429 367.864,-108.104 367.797,-118.699 374.418,-116.429"/>
</g>
<!-- 13 -->
<g id="node14" class="node"><title>13</title>
<path fill="none" stroke="#c6d856" stroke-width="2" d="M407.5,-540C407.5,-540 334.5,-540 334.5,-540 328.5,-540 322.5,-534 322.5,-528 322.5,-528 322.5,-516 322.5,-516 322.5,-510 328.5,-504 334.5,-504 334.5,-504 407.5,-504 407.5,-504 413.5,-504 419.5,-510 419.5,-516 419.5,-516 419.5,-528 419.5,-528 419.5,-534 413.5,-540 407.5,-540"/>
<text text-anchor="middle" x="371" y="-519.5" font-family="sans" font-size="10.00">samtoolsQuality</text>
</g>
<!-- 13&#45;&gt;11 -->
<g id="edge17" class="edge"><title>13&#45;&gt;11</title>
<path fill="none" stroke="grey" stroke-width="2" d="M357.387,-503.84C350.207,-493.916 341.894,-480.876 337,-468 329.464,-448.171 325.983,-424.373 324.376,-406.377"/>
<polygon fill="grey" stroke="grey" stroke-width="2" points="327.856,-405.976 323.614,-396.267 320.876,-406.502 327.856,-405.976"/>
</g>
<!-- 14 -->
<g id="node15" class="node"><title>14</title>
<path fill="none" stroke="#568ad8" stroke-width="2" d="M388,-468C388,-468 358,-468 358,-468 352,-468 346,-462 346,-456 346,-456 346,-444 346,-444 346,-438 352,-432 358,-432 358,-432 388,-432 388,-432 394,-432 400,-438 400,-444 400,-444 400,-456 400,-456 400,-462 394,-468 388,-468"/>
<text text-anchor="middle" x="373" y="-447.5" font-family="sans" font-size="10.00">index</text>
</g>
<!-- 13&#45;&gt;14 -->
<g id="edge22" class="edge"><title>13&#45;&gt;14</title>
<path fill="none" stroke="grey" stroke-width="2" d="M371.494,-503.697C371.715,-495.983 371.98,-486.712 372.225,-478.112"/>
<polygon fill="grey" stroke="grey" stroke-width="2" points="375.724,-478.2 372.511,-468.104 368.727,-478 375.724,-478.2"/>
</g>
<!-- 14&#45;&gt;11 -->
<g id="edge18" class="edge"><title>14&#45;&gt;11</title>
<path fill="none" stroke="grey" stroke-width="2" d="M360.64,-431.697C354.767,-423.474 347.631,-413.483 341.158,-404.421"/>
<polygon fill="grey" stroke="grey" stroke-width="2" points="343.878,-402.207 335.217,-396.104 338.182,-406.276 343.878,-402.207"/>
</g>
<!-- 15&#45;&gt;12 -->
<g id="edge19" class="edge"><title>15&#45;&gt;12</title>
<path fill="none" stroke="grey" stroke-width="2" d="M406.326,-215.697C403.285,-207.813 399.617,-198.304 396.239,-189.546"/>
<polygon fill="grey" stroke="grey" stroke-width="2" points="399.462,-188.175 392.597,-180.104 392.931,-190.694 399.462,-188.175"/>
</g>
<!-- 16 -->
<g id="node17" class="node"><title>16</title>
<path fill="none" stroke="#d86e56" stroke-width="2" d="M382,-612C382,-612 352,-612 352,-612 346,-612 340,-606 340,-600 340,-600 340,-588 340,-588 340,-582 346,-576 352,-576 352,-576 382,-576 382,-576 388,-576 394,-582 394,-588 394,-588 394,-600 394,-600 394,-606 388,-612 382,-612"/>
<text text-anchor="middle" x="367" y="-591.5" font-family="sans" font-size="10.00">dedup</text>
</g>
<!-- 16&#45;&gt;13 -->
<g id="edge21" class="edge"><title>16&#45;&gt;13</title>
<path fill="none" stroke="grey" stroke-width="2" d="M367.989,-575.697C368.43,-567.983 368.959,-558.712 369.451,-550.112"/>
<polygon fill="grey" stroke="grey" stroke-width="2" points="372.946,-550.288 370.023,-540.104 365.958,-549.888 372.946,-550.288"/>
</g>
<!-- 17&#45;&gt;16 -->
<g id="edge24" class="edge"><title>17&#45;&gt;16</title>
<path fill="none" stroke="grey" stroke-width="2" d="M364.742,-647.697C365.072,-639.983 365.469,-630.712 365.838,-622.112"/>
<polygon fill="grey" stroke="grey" stroke-width="2" points="369.335,-622.245 366.267,-612.104 362.342,-621.945 369.335,-622.245"/>
</g>
</g>
</svg>
