<?xml version="1.0" encoding="UTF-8" standalone="no"?>
<!DOCTYPE svg PUBLIC "-//W3C//DTD SVG 1.1//EN"
 "http://www.w3.org/Graphics/SVG/1.1/DTD/svg11.dtd">
<!-- Generated by graphviz version 2.38.0 (20140413.2041)
 -->
<!-- Title: snakemake_dag Pages: 1 -->
<svg width="314pt" height="404pt"
 viewBox="0.00 0.00 314.00 404.00" xmlns="http://www.w3.org/2000/svg" xmlns:xlink="http://www.w3.org/1999/xlink">
<g id="graph0" class="graph" transform="scale(1 1) rotate(0) translate(4 400)">
<title>snakemake_dag</title>
<polygon fill="white" stroke="none" points="-4,4 -4,-400 310,-400 310,4 -4,4"/>
<!-- 0 -->
<g id="node1" class="node"><title>0</title>
<path fill="none" stroke="#56d89a" stroke-width="2" d="M152,-36C152,-36 122,-36 122,-36 116,-36 110,-30 110,-24 110,-24 110,-12 110,-12 110,-6 116,-0 122,-0 122,-0 152,-0 152,-0 158,-0 164,-6 164,-12 164,-12 164,-24 164,-24 164,-30 158,-36 152,-36"/>
<text text-anchor="middle" x="137" y="-15.5" font-family="sans" font-size="10.00">all</text>
</g>
<!-- 1 -->
<g id="node2" class="node"><title>1</title>
<path fill="none" stroke="#56d8d8" stroke-width="2" d="M172.5,-252C172.5,-252 139.5,-252 139.5,-252 133.5,-252 127.5,-246 127.5,-240 127.5,-240 127.5,-228 127.5,-228 127.5,-222 133.5,-216 139.5,-216 139.5,-216 172.5,-216 172.5,-216 178.5,-216 184.5,-222 184.5,-228 184.5,-228 184.5,-240 184.5,-240 184.5,-246 178.5,-252 172.5,-252"/>
<text text-anchor="middle" x="156" y="-231.5" font-family="sans" font-size="10.00">sortbam</text>
</g>
<!-- 1&#45;&gt;0 -->
<g id="edge1" class="edge"><title>1&#45;&gt;0</title>
<path fill="none" stroke="grey" stroke-width="2" d="M154.477,-215.849C151.191,-178.832 143.409,-91.1809 139.431,-46.3863"/>
<polygon fill="grey" stroke="grey" stroke-width="2" points="142.901,-45.8837 138.53,-36.2325 135.928,-46.5028 142.901,-45.8837"/>
</g>
<!-- 6 -->
<g id="node7" class="node"><title>6</title>
<path fill="none" stroke="#569ad8" stroke-width="2" d="M276,-180C276,-180 202,-180 202,-180 196,-180 190,-174 190,-168 190,-168 190,-156 190,-156 190,-150 196,-144 202,-144 202,-144 276,-144 276,-144 282,-144 288,-150 288,-156 288,-156 288,-168 288,-168 288,-174 282,-180 276,-180"/>
<text text-anchor="middle" x="239" y="-159.5" font-family="sans" font-size="10.00">fragment_length</text>
</g>
<!-- 1&#45;&gt;6 -->
<g id="edge10" class="edge"><title>1&#45;&gt;6</title>
<path fill="none" stroke="grey" stroke-width="2" d="M176.517,-215.697C186.869,-206.965 199.586,-196.24 210.839,-186.75"/>
<polygon fill="grey" stroke="grey" stroke-width="2" points="213.331,-189.227 218.719,-180.104 208.818,-183.876 213.331,-189.227"/>
</g>
<!-- 2 -->
<g id="node3" class="node"><title>2</title>
<path fill="none" stroke="#d85656" stroke-width="2" d="M294,-108C294,-108 196,-108 196,-108 190,-108 184,-102 184,-96 184,-96 184,-84 184,-84 184,-78 190,-72 196,-72 196,-72 294,-72 294,-72 300,-72 306,-78 306,-84 306,-84 306,-96 306,-96 306,-102 300,-108 294,-108"/>
<text text-anchor="middle" x="245" y="-87.5" font-family="sans" font-size="10.00">fragment_length_plot</text>
</g>
<!-- 2&#45;&gt;0 -->
<g id="edge2" class="edge"><title>2&#45;&gt;0</title>
<path fill="none" stroke="grey" stroke-width="2" d="M218.58,-71.8761C204.59,-62.8083 187.224,-51.5523 172.114,-41.7592"/>
<polygon fill="grey" stroke="grey" stroke-width="2" points="173.817,-38.6917 163.521,-36.1898 170.009,-44.5658 173.817,-38.6917"/>
</g>
<!-- 3 -->
<g id="node4" class="node"><title>3</title>
<path fill="none" stroke="#d89556" stroke-width="2" d="M42,-252C42,-252 12,-252 12,-252 6,-252 0,-246 0,-240 0,-240 0,-228 0,-228 0,-222 6,-216 12,-216 12,-216 42,-216 42,-216 48,-216 54,-222 54,-228 54,-228 54,-240 54,-240 54,-246 48,-252 42,-252"/>
<text text-anchor="middle" x="27" y="-231.5" font-family="sans" font-size="10.00">fastqc</text>
</g>
<!-- 3&#45;&gt;0 -->
<g id="edge3" class="edge"><title>3&#45;&gt;0</title>
<path fill="none" stroke="grey" stroke-width="2" d="M26.6824,-215.905C26.9275,-197.457 29.0553,-167.556 39,-144 55.7422,-104.342 88.5064,-66.5698 111.527,-43.13"/>
<polygon fill="grey" stroke="grey" stroke-width="2" points="114.025,-45.5824 118.626,-36.0391 109.078,-40.6297 114.025,-45.5824"/>
</g>
<!-- 4 -->
<g id="node5" class="node"><title>4</title>
<path fill="none" stroke="#d6d856" stroke-width="2" d="M115.5,-180C115.5,-180 60.5,-180 60.5,-180 54.5,-180 48.5,-174 48.5,-168 48.5,-168 48.5,-156 48.5,-156 48.5,-150 54.5,-144 60.5,-144 60.5,-144 115.5,-144 115.5,-144 121.5,-144 127.5,-150 127.5,-156 127.5,-156 127.5,-168 127.5,-168 127.5,-174 121.5,-180 115.5,-180"/>
<text text-anchor="middle" x="88" y="-159.5" font-family="sans" font-size="10.00">fastq_screen</text>
</g>
<!-- 4&#45;&gt;0 -->
<g id="edge4" class="edge"><title>4&#45;&gt;0</title>
<path fill="none" stroke="grey" stroke-width="2" d="M93.9105,-143.871C102.298,-119.564 117.739,-74.8187 127.679,-46.0132"/>
<polygon fill="grey" stroke="grey" stroke-width="2" points="131.115,-46.784 131.068,-36.1893 124.498,-44.5006 131.115,-46.784"/>
</g>
<!-- 5 -->
<g id="node6" class="node"><title>5</title>
<path fill="none" stroke="#97d856" stroke-width="2" d="M164,-324C164,-324 134,-324 134,-324 128,-324 122,-318 122,-312 122,-312 122,-300 122,-300 122,-294 128,-288 134,-288 134,-288 164,-288 164,-288 170,-288 176,-294 176,-300 176,-300 176,-312 176,-312 176,-318 170,-324 164,-324"/>
<text text-anchor="middle" x="149" y="-303.5" font-family="sans" font-size="10.00">align</text>
</g>
<!-- 5&#45;&gt;1 -->
<g id="edge5" class="edge"><title>5&#45;&gt;1</title>
<path fill="none" stroke="grey" stroke-width="2" d="M150.73,-287.697C151.502,-279.983 152.429,-270.712 153.289,-262.112"/>
<polygon fill="grey" stroke="grey" stroke-width="2" points="156.777,-262.403 154.29,-252.104 149.812,-261.706 156.777,-262.403"/>
</g>
<!-- 6&#45;&gt;2 -->
<g id="edge6" class="edge"><title>6&#45;&gt;2</title>
<path fill="none" stroke="grey" stroke-width="2" d="M240.483,-143.697C241.144,-135.983 241.939,-126.712 242.676,-118.112"/>
<polygon fill="grey" stroke="grey" stroke-width="2" points="246.167,-118.367 243.534,-108.104 239.193,-117.769 246.167,-118.367"/>
</g>
<!-- 7 -->
<g id="node8" class="node"><title>7</title>
<path fill="none" stroke="#59d856" stroke-width="2" d="M107,-396C107,-396 69,-396 69,-396 63,-396 57,-390 57,-384 57,-384 57,-372 57,-372 57,-366 63,-360 69,-360 69,-360 107,-360 107,-360 113,-360 119,-366 119,-372 119,-372 119,-384 119,-384 119,-390 113,-396 107,-396"/>
<text text-anchor="middle" x="88" y="-375.5" font-family="sans" font-size="10.00">trimming</text>
</g>
<!-- 7&#45;&gt;3 -->
<g id="edge7" class="edge"><title>7&#45;&gt;3</title>
<path fill="none" stroke="grey" stroke-width="2" d="M80.642,-359.871C70.1541,-335.457 50.8097,-290.426 38.4419,-261.635"/>
<polygon fill="grey" stroke="grey" stroke-width="2" points="41.547,-259.996 34.3841,-252.189 35.1153,-262.759 41.547,-259.996"/>
</g>
<!-- 7&#45;&gt;4 -->
<g id="edge8" class="edge"><title>7&#45;&gt;4</title>
<path fill="none" stroke="grey" stroke-width="2" d="M88,-359.849C88,-322.832 88,-235.181 88,-190.386"/>
<polygon fill="grey" stroke="grey" stroke-width="2" points="91.5001,-190.232 88,-180.232 84.5001,-190.232 91.5001,-190.232"/>
</g>
<!-- 7&#45;&gt;5 -->
<g id="edge9" class="edge"><title>7&#45;&gt;5</title>
<path fill="none" stroke="grey" stroke-width="2" d="M103.079,-359.697C110.392,-351.305 119.31,-341.07 127.335,-331.861"/>
<polygon fill="grey" stroke="grey" stroke-width="2" points="130.164,-333.943 134.095,-324.104 124.886,-329.344 130.164,-333.943"/>
</g>
</g>
</svg>
