<?xml version="1.0" encoding="UTF-8" standalone="no"?>
<!DOCTYPE svg PUBLIC "-//W3C//DTD SVG 1.1//EN"
 "http://www.w3.org/Graphics/SVG/1.1/DTD/svg11.dtd">
<!-- Generated by graphviz version 2.30.1 (20180420.1509)
 -->
<!-- Title: snakemake_dag Pages: 1 -->
<svg width="749pt" height="836pt"
 viewBox="0.00 0.00 749.00 836.00" xmlns="http://www.w3.org/2000/svg" xmlns:xlink="http://www.w3.org/1999/xlink">
<g id="graph0" class="graph" transform="scale(1 1) rotate(0) translate(4 832)">
<title>snakemake_dag</title>
<polygon fill="white" stroke="white" points="-4,5 -4,-832 746,-832 746,5 -4,5"/>
<!-- 0 -->
<g id="node1" class="node"><title>0</title>
<path fill="none" stroke="#5682d8" stroke-width="2" d="M349,-36C349,-36 319,-36 319,-36 313,-36 307,-30 307,-24 307,-24 307,-12 307,-12 307,-6 313,-0 319,-0 319,-0 349,-0 349,-0 355,-0 361,-6 361,-12 361,-12 361,-24 361,-24 361,-30 355,-36 349,-36"/>
<text text-anchor="middle" x="334" y="-15.5" font-family="sans" font-size="10.00">all</text>
</g>
<!-- 1 -->
<g id="node2" class="node"><title>1</title>
<path fill="none" stroke="#59d856" stroke-width="2" d="M155,-828C155,-828 125,-828 125,-828 119,-828 113,-822 113,-816 113,-816 113,-804 113,-804 113,-798 119,-792 125,-792 125,-792 155,-792 155,-792 161,-792 167,-798 167,-804 167,-804 167,-816 167,-816 167,-822 161,-828 155,-828"/>
<text text-anchor="middle" x="140" y="-807.5" font-family="sans" font-size="10.00">fastp</text>
</g>
<!-- 1&#45;&gt;0 -->
<g id="edge10" class="edge"><title>1&#45;&gt;0</title>
<path fill="none" stroke="grey" stroke-width="2" d="M112.674,-796.569C71.9317,-775.941 0,-730.527 0,-667 0,-667 0,-667 0,-161 0,-33.2227 209.588,-18.7779 296.712,-18.2933"/>
<polygon fill="grey" stroke="grey" points="296.949,-21.7933 306.95,-18.2983 296.952,-14.7933 296.949,-21.7933"/>
</g>
<!-- 2 -->
<g id="node3" class="node"><title>2</title>
<path fill="none" stroke="#68d856" stroke-width="2" d="M70,-468C70,-468 40,-468 40,-468 34,-468 28,-462 28,-456 28,-456 28,-444 28,-444 28,-438 34,-432 40,-432 40,-432 70,-432 70,-432 76,-432 82,-438 82,-444 82,-444 82,-456 82,-456 82,-462 76,-468 70,-468"/>
<text text-anchor="middle" x="55" y="-447.5" font-family="sans" font-size="10.00">fastqc</text>
</g>
<!-- 1&#45;&gt;2 -->
<g id="edge18" class="edge"><title>1&#45;&gt;2</title>
<path fill="none" stroke="grey" stroke-width="2" d="M127.063,-791.655C109.157,-765.878 79,-715.296 79,-667 79,-667 79,-667 79,-593 79,-552.65 69.4623,-506.742 62.412,-478.319"/>
<polygon fill="grey" stroke="grey" points="65.7258,-477.15 59.8568,-468.329 58.9441,-478.885 65.7258,-477.15"/>
</g>
<!-- 3 -->
<g id="node4" class="node"><title>3</title>
<path fill="none" stroke="#566bd8" stroke-width="2" d="M167.25,-468C167.25,-468 112.75,-468 112.75,-468 106.75,-468 100.75,-462 100.75,-456 100.75,-456 100.75,-444 100.75,-444 100.75,-438 106.75,-432 112.75,-432 112.75,-432 167.25,-432 167.25,-432 173.25,-432 179.25,-438 179.25,-444 179.25,-444 179.25,-456 179.25,-456 179.25,-462 173.25,-468 167.25,-468"/>
<text text-anchor="middle" x="140" y="-447.5" font-family="sans" font-size="10.00">fastq_screen</text>
</g>
<!-- 1&#45;&gt;3 -->
<g id="edge19" class="edge"><title>1&#45;&gt;3</title>
<path fill="none" stroke="grey" stroke-width="2" d="M140,-791.951C140,-765.292 140,-712.115 140,-667 140,-667 140,-667 140,-593 140,-552.996 140,-506.653 140,-478.08"/>
<polygon fill="grey" stroke="grey" points="143.5,-478.049 140,-468.049 136.5,-478.049 143.5,-478.049"/>
</g>
<!-- 8 -->
<g id="node9" class="node"><title>8</title>
<path fill="none" stroke="#56d8c1" stroke-width="2" d="M278,-756C278,-756 248,-756 248,-756 242,-756 236,-750 236,-744 236,-744 236,-732 236,-732 236,-726 242,-720 248,-720 248,-720 278,-720 278,-720 284,-720 290,-726 290,-732 290,-732 290,-744 290,-744 290,-750 284,-756 278,-756"/>
<text text-anchor="middle" x="263" y="-735.5" font-family="sans" font-size="10.00">bwa</text>
</g>
<!-- 1&#45;&gt;8 -->
<g id="edge24" class="edge"><title>1&#45;&gt;8</title>
<path fill="none" stroke="grey" stroke-width="2" d="M167.298,-793.465C184.894,-783.451 207.968,-770.319 227.05,-759.459"/>
<polygon fill="grey" stroke="grey" points="228.819,-762.48 235.779,-754.492 225.356,-756.396 228.819,-762.48"/>
</g>
<!-- 10 -->
<g id="node11" class="node"><title>10</title>
<path fill="none" stroke="#56d89a" stroke-width="2" d="M155,-396C155,-396 125,-396 125,-396 119,-396 113,-390 113,-384 113,-384 113,-372 113,-372 113,-366 119,-360 125,-360 125,-360 155,-360 155,-360 161,-360 167,-366 167,-372 167,-372 167,-384 167,-384 167,-390 161,-396 155,-396"/>
<text text-anchor="middle" x="140" y="-375.5" font-family="sans" font-size="10.00">multiqc</text>
</g>
<!-- 1&#45;&gt;10 -->
<g id="edge29" class="edge"><title>1&#45;&gt;10</title>
<path fill="none" stroke="grey" stroke-width="2" d="M154.421,-791.894C174.382,-766.416 208,-716.201 208,-667 208,-667 208,-667 208,-521 208,-480.458 206.667,-467.989 188,-432 182.661,-421.707 174.828,-411.869 167.031,-403.525"/>
<polygon fill="grey" stroke="grey" points="169.456,-400.998 159.954,-396.311 164.459,-405.901 169.456,-400.998"/>
</g>
<!-- 2&#45;&gt;0 -->
<g id="edge9" class="edge"><title>2&#45;&gt;0</title>
<path fill="none" stroke="grey" stroke-width="2" d="M53.4195,-431.968C51.088,-405.332 47,-352.186 47,-307 47,-307 47,-307 47,-161 47,-117.261 54.7562,-99.2112 89,-72 120.74,-46.7786 236.05,-30.1961 296.476,-23.0371"/>
<polygon fill="grey" stroke="grey" points="297.205,-26.4761 306.737,-21.8496 296.401,-19.5225 297.205,-26.4761"/>
</g>
<!-- 2&#45;&gt;10 -->
<g id="edge28" class="edge"><title>2&#45;&gt;10</title>
<path fill="none" stroke="grey" stroke-width="2" d="M76.0112,-431.697C86.7163,-422.881 99.8897,-412.032 111.496,-402.474"/>
<polygon fill="grey" stroke="grey" points="113.736,-405.163 119.23,-396.104 109.286,-399.76 113.736,-405.163"/>
</g>
<!-- 3&#45;&gt;0 -->
<g id="edge16" class="edge"><title>3&#45;&gt;0</title>
<path fill="none" stroke="grey" stroke-width="2" d="M125.835,-431.851C118.31,-421.93 109.503,-408.89 104,-396 88.1192,-358.801 85,-347.447 85,-307 85,-307 85,-307 85,-161 85,-118.162 89.5385,-99.9519 122,-72 171.475,-29.3978 250.237,-20.1224 296.552,-18.6188"/>
<polygon fill="grey" stroke="grey" points="296.833,-22.1136 306.755,-18.3968 296.681,-15.1152 296.833,-22.1136"/>
</g>
<!-- 3&#45;&gt;10 -->
<g id="edge30" class="edge"><title>3&#45;&gt;10</title>
<path fill="none" stroke="grey" stroke-width="2" d="M140,-431.697C140,-423.983 140,-414.712 140,-406.112"/>
<polygon fill="grey" stroke="grey" points="143.5,-406.104 140,-396.104 136.5,-406.104 143.5,-406.104"/>
</g>
<!-- 4 -->
<g id="node5" class="node"><title>4</title>
<path fill="none" stroke="#d6d856" stroke-width="2" d="M729,-252C729,-252 699,-252 699,-252 693,-252 687,-246 687,-240 687,-240 687,-228 687,-228 687,-222 693,-216 699,-216 699,-216 729,-216 729,-216 735,-216 741,-222 741,-228 741,-228 741,-240 741,-240 741,-246 735,-252 729,-252"/>
<text text-anchor="middle" x="714" y="-231.5" font-family="sans" font-size="10.00">preseq</text>
</g>
<!-- 4&#45;&gt;0 -->
<g id="edge8" class="edge"><title>4&#45;&gt;0</title>
<path fill="none" stroke="grey" stroke-width="2" d="M715.233,-215.871C716.593,-182.7 714.388,-109.659 673,-72 629.394,-32.3227 450.552,-22.3169 371.673,-19.8193"/>
<polygon fill="grey" stroke="grey" points="371.329,-16.3078 361.231,-19.5144 371.124,-23.3048 371.329,-16.3078"/>
</g>
<!-- 5 -->
<g id="node6" class="node"><title>5</title>
<path fill="none" stroke="#97d856" stroke-width="2" d="M465,-540C465,-540 435,-540 435,-540 429,-540 423,-534 423,-528 423,-528 423,-516 423,-516 423,-510 429,-504 435,-504 435,-504 465,-504 465,-504 471,-504 477,-510 477,-516 477,-516 477,-528 477,-528 477,-534 471,-540 465,-540"/>
<text text-anchor="middle" x="450" y="-519.5" font-family="sans" font-size="10.00">banlist</text>
</g>
<!-- 5&#45;&gt;0 -->
<g id="edge4" class="edge"><title>5&#45;&gt;0</title>
<path fill="none" stroke="grey" stroke-width="2" d="M477.026,-518.898C512.769,-514.797 575.905,-502.804 616,-468 649.175,-439.202 659,-422.93 659,-379 659,-379 659,-379 659,-161 659,-120.553 669.15,-100.04 640,-72 602.131,-35.5734 444.538,-23.8917 371.486,-20.3908"/>
<polygon fill="grey" stroke="grey" points="371.493,-16.8877 361.345,-19.9317 371.177,-23.8805 371.493,-16.8877"/>
</g>
<!-- 5&#45;&gt;4 -->
<g id="edge20" class="edge"><title>5&#45;&gt;4</title>
<path fill="none" stroke="grey" stroke-width="2" d="M477.007,-518.262C530.337,-512.289 646.32,-496.307 673,-468 726.56,-411.174 723.179,-310.243 717.893,-262.059"/>
<polygon fill="grey" stroke="grey" points="721.36,-261.581 716.684,-252.074 714.411,-262.422 721.36,-261.581"/>
</g>
<!-- 9 -->
<g id="node10" class="node"><title>9</title>
<path fill="none" stroke="#c6d856" stroke-width="2" d="M485.25,-468C485.25,-468 414.75,-468 414.75,-468 408.75,-468 402.75,-462 402.75,-456 402.75,-456 402.75,-444 402.75,-444 402.75,-438 408.75,-432 414.75,-432 414.75,-432 485.25,-432 485.25,-432 491.25,-432 497.25,-438 497.25,-444 497.25,-444 497.25,-456 497.25,-456 497.25,-462 491.25,-468 485.25,-468"/>
<text text-anchor="middle" x="450" y="-447.5" font-family="sans" font-size="10.00">preseq_lcextrap</text>
</g>
<!-- 5&#45;&gt;9 -->
<g id="edge25" class="edge"><title>5&#45;&gt;9</title>
<path fill="none" stroke="grey" stroke-width="2" d="M450,-503.697C450,-495.983 450,-486.712 450,-478.112"/>
<polygon fill="grey" stroke="grey" points="453.5,-478.104 450,-468.104 446.5,-478.104 453.5,-478.104"/>
</g>
<!-- 11 -->
<g id="node12" class="node"><title>11</title>
<path fill="none" stroke="#d86e56" stroke-width="2" d="M282,-468C282,-468 252,-468 252,-468 246,-468 240,-462 240,-456 240,-456 240,-444 240,-444 240,-438 246,-432 252,-432 252,-432 282,-432 282,-432 288,-432 294,-438 294,-444 294,-444 294,-456 294,-456 294,-462 288,-468 282,-468"/>
<text text-anchor="middle" x="267" y="-447.5" font-family="sans" font-size="10.00">macs2</text>
</g>
<!-- 5&#45;&gt;11 -->
<g id="edge31" class="edge"><title>5&#45;&gt;11</title>
<path fill="none" stroke="grey" stroke-width="2" d="M422.998,-510.671C391.372,-498.574 338.83,-478.476 303.569,-464.988"/>
<polygon fill="grey" stroke="grey" points="304.704,-461.675 294.113,-461.371 302.203,-468.213 304.704,-461.675"/>
</g>
<!-- 13 -->
<g id="node14" class="node"><title>13</title>
<path fill="none" stroke="#d89556" stroke-width="2" d="M570.25,-468C570.25,-468 527.75,-468 527.75,-468 521.75,-468 515.75,-462 515.75,-456 515.75,-456 515.75,-444 515.75,-444 515.75,-438 521.75,-432 527.75,-432 527.75,-432 570.25,-432 570.25,-432 576.25,-432 582.25,-438 582.25,-444 582.25,-444 582.25,-456 582.25,-456 582.25,-462 576.25,-468 570.25,-468"/>
<text text-anchor="middle" x="549" y="-447.5" font-family="sans" font-size="10.00">fraglength</text>
</g>
<!-- 5&#45;&gt;13 -->
<g id="edge33" class="edge"><title>5&#45;&gt;13</title>
<path fill="none" stroke="grey" stroke-width="2" d="M474.218,-503.876C486.923,-494.893 502.664,-483.763 516.423,-474.034"/>
<polygon fill="grey" stroke="grey" points="518.544,-476.821 524.689,-468.19 514.503,-471.105 518.544,-476.821"/>
</g>
<!-- 15 -->
<g id="node16" class="node"><title>15</title>
<path fill="none" stroke="#d85656" stroke-width="2" d="M341,-324C341,-324 311,-324 311,-324 305,-324 299,-318 299,-312 299,-312 299,-300 299,-300 299,-294 305,-288 311,-288 311,-288 341,-288 341,-288 347,-288 353,-294 353,-300 353,-300 353,-312 353,-312 353,-318 347,-324 341,-324"/>
<text text-anchor="middle" x="326" y="-303.5" font-family="sans" font-size="10.00">FRiP</text>
</g>
<!-- 5&#45;&gt;15 -->
<g id="edge36" class="edge"><title>5&#45;&gt;15</title>
<path fill="none" stroke="grey" stroke-width="2" d="M422.851,-505.944C408.342,-496.679 391.209,-483.596 380,-468 350.346,-426.74 336.145,-368.063 330.03,-334.121"/>
<polygon fill="grey" stroke="grey" points="333.441,-333.299 328.32,-324.024 326.539,-334.468 333.441,-333.299"/>
</g>
<!-- 17 -->
<g id="node18" class="node"><title>17</title>
<path fill="none" stroke="#80d856" stroke-width="2" d="M615,-180C615,-180 585,-180 585,-180 579,-180 573,-174 573,-168 573,-168 573,-156 573,-156 573,-150 579,-144 585,-144 585,-144 615,-144 615,-144 621,-144 627,-150 627,-156 627,-156 627,-168 627,-168 627,-174 621,-180 615,-180"/>
<text text-anchor="middle" x="600" y="-159.5" font-family="sans" font-size="10.00">bigwig</text>
</g>
<!-- 5&#45;&gt;17 -->
<g id="edge38" class="edge"><title>5&#45;&gt;17</title>
<path fill="none" stroke="grey" stroke-width="2" d="M477.045,-518.323C508.974,-513.694 561.459,-501.223 591,-468 618.075,-437.55 613,-419.746 613,-379 613,-379 613,-379 613,-305 613,-264.829 607.777,-218.53 603.952,-190.013"/>
<polygon fill="grey" stroke="grey" points="607.405,-189.43 602.568,-180.003 600.471,-190.388 607.405,-189.43"/>
</g>
<!-- 20 -->
<g id="node21" class="node"><title>20</title>
<path fill="none" stroke="#d88556" stroke-width="2" d="M413,-324C413,-324 383,-324 383,-324 377,-324 371,-318 371,-312 371,-312 371,-300 371,-300 371,-294 377,-288 383,-288 383,-288 413,-288 413,-288 419,-288 425,-294 425,-300 425,-300 425,-312 425,-312 425,-318 419,-324 413,-324"/>
<text text-anchor="middle" x="398" y="-303.5" font-family="sans" font-size="10.00">counts</text>
</g>
<!-- 5&#45;&gt;20 -->
<g id="edge42" class="edge"><title>5&#45;&gt;20</title>
<path fill="none" stroke="grey" stroke-width="2" d="M423.42,-503.912C411.763,-494.81 399.315,-482.494 393,-468 373.951,-424.277 382.501,-367.357 390.332,-334.228"/>
<polygon fill="grey" stroke="grey" points="393.771,-334.906 392.814,-324.354 386.982,-333.2 393.771,-334.906"/>
</g>
<!-- 6 -->
<g id="node7" class="node"><title>6</title>
<path fill="none" stroke="#56d882" stroke-width="2" d="M372,-612C372,-612 342,-612 342,-612 336,-612 330,-606 330,-600 330,-600 330,-588 330,-588 330,-582 336,-576 342,-576 342,-576 372,-576 372,-576 378,-576 384,-582 384,-588 384,-588 384,-600 384,-600 384,-606 378,-612 372,-612"/>
<text text-anchor="middle" x="357" y="-591.5" font-family="sans" font-size="10.00">rmdup</text>
</g>
<!-- 6&#45;&gt;5 -->
<g id="edge21" class="edge"><title>6&#45;&gt;5</title>
<path fill="none" stroke="grey" stroke-width="2" d="M379.989,-575.697C391.814,-566.796 406.392,-555.823 419.179,-546.199"/>
<polygon fill="grey" stroke="grey" points="421.391,-548.915 427.276,-540.104 417.181,-543.322 421.391,-548.915"/>
</g>
<!-- 7 -->
<g id="node8" class="node"><title>7</title>
<path fill="none" stroke="#d8ac56" stroke-width="2" d="M372,-684C372,-684 342,-684 342,-684 336,-684 330,-678 330,-672 330,-672 330,-660 330,-660 330,-654 336,-648 342,-648 342,-648 372,-648 372,-648 378,-648 384,-654 384,-660 384,-660 384,-672 384,-672 384,-678 378,-684 372,-684"/>
<text text-anchor="middle" x="357" y="-663.5" font-family="sans" font-size="10.00">filter</text>
</g>
<!-- 7&#45;&gt;6 -->
<g id="edge22" class="edge"><title>7&#45;&gt;6</title>
<path fill="none" stroke="grey" stroke-width="2" d="M357,-647.697C357,-639.983 357,-630.712 357,-622.112"/>
<polygon fill="grey" stroke="grey" points="360.5,-622.104 357,-612.104 353.5,-622.104 360.5,-622.104"/>
</g>
<!-- 8&#45;&gt;7 -->
<g id="edge23" class="edge"><title>8&#45;&gt;7</title>
<path fill="none" stroke="grey" stroke-width="2" d="M286.236,-719.697C298.188,-710.796 312.923,-699.823 325.847,-690.199"/>
<polygon fill="grey" stroke="grey" points="328.101,-692.884 334.031,-684.104 323.92,-687.27 328.101,-692.884"/>
</g>
<!-- 9&#45;&gt;0 -->
<g id="edge1" class="edge"><title>9&#45;&gt;0</title>
<path fill="none" stroke="grey" stroke-width="2" d="M453.035,-431.574C457.419,-404.855 465,-352.118 465,-307 465,-307 465,-307 465,-161 465,-104.796 408.874,-61.3306 370.097,-38.0075"/>
<polygon fill="grey" stroke="grey" points="371.546,-34.8008 361.143,-32.7903 368.021,-40.8489 371.546,-34.8008"/>
</g>
<!-- 9&#45;&gt;10 -->
<g id="edge26" class="edge"><title>9&#45;&gt;10</title>
<path fill="none" stroke="grey" stroke-width="2" d="M402.58,-438.292C340.628,-424.303 233.429,-400.097 177.073,-387.371"/>
<polygon fill="grey" stroke="grey" points="177.69,-383.923 167.165,-385.134 176.148,-390.751 177.69,-383.923"/>
</g>
<!-- 10&#45;&gt;0 -->
<g id="edge7" class="edge"><title>10&#45;&gt;0</title>
<path fill="none" stroke="grey" stroke-width="2" d="M136.56,-359.592C131.592,-332.896 123,-280.188 123,-235 123,-235 123,-235 123,-161 123,-120.031 118.217,-101.154 147,-72 186.777,-31.7113 254.739,-21.4669 296.856,-19.1907"/>
<polygon fill="grey" stroke="grey" points="297.128,-22.6825 306.974,-18.7702 296.837,-15.6885 297.128,-22.6825"/>
</g>
<!-- 11&#45;&gt;0 -->
<g id="edge6" class="edge"><title>11&#45;&gt;0</title>
<path fill="none" stroke="grey" stroke-width="2" d="M252.166,-431.766C244.173,-421.819 234.622,-408.781 228,-396 189.909,-322.487 172.893,-298.49 180,-216 185.576,-151.282 164.336,-122.654 205,-72 227.575,-43.8787 267.547,-30.5393 297.031,-24.3004"/>
<polygon fill="grey" stroke="grey" points="297.823,-27.7121 306.977,-22.3772 296.494,-20.8395 297.823,-27.7121"/>
</g>
<!-- 11&#45;&gt;10 -->
<g id="edge27" class="edge"><title>11&#45;&gt;10</title>
<path fill="none" stroke="grey" stroke-width="2" d="M239.755,-433.983C221.173,-423.741 196.362,-410.066 176.133,-398.916"/>
<polygon fill="grey" stroke="grey" points="177.647,-395.754 167.2,-393.992 174.268,-401.884 177.647,-395.754"/>
</g>
<!-- 16 -->
<g id="node17" class="node"><title>16</title>
<path fill="none" stroke="#d8c356" stroke-width="2" d="M293,-396C293,-396 249,-396 249,-396 243,-396 237,-390 237,-384 237,-384 237,-372 237,-372 237,-366 243,-360 249,-360 249,-360 293,-360 293,-360 299,-360 305,-366 305,-372 305,-372 305,-384 305,-384 305,-390 299,-396 293,-396"/>
<text text-anchor="middle" x="271" y="-375.5" font-family="sans" font-size="10.00">consensus</text>
</g>
<!-- 11&#45;&gt;16 -->
<g id="edge37" class="edge"><title>11&#45;&gt;16</title>
<path fill="none" stroke="grey" stroke-width="2" d="M267.989,-431.697C268.43,-423.983 268.959,-414.712 269.451,-406.112"/>
<polygon fill="grey" stroke="grey" points="272.946,-406.288 270.023,-396.104 265.958,-405.888 272.946,-406.288"/>
</g>
<!-- 12 -->
<g id="node13" class="node"><title>12</title>
<path fill="none" stroke="#569ad8" stroke-width="2" d="M572.25,-324C572.25,-324 505.75,-324 505.75,-324 499.75,-324 493.75,-318 493.75,-312 493.75,-312 493.75,-300 493.75,-300 493.75,-294 499.75,-288 505.75,-288 505.75,-288 572.25,-288 572.25,-288 578.25,-288 584.25,-294 584.25,-300 584.25,-300 584.25,-312 584.25,-312 584.25,-318 578.25,-324 572.25,-324"/>
<text text-anchor="middle" x="539" y="-303.5" font-family="sans" font-size="10.00">fraglength_plot</text>
</g>
<!-- 12&#45;&gt;0 -->
<g id="edge15" class="edge"><title>12&#45;&gt;0</title>
<path fill="none" stroke="grey" stroke-width="2" d="M539.661,-287.881C540.346,-245.61 536.219,-135.145 479,-72 451.23,-41.3538 404.259,-28.3963 371.321,-22.9378"/>
<polygon fill="grey" stroke="grey" points="371.571,-19.4362 361.163,-21.4161 370.534,-26.3589 371.571,-19.4362"/>
</g>
<!-- 13&#45;&gt;12 -->
<g id="edge32" class="edge"><title>13&#45;&gt;12</title>
<path fill="none" stroke="grey" stroke-width="2" d="M547.794,-431.871C546.089,-407.67 542.959,-363.211 540.929,-334.393"/>
<polygon fill="grey" stroke="grey" points="544.404,-333.919 540.211,-324.189 537.422,-334.41 544.404,-333.919"/>
</g>
<!-- 14 -->
<g id="node15" class="node"><title>14</title>
<path fill="none" stroke="#56d8d8" stroke-width="2" d="M315,-180C315,-180 277,-180 277,-180 271,-180 265,-174 265,-168 265,-168 265,-156 265,-156 265,-150 271,-144 277,-144 277,-144 315,-144 315,-144 321,-144 327,-150 327,-156 327,-156 327,-168 327,-168 327,-174 321,-180 315,-180"/>
<text text-anchor="middle" x="296" y="-159.5" font-family="sans" font-size="10.00">FRiP_plot</text>
</g>
<!-- 14&#45;&gt;0 -->
<g id="edge11" class="edge"><title>14&#45;&gt;0</title>
<path fill="none" stroke="grey" stroke-width="2" d="M293.562,-143.797C291.613,-125.515 290.325,-95.9947 298,-72 301.119,-62.2497 306.648,-52.6602 312.451,-44.3759"/>
<polygon fill="grey" stroke="grey" points="315.33,-46.3703 318.508,-36.2634 309.721,-42.1822 315.33,-46.3703"/>
</g>
<!-- 15&#45;&gt;14 -->
<g id="edge34" class="edge"><title>15&#45;&gt;14</title>
<path fill="none" stroke="grey" stroke-width="2" d="M322.381,-287.871C317.246,-263.564 307.793,-218.819 301.707,-190.013"/>
<polygon fill="grey" stroke="grey" points="305.123,-189.25 299.632,-180.189 298.274,-190.697 305.123,-189.25"/>
</g>
<!-- 16&#45;&gt;0 -->
<g id="edge17" class="edge"><title>16&#45;&gt;0</title>
<path fill="none" stroke="grey" stroke-width="2" d="M268.668,-359.842C262.531,-313.262 247.011,-185.187 256,-144 263.506,-109.609 270.098,-101.695 289,-72 295.189,-62.2771 303.022,-52.4339 310.411,-43.9128"/>
<polygon fill="grey" stroke="grey" points="313.249,-45.9888 317.291,-36.1953 308.024,-41.3306 313.249,-45.9888"/>
</g>
<!-- 16&#45;&gt;15 -->
<g id="edge35" class="edge"><title>16&#45;&gt;15</title>
<path fill="none" stroke="grey" stroke-width="2" d="M284.596,-359.697C291.123,-351.389 299.068,-341.277 306.247,-332.141"/>
<polygon fill="grey" stroke="grey" points="309.135,-334.13 312.561,-324.104 303.631,-329.805 309.135,-334.13"/>
</g>
<!-- 16&#45;&gt;20 -->
<g id="edge41" class="edge"><title>16&#45;&gt;20</title>
<path fill="none" stroke="grey" stroke-width="2" d="M302.068,-359.876C320.116,-349.928 342.943,-337.346 361.802,-326.952"/>
<polygon fill="grey" stroke="grey" points="363.635,-329.938 370.703,-322.046 360.256,-323.808 363.635,-329.938"/>
</g>
<!-- 22 -->
<g id="node23" class="node"><title>22</title>
<path fill="none" stroke="#afd856" stroke-width="2" d="M231,-252C231,-252 201,-252 201,-252 195,-252 189,-246 189,-240 189,-240 189,-228 189,-228 189,-222 195,-216 201,-216 201,-216 231,-216 231,-216 237,-216 243,-222 243,-228 243,-228 243,-240 243,-240 243,-246 237,-252 231,-252"/>
<text text-anchor="middle" x="216" y="-231.5" font-family="sans" font-size="10.00">diffbind</text>
</g>
<!-- 16&#45;&gt;22 -->
<g id="edge44" class="edge"><title>16&#45;&gt;22</title>
<path fill="none" stroke="grey" stroke-width="2" d="M264.366,-359.871C254.909,-335.457 237.468,-290.426 226.316,-261.635"/>
<polygon fill="grey" stroke="grey" points="229.533,-260.25 222.658,-252.189 223.006,-262.778 229.533,-260.25"/>
</g>
<!-- 17&#45;&gt;0 -->
<g id="edge5" class="edge"><title>17&#45;&gt;0</title>
<path fill="none" stroke="grey" stroke-width="2" d="M588.553,-143.984C574.161,-123.883 547.6,-90.8068 517,-72 471.408,-43.9793 410.352,-30.2074 371.587,-23.8659"/>
<polygon fill="grey" stroke="grey" points="371.694,-20.3408 361.276,-22.2687 370.622,-27.2583 371.694,-20.3408"/>
</g>
<!-- 18 -->
<g id="node19" class="node"><title>18</title>
<path fill="none" stroke="#56d8a9" stroke-width="2" d="M619,-108C619,-108 581,-108 581,-108 575,-108 569,-102 569,-96 569,-96 569,-84 569,-84 569,-78 575,-72 581,-72 581,-72 619,-72 619,-72 625,-72 631,-78 631,-84 631,-84 631,-96 631,-96 631,-102 625,-108 619,-108"/>
<text text-anchor="middle" x="600" y="-87.5" font-family="sans" font-size="10.00">mergebw</text>
</g>
<!-- 17&#45;&gt;18 -->
<g id="edge39" class="edge"><title>17&#45;&gt;18</title>
<path fill="none" stroke="grey" stroke-width="2" d="M600,-143.697C600,-135.983 600,-126.712 600,-118.112"/>
<polygon fill="grey" stroke="grey" points="603.5,-118.104 600,-108.104 596.5,-118.104 603.5,-118.104"/>
</g>
<!-- 18&#45;&gt;0 -->
<g id="edge2" class="edge"><title>18&#45;&gt;0</title>
<path fill="none" stroke="grey" stroke-width="2" d="M568.703,-76.6012C564.138,-74.961 559.47,-73.3744 555,-72 491.281,-52.4088 415.407,-35.5918 371.176,-26.4205"/>
<polygon fill="grey" stroke="grey" points="371.671,-22.9492 361.171,-24.3647 370.262,-29.8059 371.671,-22.9492"/>
</g>
<!-- 19 -->
<g id="node20" class="node"><title>19</title>
<path fill="none" stroke="#56c1d8" stroke-width="2" d="M424.25,-252C424.25,-252 369.75,-252 369.75,-252 363.75,-252 357.75,-246 357.75,-240 357.75,-240 357.75,-228 357.75,-228 357.75,-222 363.75,-216 369.75,-216 369.75,-216 424.25,-216 424.25,-216 430.25,-216 436.25,-222 436.25,-228 436.25,-228 436.25,-240 436.25,-240 436.25,-246 430.25,-252 424.25,-252"/>
<text text-anchor="middle" x="397" y="-231.5" font-family="sans" font-size="10.00">counts_table</text>
</g>
<!-- 19&#45;&gt;0 -->
<g id="edge12" class="edge"><title>19&#45;&gt;0</title>
<path fill="none" stroke="grey" stroke-width="2" d="M401.464,-215.953C403.935,-205.63 406.752,-192.153 408,-180 412.995,-131.357 411.914,-114.076 387,-72 380.744,-61.4345 371.899,-51.4571 363.224,-43.0698"/>
<polygon fill="grey" stroke="grey" points="365.435,-40.3469 355.714,-36.1335 360.685,-45.4894 365.435,-40.3469"/>
</g>
<!-- 21 -->
<g id="node22" class="node"><title>21</title>
<path fill="none" stroke="#56a9d8" stroke-width="2" d="M387,-180C387,-180 357,-180 357,-180 351,-180 345,-174 345,-168 345,-168 345,-156 345,-156 345,-150 351,-144 357,-144 357,-144 387,-144 387,-144 393,-144 399,-150 399,-156 399,-156 399,-168 399,-168 399,-174 393,-180 387,-180"/>
<text text-anchor="middle" x="372" y="-159.5" font-family="sans" font-size="10.00">deseq2</text>
</g>
<!-- 19&#45;&gt;21 -->
<g id="edge43" class="edge"><title>19&#45;&gt;21</title>
<path fill="none" stroke="grey" stroke-width="2" d="M390.82,-215.697C388.005,-207.813 384.609,-198.304 381.481,-189.546"/>
<polygon fill="grey" stroke="grey" points="384.768,-188.345 378.109,-180.104 378.176,-190.699 384.768,-188.345"/>
</g>
<!-- 20&#45;&gt;19 -->
<g id="edge40" class="edge"><title>20&#45;&gt;19</title>
<path fill="none" stroke="grey" stroke-width="2" d="M397.753,-287.697C397.643,-279.983 397.51,-270.712 397.387,-262.112"/>
<polygon fill="grey" stroke="grey" points="400.887,-262.053 397.244,-252.104 393.888,-262.153 400.887,-262.053"/>
</g>
<!-- 21&#45;&gt;0 -->
<g id="edge14" class="edge"><title>21&#45;&gt;0</title>
<path fill="none" stroke="grey" stroke-width="2" d="M374.438,-143.797C376.387,-125.515 377.675,-95.9947 370,-72 366.881,-62.2497 361.352,-52.6602 355.549,-44.3759"/>
<polygon fill="grey" stroke="grey" points="358.279,-42.1822 349.492,-36.2634 352.67,-46.3703 358.279,-42.1822"/>
</g>
<!-- 23 -->
<g id="node24" class="node"><title>23</title>
<path fill="none" stroke="#56d86b" stroke-width="2" d="M349,-108C349,-108 319,-108 319,-108 313,-108 307,-102 307,-96 307,-96 307,-84 307,-84 307,-78 313,-72 319,-72 319,-72 349,-72 349,-72 355,-72 361,-78 361,-84 361,-84 361,-96 361,-96 361,-102 355,-108 349,-108"/>
<text text-anchor="middle" x="334" y="-87.5" font-family="sans" font-size="10.00">homer</text>
</g>
<!-- 21&#45;&gt;23 -->
<g id="edge45" class="edge"><title>21&#45;&gt;23</title>
<path fill="none" stroke="grey" stroke-width="2" d="M362.607,-143.697C358.235,-135.644 352.943,-125.894 348.105,-116.982"/>
<polygon fill="grey" stroke="grey" points="351.132,-115.223 343.285,-108.104 344.98,-118.563 351.132,-115.223"/>
</g>
<!-- 22&#45;&gt;0 -->
<g id="edge3" class="edge"><title>22&#45;&gt;0</title>
<path fill="none" stroke="grey" stroke-width="2" d="M211.423,-215.753C204.133,-184.255 193.519,-116.57 223,-72 239.641,-46.842 271.711,-33.3111 297.118,-26.2356"/>
<polygon fill="grey" stroke="grey" points="298.013,-29.6194 306.831,-23.7471 296.275,-22.8384 298.013,-29.6194"/>
</g>
<!-- 23&#45;&gt;0 -->
<g id="edge13" class="edge"><title>23&#45;&gt;0</title>
<path fill="none" stroke="grey" stroke-width="2" d="M334,-71.6966C334,-63.9827 334,-54.7125 334,-46.1124"/>
<polygon fill="grey" stroke="grey" points="337.5,-46.1043 334,-36.1043 330.5,-46.1044 337.5,-46.1043"/>
</g>
</g>
</svg>
