<?xml version="1.0" encoding="UTF-8" standalone="no"?>
<!DOCTYPE svg PUBLIC "-//W3C//DTD SVG 1.1//EN"
 "http://www.w3.org/Graphics/SVG/1.1/DTD/svg11.dtd">
<!-- Generated by graphviz version 2.38.0 (20140413.2041)
 -->
<!-- Title: snakemake_dag Pages: 1 -->
<svg width="556pt" height="980pt"
 viewBox="0.00 0.00 555.50 980.00" xmlns="http://www.w3.org/2000/svg" xmlns:xlink="http://www.w3.org/1999/xlink">
<g id="graph0" class="graph" transform="scale(1 1) rotate(0) translate(4 976)">
<title>snakemake_dag</title>
<polygon fill="white" stroke="none" points="-4,4 -4,-976 551.5,-976 551.5,4 -4,4"/>
<!-- 0 -->
<g id="node1" class="node"><title>0</title>
<path fill="none" stroke="#56d8b1" stroke-width="2" d="M207,-36C207,-36 177,-36 177,-36 171,-36 165,-30 165,-24 165,-24 165,-12 165,-12 165,-6 171,-0 177,-0 177,-0 207,-0 207,-0 213,-0 219,-6 219,-12 219,-12 219,-24 219,-24 219,-30 213,-36 207,-36"/>
<text text-anchor="middle" x="192" y="-15.5" font-family="sans" font-size="10.00">all</text>
</g>
<!-- 1 -->
<g id="node2" class="node"><title>1</title>
<path fill="none" stroke="#56d89a" stroke-width="2" d="M212.5,-828C212.5,-828 179.5,-828 179.5,-828 173.5,-828 167.5,-822 167.5,-816 167.5,-816 167.5,-804 167.5,-804 167.5,-798 173.5,-792 179.5,-792 179.5,-792 212.5,-792 212.5,-792 218.5,-792 224.5,-798 224.5,-804 224.5,-804 224.5,-816 224.5,-816 224.5,-822 218.5,-828 212.5,-828"/>
<text text-anchor="middle" x="196" y="-807.5" font-family="sans" font-size="10.00">sortbam</text>
</g>
<!-- 1&#45;&gt;0 -->
<g id="edge1" class="edge"><title>1&#45;&gt;0</title>
<path fill="none" stroke="grey" stroke-width="2" d="M188.99,-791.614C185.154,-781.402 180.654,-768.152 178,-756 155.788,-654.294 154,-627.103 154,-523 154,-523 154,-523 154,-161 154,-119.633 169.235,-73.7216 180.412,-45.6051"/>
<polygon fill="grey" stroke="grey" stroke-width="2" points="183.756,-46.6733 184.31,-36.0929 177.279,-44.0187 183.756,-46.6733"/>
</g>
<!-- 9 -->
<g id="node10" class="node"><title>9</title>
<path fill="none" stroke="#d89c56" stroke-width="2" d="M273,-756C273,-756 199,-756 199,-756 193,-756 187,-750 187,-744 187,-744 187,-732 187,-732 187,-726 193,-720 199,-720 199,-720 273,-720 273,-720 279,-720 285,-726 285,-732 285,-732 285,-744 285,-744 285,-750 279,-756 273,-756"/>
<text text-anchor="middle" x="236" y="-735.5" font-family="sans" font-size="10.00">fragment_length</text>
</g>
<!-- 1&#45;&gt;9 -->
<g id="edge16" class="edge"><title>1&#45;&gt;9</title>
<path fill="none" stroke="grey" stroke-width="2" d="M205.888,-791.697C210.489,-783.644 216.06,-773.894 221.153,-764.982"/>
<polygon fill="grey" stroke="grey" stroke-width="2" points="224.304,-766.523 226.226,-756.104 218.226,-763.05 224.304,-766.523"/>
</g>
<!-- 18 -->
<g id="node19" class="node"><title>18</title>
<path fill="none" stroke="#56c9d8" stroke-width="2" d="M413,-756C413,-756 317,-756 317,-756 311,-756 305,-750 305,-744 305,-744 305,-732 305,-732 305,-726 311,-720 317,-720 317,-720 413,-720 413,-720 419,-720 425,-726 425,-732 425,-732 425,-744 425,-744 425,-750 419,-756 413,-756"/>
<text text-anchor="middle" x="365" y="-735.5" font-family="sans" font-size="10.00">removeMitochondrial</text>
</g>
<!-- 1&#45;&gt;18 -->
<g id="edge26" class="edge"><title>1&#45;&gt;18</title>
<path fill="none" stroke="grey" stroke-width="2" d="M224.669,-797.125C249.227,-786.953 285.173,-772.064 314.536,-759.902"/>
<polygon fill="grey" stroke="grey" stroke-width="2" points="315.916,-763.119 323.815,-756.059 313.237,-756.652 315.916,-763.119"/>
</g>
<!-- 2 -->
<g id="node3" class="node"><title>2</title>
<path fill="none" stroke="#9fd856" stroke-width="2" d="M292,-612C292,-612 194,-612 194,-612 188,-612 182,-606 182,-600 182,-600 182,-588 182,-588 182,-582 188,-576 194,-576 194,-576 292,-576 292,-576 298,-576 304,-582 304,-588 304,-588 304,-600 304,-600 304,-606 298,-612 292,-612"/>
<text text-anchor="middle" x="243" y="-591.5" font-family="sans" font-size="10.00">fragment_length_plot</text>
</g>
<!-- 2&#45;&gt;0 -->
<g id="edge3" class="edge"><title>2&#45;&gt;0</title>
<path fill="none" stroke="grey" stroke-width="2" d="M232.433,-575.786C217.495,-549.765 192,-498.412 192,-451 192,-451 192,-451 192,-161 192,-120.996 192,-74.6528 192,-46.0798"/>
<polygon fill="grey" stroke="grey" stroke-width="2" points="195.5,-46.0492 192,-36.0493 188.5,-46.0493 195.5,-46.0492"/>
</g>
<!-- 3 -->
<g id="node4" class="node"><title>3</title>
<path fill="none" stroke="#d8b456" stroke-width="2" d="M42,-828C42,-828 12,-828 12,-828 6,-828 0,-822 0,-816 0,-816 0,-804 0,-804 0,-798 6,-792 12,-792 12,-792 42,-792 42,-792 48,-792 54,-798 54,-804 54,-804 54,-816 54,-816 54,-822 48,-828 42,-828"/>
<text text-anchor="middle" x="27" y="-807.5" font-family="sans" font-size="10.00">fastqc</text>
</g>
<!-- 3&#45;&gt;0 -->
<g id="edge6" class="edge"><title>3&#45;&gt;0</title>
<path fill="none" stroke="grey" stroke-width="2" d="M25.617,-791.964C23.577,-765.323 20,-712.169 20,-667 20,-667 20,-667 20,-161 20,-91.4807 104.592,-49.6309 155.128,-30.8321"/>
<polygon fill="grey" stroke="grey" stroke-width="2" points="156.517,-34.0521 164.746,-27.3784 154.152,-27.464 156.517,-34.0521"/>
</g>
<!-- 4 -->
<g id="node5" class="node"><title>4</title>
<path fill="none" stroke="#59d856" stroke-width="2" d="M115.5,-684C115.5,-684 60.5,-684 60.5,-684 54.5,-684 48.5,-678 48.5,-672 48.5,-672 48.5,-660 48.5,-660 48.5,-654 54.5,-648 60.5,-648 60.5,-648 115.5,-648 115.5,-648 121.5,-648 127.5,-654 127.5,-660 127.5,-660 127.5,-672 127.5,-672 127.5,-678 121.5,-684 115.5,-684"/>
<text text-anchor="middle" x="88" y="-663.5" font-family="sans" font-size="10.00">fastq_screen</text>
</g>
<!-- 4&#45;&gt;0 -->
<g id="edge5" class="edge"><title>4&#45;&gt;0</title>
<path fill="none" stroke="grey" stroke-width="2" d="M91.8449,-647.612C97.3968,-620.942 107,-568.268 107,-523 107,-523 107,-523 107,-161 107,-118.813 117.395,-107.62 140,-72 146.571,-61.6458 155.439,-51.668 163.99,-43.2168"/>
<polygon fill="grey" stroke="grey" stroke-width="2" points="166.522,-45.6391 171.357,-36.2118 161.698,-40.5663 166.522,-45.6391"/>
</g>
<!-- 5 -->
<g id="node6" class="node"><title>5</title>
<path fill="none" stroke="#b6d856" stroke-width="2" d="M359.5,-396C359.5,-396 320.5,-396 320.5,-396 314.5,-396 308.5,-390 308.5,-384 308.5,-384 308.5,-372 308.5,-372 308.5,-366 314.5,-360 320.5,-360 320.5,-360 359.5,-360 359.5,-360 365.5,-360 371.5,-366 371.5,-372 371.5,-372 371.5,-384 371.5,-384 371.5,-390 365.5,-396 359.5,-396"/>
<text text-anchor="middle" x="340" y="-375.5" font-family="sans" font-size="10.00">sortbam2</text>
</g>
<!-- 5&#45;&gt;0 -->
<g id="edge2" class="edge"><title>5&#45;&gt;0</title>
<path fill="none" stroke="grey" stroke-width="2" d="M314.21,-359.942C281.697,-336.155 230,-289.729 230,-235 230,-235 230,-235 230,-161 230,-119.633 214.765,-73.7216 203.588,-45.6051"/>
<polygon fill="grey" stroke="grey" stroke-width="2" points="206.721,-44.0187 199.69,-36.0929 200.244,-46.6733 206.721,-44.0187"/>
</g>
<!-- 6 -->
<g id="node7" class="node"><title>6</title>
<path fill="none" stroke="#70d856" stroke-width="2" d="M323.5,-252C323.5,-252 270.5,-252 270.5,-252 264.5,-252 258.5,-246 258.5,-240 258.5,-240 258.5,-228 258.5,-228 258.5,-222 264.5,-216 270.5,-216 270.5,-216 323.5,-216 323.5,-216 329.5,-216 335.5,-222 335.5,-228 335.5,-228 335.5,-240 335.5,-240 335.5,-246 329.5,-252 323.5,-252"/>
<text text-anchor="middle" x="297" y="-231.5" font-family="sans" font-size="10.00">makeBigwig</text>
</g>
<!-- 5&#45;&gt;6 -->
<g id="edge13" class="edge"><title>5&#45;&gt;6</title>
<path fill="none" stroke="grey" stroke-width="2" d="M334.813,-359.871C327.452,-335.564 313.903,-290.819 305.18,-262.013"/>
<polygon fill="grey" stroke="grey" stroke-width="2" points="308.453,-260.746 302.205,-252.189 301.754,-262.774 308.453,-260.746"/>
</g>
<!-- 12 -->
<g id="node13" class="node"><title>12</title>
<path fill="none" stroke="#56d86b" stroke-width="2" d="M480,-180C480,-180 312,-180 312,-180 306,-180 300,-174 300,-168 300,-168 300,-156 300,-156 300,-150 306,-144 312,-144 312,-144 480,-144 480,-144 486,-144 492,-150 492,-156 492,-156 492,-168 492,-168 492,-174 486,-180 480,-180"/>
<text text-anchor="middle" x="396" y="-159.5" font-family="sans" font-size="10.00">peak_catalog_counts_no_downsmpl</text>
</g>
<!-- 5&#45;&gt;12 -->
<g id="edge19" class="edge"><title>5&#45;&gt;12</title>
<path fill="none" stroke="grey" stroke-width="2" d="M344.488,-359.849C354.195,-322.753 377.209,-234.81 388.908,-190.103"/>
<polygon fill="grey" stroke="grey" stroke-width="2" points="392.345,-190.793 391.491,-180.232 385.573,-189.021 392.345,-190.793"/>
</g>
<!-- 17 -->
<g id="node18" class="node"><title>17</title>
<path fill="none" stroke="#56d882" stroke-width="2" d="M506.5,-324C506.5,-324 413.5,-324 413.5,-324 407.5,-324 401.5,-318 401.5,-312 401.5,-312 401.5,-300 401.5,-300 401.5,-294 407.5,-288 413.5,-288 413.5,-288 506.5,-288 506.5,-288 512.5,-288 518.5,-294 518.5,-300 518.5,-300 518.5,-312 518.5,-312 518.5,-318 512.5,-324 506.5,-324"/>
<text text-anchor="middle" x="460" y="-303.5" font-family="sans" font-size="10.00">MACS_no_downsmpl</text>
</g>
<!-- 5&#45;&gt;17 -->
<g id="edge25" class="edge"><title>5&#45;&gt;17</title>
<path fill="none" stroke="grey" stroke-width="2" d="M369.355,-359.876C385.045,-350.724 404.557,-339.342 421.454,-329.485"/>
<polygon fill="grey" stroke="grey" stroke-width="2" points="423.658,-332.252 430.532,-324.19 420.13,-326.205 423.658,-332.252"/>
</g>
<!-- 6&#45;&gt;0 -->
<g id="edge4" class="edge"><title>6&#45;&gt;0</title>
<path fill="none" stroke="grey" stroke-width="2" d="M294.046,-215.936C288.188,-185.309 273.078,-119.755 244,-72 237.622,-61.5258 228.804,-51.5173 220.239,-43.0747"/>
<polygon fill="grey" stroke="grey" stroke-width="2" points="222.517,-40.4119 212.845,-36.0862 217.709,-45.499 222.517,-40.4119"/>
</g>
<!-- 7 -->
<g id="node8" class="node"><title>7</title>
<path fill="none" stroke="#566bd8" stroke-width="2" d="M484,-108C484,-108 308,-108 308,-108 302,-108 296,-102 296,-96 296,-96 296,-84 296,-84 296,-78 302,-72 308,-72 308,-72 484,-72 484,-72 490,-72 496,-78 496,-84 496,-84 496,-96 496,-96 496,-102 490,-108 484,-108"/>
<text text-anchor="middle" x="396" y="-87.5" font-family="sans" font-size="10.00">merge_catalog_counts_no_downsmpl</text>
</g>
<!-- 7&#45;&gt;0 -->
<g id="edge7" class="edge"><title>7&#45;&gt;0</title>
<path fill="none" stroke="grey" stroke-width="2" d="M346.357,-71.9656C310.124,-59.5327 261.798,-42.9503 228.937,-31.6744"/>
<polygon fill="grey" stroke="grey" stroke-width="2" points="229.86,-28.291 219.266,-28.3558 227.588,-34.912 229.86,-28.291"/>
</g>
<!-- 8 -->
<g id="node9" class="node"><title>8</title>
<path fill="none" stroke="#d8cb56" stroke-width="2" d="M164,-900C164,-900 134,-900 134,-900 128,-900 122,-894 122,-888 122,-888 122,-876 122,-876 122,-870 128,-864 134,-864 134,-864 164,-864 164,-864 170,-864 176,-870 176,-876 176,-876 176,-888 176,-888 176,-894 170,-900 164,-900"/>
<text text-anchor="middle" x="149" y="-879.5" font-family="sans" font-size="10.00">align</text>
</g>
<!-- 8&#45;&gt;1 -->
<g id="edge8" class="edge"><title>8&#45;&gt;1</title>
<path fill="none" stroke="grey" stroke-width="2" d="M160.618,-863.697C166.139,-855.474 172.847,-845.483 178.932,-836.421"/>
<polygon fill="grey" stroke="grey" stroke-width="2" points="181.847,-838.358 184.516,-828.104 176.035,-834.456 181.847,-838.358"/>
</g>
<!-- 9&#45;&gt;2 -->
<g id="edge9" class="edge"><title>9&#45;&gt;2</title>
<path fill="none" stroke="grey" stroke-width="2" d="M236.844,-719.871C238.037,-695.67 240.229,-651.211 241.65,-622.393"/>
<polygon fill="grey" stroke="grey" stroke-width="2" points="245.156,-622.349 242.153,-612.189 238.164,-622.005 245.156,-622.349"/>
</g>
<!-- 10 -->
<g id="node11" class="node"><title>10</title>
<path fill="none" stroke="#88d856" stroke-width="2" d="M107,-972C107,-972 69,-972 69,-972 63,-972 57,-966 57,-960 57,-960 57,-948 57,-948 57,-942 63,-936 69,-936 69,-936 107,-936 107,-936 113,-936 119,-942 119,-948 119,-948 119,-960 119,-960 119,-966 113,-972 107,-972"/>
<text text-anchor="middle" x="88" y="-951.5" font-family="sans" font-size="10.00">trimming</text>
</g>
<!-- 10&#45;&gt;3 -->
<g id="edge10" class="edge"><title>10&#45;&gt;3</title>
<path fill="none" stroke="grey" stroke-width="2" d="M80.642,-935.871C70.1541,-911.457 50.8097,-866.426 38.4419,-837.635"/>
<polygon fill="grey" stroke="grey" stroke-width="2" points="41.547,-835.996 34.3841,-828.189 35.1153,-838.759 41.547,-835.996"/>
</g>
<!-- 10&#45;&gt;4 -->
<g id="edge11" class="edge"><title>10&#45;&gt;4</title>
<path fill="none" stroke="grey" stroke-width="2" d="M88,-935.966C88,-888.291 88,-753.185 88,-694.63"/>
<polygon fill="grey" stroke="grey" stroke-width="2" points="91.5001,-694.306 88,-684.306 84.5001,-694.306 91.5001,-694.306"/>
</g>
<!-- 10&#45;&gt;8 -->
<g id="edge15" class="edge"><title>10&#45;&gt;8</title>
<path fill="none" stroke="grey" stroke-width="2" d="M103.079,-935.697C110.392,-927.305 119.31,-917.07 127.335,-907.861"/>
<polygon fill="grey" stroke="grey" stroke-width="2" points="130.164,-909.943 134.095,-900.104 124.886,-905.344 130.164,-909.943"/>
</g>
<!-- 11 -->
<g id="node12" class="node"><title>11</title>
<path fill="none" stroke="#ced856" stroke-width="2" d="M362,-468C362,-468 318,-468 318,-468 312,-468 306,-462 306,-456 306,-456 306,-444 306,-444 306,-438 312,-432 318,-432 318,-432 362,-432 362,-432 368,-432 374,-438 374,-444 374,-444 374,-456 374,-456 374,-462 368,-468 362,-468"/>
<text text-anchor="middle" x="340" y="-447.5" font-family="sans" font-size="10.00">shiftReads</text>
</g>
<!-- 11&#45;&gt;5 -->
<g id="edge12" class="edge"><title>11&#45;&gt;5</title>
<path fill="none" stroke="grey" stroke-width="2" d="M340,-431.697C340,-423.983 340,-414.712 340,-406.112"/>
<polygon fill="grey" stroke="grey" stroke-width="2" points="343.5,-406.104 340,-396.104 336.5,-406.104 343.5,-406.104"/>
</g>
<!-- 12&#45;&gt;7 -->
<g id="edge14" class="edge"><title>12&#45;&gt;7</title>
<path fill="none" stroke="grey" stroke-width="2" d="M396,-143.697C396,-135.983 396,-126.712 396,-118.112"/>
<polygon fill="grey" stroke="grey" stroke-width="2" points="399.5,-118.104 396,-108.104 392.5,-118.104 399.5,-118.104"/>
</g>
<!-- 13 -->
<g id="node14" class="node"><title>13</title>
<path fill="none" stroke="#d86e56" stroke-width="2" d="M407.5,-612C407.5,-612 334.5,-612 334.5,-612 328.5,-612 322.5,-606 322.5,-600 322.5,-600 322.5,-588 322.5,-588 322.5,-582 328.5,-576 334.5,-576 334.5,-576 407.5,-576 407.5,-576 413.5,-576 419.5,-582 419.5,-588 419.5,-588 419.5,-600 419.5,-600 419.5,-606 413.5,-612 407.5,-612"/>
<text text-anchor="middle" x="371" y="-591.5" font-family="sans" font-size="10.00">samtoolsQuality</text>
</g>
<!-- 13&#45;&gt;11 -->
<g id="edge17" class="edge"><title>13&#45;&gt;11</title>
<path fill="none" stroke="grey" stroke-width="2" d="M361.416,-575.891C356.222,-565.771 350.222,-552.521 347,-540 341.762,-519.643 340.109,-495.877 339.713,-478.027"/>
<polygon fill="grey" stroke="grey" stroke-width="2" points="343.213,-477.979 339.608,-468.016 336.213,-478.052 343.213,-477.979"/>
</g>
<!-- 14 -->
<g id="node15" class="node"><title>14</title>
<path fill="none" stroke="#d85656" stroke-width="2" d="M398,-540C398,-540 368,-540 368,-540 362,-540 356,-534 356,-528 356,-528 356,-516 356,-516 356,-510 362,-504 368,-504 368,-504 398,-504 398,-504 404,-504 410,-510 410,-516 410,-516 410,-528 410,-528 410,-534 404,-540 398,-540"/>
<text text-anchor="middle" x="383" y="-519.5" font-family="sans" font-size="10.00">index</text>
</g>
<!-- 13&#45;&gt;14 -->
<g id="edge22" class="edge"><title>13&#45;&gt;14</title>
<path fill="none" stroke="grey" stroke-width="2" d="M373.966,-575.697C375.289,-567.983 376.878,-558.712 378.352,-550.112"/>
<polygon fill="grey" stroke="grey" stroke-width="2" points="381.828,-550.552 380.068,-540.104 374.928,-549.369 381.828,-550.552"/>
</g>
<!-- 14&#45;&gt;11 -->
<g id="edge18" class="edge"><title>14&#45;&gt;11</title>
<path fill="none" stroke="grey" stroke-width="2" d="M372.371,-503.697C367.372,-495.559 361.309,-485.689 355.788,-476.701"/>
<polygon fill="grey" stroke="grey" stroke-width="2" points="358.723,-474.793 350.507,-468.104 352.759,-478.457 358.723,-474.793"/>
</g>
<!-- 15 -->
<g id="node16" class="node"><title>15</title>
<path fill="none" stroke="#56b1d8" stroke-width="2" d="M535.5,-252C535.5,-252 404.5,-252 404.5,-252 398.5,-252 392.5,-246 392.5,-240 392.5,-240 392.5,-228 392.5,-228 392.5,-222 398.5,-216 404.5,-216 404.5,-216 535.5,-216 535.5,-216 541.5,-216 547.5,-222 547.5,-228 547.5,-228 547.5,-240 547.5,-240 547.5,-246 541.5,-252 535.5,-252"/>
<text text-anchor="middle" x="470" y="-231.5" font-family="sans" font-size="10.00">peak_catalog_no_downsmpl</text>
</g>
<!-- 15&#45;&gt;12 -->
<g id="edge20" class="edge"><title>15&#45;&gt;12</title>
<path fill="none" stroke="grey" stroke-width="2" d="M451.708,-215.697C442.567,-207.05 431.36,-196.449 421.4,-187.027"/>
<polygon fill="grey" stroke="grey" stroke-width="2" points="423.752,-184.434 414.082,-180.104 418.941,-189.519 423.752,-184.434"/>
</g>
<!-- 16 -->
<g id="node17" class="node"><title>16</title>
<path fill="none" stroke="#d88556" stroke-width="2" d="M383,-684C383,-684 353,-684 353,-684 347,-684 341,-678 341,-672 341,-672 341,-660 341,-660 341,-654 347,-648 353,-648 353,-648 383,-648 383,-648 389,-648 395,-654 395,-660 395,-660 395,-672 395,-672 395,-678 389,-684 383,-684"/>
<text text-anchor="middle" x="368" y="-663.5" font-family="sans" font-size="10.00">dedup</text>
</g>
<!-- 16&#45;&gt;13 -->
<g id="edge21" class="edge"><title>16&#45;&gt;13</title>
<path fill="none" stroke="grey" stroke-width="2" d="M368.742,-647.697C369.072,-639.983 369.469,-630.712 369.838,-622.112"/>
<polygon fill="grey" stroke="grey" stroke-width="2" points="373.335,-622.245 370.267,-612.104 366.342,-621.945 373.335,-622.245"/>
</g>
<!-- 17&#45;&gt;15 -->
<g id="edge23" class="edge"><title>17&#45;&gt;15</title>
<path fill="none" stroke="grey" stroke-width="2" d="M462.472,-287.697C463.574,-279.983 464.898,-270.712 466.127,-262.112"/>
<polygon fill="grey" stroke="grey" stroke-width="2" points="469.607,-262.499 467.557,-252.104 462.677,-261.509 469.607,-262.499"/>
</g>
<!-- 18&#45;&gt;16 -->
<g id="edge24" class="edge"><title>18&#45;&gt;16</title>
<path fill="none" stroke="grey" stroke-width="2" d="M365.742,-719.697C366.072,-711.983 366.469,-702.712 366.838,-694.112"/>
<polygon fill="grey" stroke="grey" stroke-width="2" points="370.335,-694.245 367.267,-684.104 363.342,-693.945 370.335,-694.245"/>
</g>
</g>
</svg>
