<?xml version="1.0" encoding="UTF-8" standalone="no"?>
<!DOCTYPE svg PUBLIC "-//W3C//DTD SVG 1.1//EN"
 "http://www.w3.org/Graphics/SVG/1.1/DTD/svg11.dtd">
<!-- Generated by graphviz version 2.38.0 (20140413.2041)
 -->
<!-- Title: snakemake_dag Pages: 1 -->
<svg width="450pt" height="260pt"
 viewBox="0.00 0.00 450.28 260.00" xmlns="http://www.w3.org/2000/svg" xmlns:xlink="http://www.w3.org/1999/xlink">
<g id="graph0" class="graph" transform="scale(1 1) rotate(0) translate(4 256)">
<title>snakemake_dag</title>
<polygon fill="white" stroke="none" points="-4,4 -4,-256 446.284,-256 446.284,4 -4,4"/>
<!-- 0 -->
<g id="node1" class="node"><title>0</title>
<path fill="none" stroke="#d86e56" stroke-width="2" d="M312.784,-36C312.784,-36 282.784,-36 282.784,-36 276.784,-36 270.784,-30 270.784,-24 270.784,-24 270.784,-12 270.784,-12 270.784,-6 276.784,-0 282.784,-0 282.784,-0 312.784,-0 312.784,-0 318.784,-0 324.784,-6 324.784,-12 324.784,-12 324.784,-24 324.784,-24 324.784,-30 318.784,-36 312.784,-36"/>
<text text-anchor="middle" x="297.784" y="-15.5" font-family="sans" font-size="10.00">all</text>
</g>
<!-- 1 -->
<g id="node2" class="node"><title>1</title>
<path fill="none" stroke="#56a9d8" stroke-width="2" d="M104.784,-180C104.784,-180 58.7836,-180 58.7836,-180 52.7836,-180 46.7836,-174 46.7836,-168 46.7836,-168 46.7836,-156 46.7836,-156 46.7836,-150 52.7836,-144 58.7836,-144 58.7836,-144 104.784,-144 104.784,-144 110.784,-144 116.784,-150 116.784,-156 116.784,-156 116.784,-168 116.784,-168 116.784,-174 110.784,-180 104.784,-180"/>
<text text-anchor="middle" x="81.7836" y="-159.5" font-family="sans" font-size="10.00">align_stats</text>
</g>
<!-- 1&#45;&gt;0 -->
<g id="edge6" class="edge"><title>1&#45;&gt;0</title>
<path fill="none" stroke="grey" stroke-width="2" d="M46.656,-145.52C31.4846,-136.845 15.2881,-124.424 6.78358,-108 -0.573723,-93.7919 -3.46653,-84.2856 6.78358,-72 38.6225,-33.8385 188.678,-23.0854 259.979,-20.1101"/>
<polygon fill="grey" stroke="grey" stroke-width="2" points="260.454,-23.5945 270.311,-19.7108 260.183,-16.5997 260.454,-23.5945"/>
</g>
<!-- 7 -->
<g id="node8" class="node"><title>7</title>
<path fill="none" stroke="#d8ac56" stroke-width="2" d="M239.284,-108C239.284,-108 168.284,-108 168.284,-108 162.284,-108 156.284,-102 156.284,-96 156.284,-96 156.284,-84 156.284,-84 156.284,-78 162.284,-72 168.284,-72 168.284,-72 239.284,-72 239.284,-72 245.284,-72 251.284,-78 251.284,-84 251.284,-84 251.284,-96 251.284,-96 251.284,-102 245.284,-108 239.284,-108"/>
<text text-anchor="middle" x="203.784" y="-87.5" font-family="sans" font-size="10.00">essential_report</text>
</g>
<!-- 1&#45;&gt;7 -->
<g id="edge11" class="edge"><title>1&#45;&gt;7</title>
<path fill="none" stroke="grey" stroke-width="2" d="M111.628,-143.876C127.727,-134.639 147.784,-123.131 165.072,-113.212"/>
<polygon fill="grey" stroke="grey" stroke-width="2" points="166.892,-116.202 173.824,-108.19 163.409,-110.131 166.892,-116.202"/>
</g>
<!-- 2 -->
<g id="node3" class="node"><title>2</title>
<path fill="none" stroke="#566bd8" stroke-width="2" d="M125.784,-108C125.784,-108 27.7836,-108 27.7836,-108 21.7836,-108 15.7836,-102 15.7836,-96 15.7836,-96 15.7836,-84 15.7836,-84 15.7836,-78 21.7836,-72 27.7836,-72 27.7836,-72 125.784,-72 125.784,-72 131.784,-72 137.784,-78 137.784,-84 137.784,-84 137.784,-96 137.784,-96 137.784,-102 131.784,-108 125.784,-108"/>
<text text-anchor="middle" x="76.7836" y="-87.5" font-family="sans" font-size="10.00">fragment_length_plot</text>
</g>
<!-- 2&#45;&gt;0 -->
<g id="edge7" class="edge"><title>2&#45;&gt;0</title>
<path fill="none" stroke="grey" stroke-width="2" d="M130.564,-71.9656C170.916,-59.1845 225.112,-42.018 260.72,-30.7396"/>
<polygon fill="grey" stroke="grey" stroke-width="2" points="262.214,-33.9379 270.69,-27.5816 260.1,-27.2646 262.214,-33.9379"/>
</g>
<!-- 3 -->
<g id="node4" class="node"><title>3</title>
<path fill="none" stroke="#d85656" stroke-width="2" d="M280.784,-180C280.784,-180 202.784,-180 202.784,-180 196.784,-180 190.784,-174 190.784,-168 190.784,-168 190.784,-156 190.784,-156 190.784,-150 196.784,-144 202.784,-144 202.784,-144 280.784,-144 280.784,-144 286.784,-144 292.784,-150 292.784,-156 292.784,-156 292.784,-168 292.784,-168 292.784,-174 286.784,-180 280.784,-180"/>
<text text-anchor="middle" x="241.784" y="-159.5" font-family="sans" font-size="10.00">consensus_peaks</text>
</g>
<!-- 3&#45;&gt;0 -->
<g id="edge3" class="edge"><title>3&#45;&gt;0</title>
<path fill="none" stroke="grey" stroke-width="2" d="M292.897,-143.843C309.213,-135.67 325.447,-124.068 334.784,-108 346.74,-87.4237 333.993,-62.2416 320.3,-43.9215"/>
<polygon fill="grey" stroke="grey" stroke-width="2" points="322.989,-41.6796 314.027,-36.0283 317.508,-46.0348 322.989,-41.6796"/>
</g>
<!-- 3&#45;&gt;7 -->
<g id="edge9" class="edge"><title>3&#45;&gt;7</title>
<path fill="none" stroke="grey" stroke-width="2" d="M232.39,-143.697C228.019,-135.644 222.726,-125.894 217.888,-116.982"/>
<polygon fill="grey" stroke="grey" stroke-width="2" points="220.916,-115.223 213.069,-108.104 214.764,-118.563 220.916,-115.223"/>
</g>
<!-- 4 -->
<g id="node5" class="node"><title>4</title>
<path fill="none" stroke="#61d856" stroke-width="2" d="M314.284,-108C314.284,-108 281.284,-108 281.284,-108 275.284,-108 269.284,-102 269.284,-96 269.284,-96 269.284,-84 269.284,-84 269.284,-78 275.284,-72 281.284,-72 281.284,-72 314.284,-72 314.284,-72 320.284,-72 326.284,-78 326.284,-84 326.284,-84 326.284,-96 326.284,-96 326.284,-102 320.284,-108 314.284,-108"/>
<text text-anchor="middle" x="297.784" y="-87.5" font-family="sans" font-size="10.00">frip_plot</text>
</g>
<!-- 4&#45;&gt;0 -->
<g id="edge4" class="edge"><title>4&#45;&gt;0</title>
<path fill="none" stroke="grey" stroke-width="2" d="M297.784,-71.6966C297.784,-63.9827 297.784,-54.7125 297.784,-46.1124"/>
<polygon fill="grey" stroke="grey" stroke-width="2" points="301.284,-46.1043 297.784,-36.1043 294.284,-46.1044 301.284,-46.1043"/>
</g>
<!-- 5 -->
<g id="node6" class="node"><title>5</title>
<path fill="none" stroke="#d8bc56" stroke-width="2" d="M430.284,-252C430.284,-252 375.284,-252 375.284,-252 369.284,-252 363.284,-246 363.284,-240 363.284,-240 363.284,-228 363.284,-228 363.284,-222 369.284,-216 375.284,-216 375.284,-216 430.284,-216 430.284,-216 436.284,-216 442.284,-222 442.284,-228 442.284,-228 442.284,-240 442.284,-240 442.284,-246 436.284,-252 430.284,-252"/>
<text text-anchor="middle" x="402.784" y="-231.5" font-family="sans" font-size="10.00">counts_table</text>
</g>
<!-- 5&#45;&gt;0 -->
<g id="edge2" class="edge"><title>5&#45;&gt;0</title>
<path fill="none" stroke="grey" stroke-width="2" d="M407.979,-215.691C412.622,-197.574 417.833,-168.421 411.784,-144 403.084,-108.878 397.744,-99.1137 373.784,-72 362.424,-59.1457 347.341,-47.8038 333.607,-38.9448"/>
<polygon fill="grey" stroke="grey" stroke-width="2" points="335.171,-35.7957 324.829,-33.4908 331.476,-41.7415 335.171,-35.7957"/>
</g>
<!-- 6 -->
<g id="node7" class="node"><title>6</title>
<path fill="none" stroke="#56d0d8" stroke-width="2" d="M390.784,-180C390.784,-180 360.784,-180 360.784,-180 354.784,-180 348.784,-174 348.784,-168 348.784,-168 348.784,-156 348.784,-156 348.784,-150 354.784,-144 360.784,-144 360.784,-144 390.784,-144 390.784,-144 396.784,-144 402.784,-150 402.784,-156 402.784,-156 402.784,-168 402.784,-168 402.784,-174 396.784,-180 390.784,-180"/>
<text text-anchor="middle" x="375.784" y="-159.5" font-family="sans" font-size="10.00">deseq2</text>
</g>
<!-- 5&#45;&gt;6 -->
<g id="edge8" class="edge"><title>5&#45;&gt;6</title>
<path fill="none" stroke="grey" stroke-width="2" d="M396.109,-215.697C393.069,-207.813 389.401,-198.304 386.023,-189.546"/>
<polygon fill="grey" stroke="grey" stroke-width="2" points="389.245,-188.175 382.381,-180.104 382.714,-190.694 389.245,-188.175"/>
</g>
<!-- 6&#45;&gt;0 -->
<g id="edge5" class="edge"><title>6&#45;&gt;0</title>
<path fill="none" stroke="grey" stroke-width="2" d="M373.894,-143.899C371.229,-125.178 365.111,-94.7952 351.784,-72 345.579,-61.3873 336.694,-51.451 327.918,-43.1148"/>
<polygon fill="grey" stroke="grey" stroke-width="2" points="330.066,-40.339 320.303,-36.2242 325.369,-45.5293 330.066,-40.339"/>
</g>
<!-- 6&#45;&gt;7 -->
<g id="edge10" class="edge"><title>6&#45;&gt;7</title>
<path fill="none" stroke="grey" stroke-width="2" d="M348.53,-149.908C323.463,-139.707 285.642,-124.314 254.946,-111.822"/>
<polygon fill="grey" stroke="grey" stroke-width="2" points="256.252,-108.575 245.67,-108.047 253.613,-115.058 256.252,-108.575"/>
</g>
<!-- 7&#45;&gt;0 -->
<g id="edge1" class="edge"><title>7&#45;&gt;0</title>
<path fill="none" stroke="grey" stroke-width="2" d="M227.02,-71.6966C238.972,-62.796 253.707,-51.8232 266.631,-42.1989"/>
<polygon fill="grey" stroke="grey" stroke-width="2" points="268.885,-44.8842 274.815,-36.1043 264.704,-39.2699 268.885,-44.8842"/>
</g>
</g>
</svg>
