<?xml version="1.0" encoding="UTF-8" standalone="no"?>
<!DOCTYPE svg PUBLIC "-//W3C//DTD SVG 1.1//EN"
 "http://www.w3.org/Graphics/SVG/1.1/DTD/svg11.dtd">
<!-- Generated by graphviz version 2.38.0 (20140413.2041)
 -->
<!-- Title: snakemake_dag Pages: 1 -->
<svg width="690pt" height="1052pt"
 viewBox="0.00 0.00 689.60 1052.00" xmlns="http://www.w3.org/2000/svg" xmlns:xlink="http://www.w3.org/1999/xlink">
<g id="graph0" class="graph" transform="scale(1 1) rotate(0) translate(4 1048)">
<title>snakemake_dag</title>
<polygon fill="white" stroke="none" points="-4,4 -4,-1048 685.604,-1048 685.604,4 -4,4"/>
<!-- 0 -->
<g id="node1" class="node"><title>0</title>
<path fill="none" stroke="#d8ac56" stroke-width="2" d="M323.104,-36C323.104,-36 293.104,-36 293.104,-36 287.104,-36 281.104,-30 281.104,-24 281.104,-24 281.104,-12 281.104,-12 281.104,-6 287.104,-0 293.104,-0 293.104,-0 323.104,-0 323.104,-0 329.104,-0 335.104,-6 335.104,-12 335.104,-12 335.104,-24 335.104,-24 335.104,-30 329.104,-36 323.104,-36"/>
<text text-anchor="middle" x="308.104" y="-15.5" font-family="sans" font-size="10.00">all</text>
</g>
<!-- 1 -->
<g id="node2" class="node"><title>1</title>
<path fill="none" stroke="#61d856" stroke-width="2" d="M356.104,-180C356.104,-180 310.104,-180 310.104,-180 304.104,-180 298.104,-174 298.104,-168 298.104,-168 298.104,-156 298.104,-156 298.104,-150 304.104,-144 310.104,-144 310.104,-144 356.104,-144 356.104,-144 362.104,-144 368.104,-150 368.104,-156 368.104,-156 368.104,-168 368.104,-168 368.104,-174 362.104,-180 356.104,-180"/>
<text text-anchor="middle" x="333.104" y="-159.5" font-family="sans" font-size="10.00">align_stats</text>
</g>
<!-- 1&#45;&gt;0 -->
<g id="edge11" class="edge"><title>1&#45;&gt;0</title>
<path fill="none" stroke="grey" stroke-width="2" d="M331.677,-143.83C330.019,-125.827 326.883,-96.7649 322.104,-72 320.456,-63.4584 318.2,-54.2596 315.98,-45.9618"/>
<polygon fill="grey" stroke="grey" stroke-width="2" points="319.278,-44.7542 313.237,-36.0504 312.532,-46.6218 319.278,-44.7542"/>
</g>
<!-- 11 -->
<g id="node12" class="node"><title>11</title>
<path fill="none" stroke="#56c1d8" stroke-width="2" d="M267.604,-108C267.604,-108 196.604,-108 196.604,-108 190.604,-108 184.604,-102 184.604,-96 184.604,-96 184.604,-84 184.604,-84 184.604,-78 190.604,-72 196.604,-72 196.604,-72 267.604,-72 267.604,-72 273.604,-72 279.604,-78 279.604,-84 279.604,-84 279.604,-96 279.604,-96 279.604,-102 273.604,-108 267.604,-108"/>
<text text-anchor="middle" x="232.104" y="-87.5" font-family="sans" font-size="10.00">essential_report</text>
</g>
<!-- 1&#45;&gt;11 -->
<g id="edge24" class="edge"><title>1&#45;&gt;11</title>
<path fill="none" stroke="grey" stroke-width="2" d="M308.397,-143.876C295.436,-134.893 279.376,-123.763 265.339,-114.034"/>
<polygon fill="grey" stroke="grey" stroke-width="2" points="267.119,-111.009 256.907,-108.19 263.132,-116.763 267.119,-111.009"/>
</g>
<!-- 2 -->
<g id="node3" class="node"><title>2</title>
<path fill="none" stroke="#b6d856" stroke-width="2" d="M452.604,-900C452.604,-900 419.604,-900 419.604,-900 413.604,-900 407.604,-894 407.604,-888 407.604,-888 407.604,-876 407.604,-876 407.604,-870 413.604,-864 419.604,-864 419.604,-864 452.604,-864 452.604,-864 458.604,-864 464.604,-870 464.604,-876 464.604,-876 464.604,-888 464.604,-888 464.604,-894 458.604,-900 452.604,-900"/>
<text text-anchor="middle" x="436.104" y="-879.5" font-family="sans" font-size="10.00">sortbam</text>
</g>
<!-- 2&#45;&gt;0 -->
<g id="edge2" class="edge"><title>2&#45;&gt;0</title>
<path fill="none" stroke="grey" stroke-width="2" d="M428.01,-863.949C416.322,-837.72 396.104,-785.614 396.104,-739 396.104,-739 396.104,-739 396.104,-161 396.104,-114.013 360.861,-69.6272 334.982,-43.3681"/>
<polygon fill="grey" stroke="grey" stroke-width="2" points="337.217,-40.6569 327.634,-36.1366 332.306,-45.6458 337.217,-40.6569"/>
</g>
<!-- 12 -->
<g id="node13" class="node"><title>12</title>
<path fill="none" stroke="#d87d56" stroke-width="2" d="M356.104,-828C356.104,-828 266.104,-828 266.104,-828 260.104,-828 254.104,-822 254.104,-816 254.104,-816 254.104,-804 254.104,-804 254.104,-798 260.104,-792 266.104,-792 266.104,-792 356.104,-792 356.104,-792 362.104,-792 368.104,-798 368.104,-804 368.104,-804 368.104,-816 368.104,-816 368.104,-822 362.104,-828 356.104,-828"/>
<text text-anchor="middle" x="311.104" y="-807.5" font-family="sans" font-size="10.00">remove_mito_reads</text>
</g>
<!-- 2&#45;&gt;12 -->
<g id="edge26" class="edge"><title>2&#45;&gt;12</title>
<path fill="none" stroke="grey" stroke-width="2" d="M407.427,-864.941C390.578,-855.505 369.037,-843.443 350.6,-833.118"/>
<polygon fill="grey" stroke="grey" stroke-width="2" points="352.268,-830.04 341.833,-828.208 348.848,-836.148 352.268,-830.04"/>
</g>
<!-- 14 -->
<g id="node15" class="node"><title>14</title>
<path fill="none" stroke="#566bd8" stroke-width="2" d="M513.104,-828C513.104,-828 439.104,-828 439.104,-828 433.104,-828 427.104,-822 427.104,-816 427.104,-816 427.104,-804 427.104,-804 427.104,-798 433.104,-792 439.104,-792 439.104,-792 513.104,-792 513.104,-792 519.104,-792 525.104,-798 525.104,-804 525.104,-804 525.104,-816 525.104,-816 525.104,-822 519.104,-828 513.104,-828"/>
<text text-anchor="middle" x="476.104" y="-807.5" font-family="sans" font-size="10.00">fragment_length</text>
</g>
<!-- 2&#45;&gt;14 -->
<g id="edge28" class="edge"><title>2&#45;&gt;14</title>
<path fill="none" stroke="grey" stroke-width="2" d="M445.992,-863.697C450.594,-855.644 456.165,-845.894 461.257,-836.982"/>
<polygon fill="grey" stroke="grey" stroke-width="2" points="464.408,-838.523 466.33,-828.104 458.33,-835.05 464.408,-838.523"/>
</g>
<!-- 3 -->
<g id="node4" class="node"><title>3</title>
<path fill="none" stroke="#56a9d8" stroke-width="2" d="M534.104,-684C534.104,-684 436.104,-684 436.104,-684 430.104,-684 424.104,-678 424.104,-672 424.104,-672 424.104,-660 424.104,-660 424.104,-654 430.104,-648 436.104,-648 436.104,-648 534.104,-648 534.104,-648 540.104,-648 546.104,-654 546.104,-660 546.104,-660 546.104,-672 546.104,-672 546.104,-678 540.104,-684 534.104,-684"/>
<text text-anchor="middle" x="485.104" y="-663.5" font-family="sans" font-size="10.00">fragment_length_plot</text>
</g>
<!-- 3&#45;&gt;0 -->
<g id="edge4" class="edge"><title>3&#45;&gt;0</title>
<path fill="none" stroke="grey" stroke-width="2" d="M479.843,-647.698C472.246,-621.142 459.104,-568.614 459.104,-523 459.104,-523 459.104,-523 459.104,-161 459.104,-115.846 442.415,-103.542 410.104,-72 391.653,-53.9875 365.843,-40.656 344.803,-31.869"/>
<polygon fill="grey" stroke="grey" stroke-width="2" points="346.1,-28.6181 335.515,-28.151 343.498,-35.1168 346.1,-28.6181"/>
</g>
<!-- 4 -->
<g id="node5" class="node"><title>4</title>
<path fill="none" stroke="#56d8c9" stroke-width="2" d="M589.104,-900C589.104,-900 559.104,-900 559.104,-900 553.104,-900 547.104,-894 547.104,-888 547.104,-888 547.104,-876 547.104,-876 547.104,-870 553.104,-864 559.104,-864 559.104,-864 589.104,-864 589.104,-864 595.104,-864 601.104,-870 601.104,-876 601.104,-876 601.104,-888 601.104,-888 601.104,-894 595.104,-900 589.104,-900"/>
<text text-anchor="middle" x="574.104" y="-879.5" font-family="sans" font-size="10.00">fastqc</text>
</g>
<!-- 4&#45;&gt;0 -->
<g id="edge9" class="edge"><title>4&#45;&gt;0</title>
<path fill="none" stroke="grey" stroke-width="2" d="M574.104,-863.951C574.104,-837.292 574.104,-784.115 574.104,-739 574.104,-739 574.104,-739 574.104,-161 574.104,-58.7152 419.148,-29.846 345.775,-21.9096"/>
<polygon fill="grey" stroke="grey" stroke-width="2" points="345.869,-18.4015 335.569,-20.8842 345.169,-25.3664 345.869,-18.4015"/>
</g>
<!-- 5 -->
<g id="node6" class="node"><title>5</title>
<path fill="none" stroke="#56d0d8" stroke-width="2" d="M669.604,-756C669.604,-756 614.604,-756 614.604,-756 608.604,-756 602.604,-750 602.604,-744 602.604,-744 602.604,-732 602.604,-732 602.604,-726 608.604,-720 614.604,-720 614.604,-720 669.604,-720 669.604,-720 675.604,-720 681.604,-726 681.604,-732 681.604,-732 681.604,-744 681.604,-744 681.604,-750 675.604,-756 669.604,-756"/>
<text text-anchor="middle" x="642.104" y="-735.5" font-family="sans" font-size="10.00">fastq_screen</text>
</g>
<!-- 5&#45;&gt;0 -->
<g id="edge10" class="edge"><title>5&#45;&gt;0</title>
<path fill="none" stroke="grey" stroke-width="2" d="M639.069,-719.574C634.686,-692.855 627.104,-640.118 627.104,-595 627.104,-595 627.104,-595 627.104,-161 627.104,-117.813 621.89,-98.9006 588.104,-72 551.09,-42.5284 413.085,-27.5101 345.659,-21.7994"/>
<polygon fill="grey" stroke="grey" stroke-width="2" points="345.723,-18.2929 335.47,-20.9619 345.15,-25.2694 345.723,-18.2929"/>
</g>
<!-- 6 -->
<g id="node7" class="node"><title>6</title>
<path fill="none" stroke="#56d88a" stroke-width="2" d="M245.104,-396C245.104,-396 167.104,-396 167.104,-396 161.104,-396 155.104,-390 155.104,-384 155.104,-384 155.104,-372 155.104,-372 155.104,-366 161.104,-360 167.104,-360 167.104,-360 245.104,-360 245.104,-360 251.104,-360 257.104,-366 257.104,-372 257.104,-372 257.104,-384 257.104,-384 257.104,-390 251.104,-396 245.104,-396"/>
<text text-anchor="middle" x="206.104" y="-375.5" font-family="sans" font-size="10.00">consensus_peaks</text>
</g>
<!-- 6&#45;&gt;0 -->
<g id="edge3" class="edge"><title>6&#45;&gt;0</title>
<path fill="none" stroke="grey" stroke-width="2" d="M214.411,-359.584C219.096,-349.362 224.846,-336.112 229.104,-324 262.108,-230.115 264.077,-204.573 288.104,-108 293.234,-87.3826 298.48,-63.9325 302.311,-46.2807"/>
<polygon fill="grey" stroke="grey" stroke-width="2" points="305.816,-46.6292 304.5,-36.1164 298.973,-45.1552 305.816,-46.6292"/>
</g>
<!-- 6&#45;&gt;11 -->
<g id="edge25" class="edge"><title>6&#45;&gt;11</title>
<path fill="none" stroke="grey" stroke-width="2" d="M208.592,-359.84C210.039,-349.477 211.824,-335.998 213.104,-324 221.027,-249.779 227.372,-161.945 230.318,-118.365"/>
<polygon fill="grey" stroke="grey" stroke-width="2" points="233.817,-118.485 230.992,-108.273 226.833,-118.018 233.817,-118.485"/>
</g>
<!-- 17 -->
<g id="node18" class="node"><title>17</title>
<path fill="none" stroke="#d8d356" stroke-width="2" d="M83.6043,-324C83.6043,-324 42.6043,-324 42.6043,-324 36.6043,-324 30.6043,-318 30.6043,-312 30.6043,-312 30.6043,-300 30.6043,-300 30.6043,-294 36.6043,-288 42.6043,-288 42.6043,-288 83.6043,-288 83.6043,-288 89.6043,-288 95.6043,-294 95.6043,-300 95.6043,-300 95.6043,-312 95.6043,-312 95.6043,-318 89.6043,-324 83.6043,-324"/>
<text text-anchor="middle" x="63.1043" y="-303.5" font-family="sans" font-size="10.00">frip_count</text>
</g>
<!-- 6&#45;&gt;17 -->
<g id="edge31" class="edge"><title>6&#45;&gt;17</title>
<path fill="none" stroke="grey" stroke-width="2" d="M171.123,-359.876C151.099,-350.074 125.853,-337.716 104.803,-327.412"/>
<polygon fill="grey" stroke="grey" stroke-width="2" points="106.285,-324.241 95.7644,-322.987 103.207,-330.528 106.285,-324.241"/>
</g>
<!-- 18 -->
<g id="node19" class="node"><title>18</title>
<path fill="none" stroke="#5682d8" stroke-width="2" d="M192.104,-324C192.104,-324 126.104,-324 126.104,-324 120.104,-324 114.104,-318 114.104,-312 114.104,-312 114.104,-300 114.104,-300 114.104,-294 120.104,-288 126.104,-288 126.104,-288 192.104,-288 192.104,-288 198.104,-288 204.104,-294 204.104,-300 204.104,-300 204.104,-312 204.104,-312 204.104,-318 198.104,-324 192.104,-324"/>
<text text-anchor="middle" x="159.104" y="-303.5" font-family="sans" font-size="10.00">sample_counts</text>
</g>
<!-- 6&#45;&gt;18 -->
<g id="edge33" class="edge"><title>6&#45;&gt;18</title>
<path fill="none" stroke="grey" stroke-width="2" d="M194.486,-359.697C188.966,-351.474 182.257,-341.483 176.173,-332.421"/>
<polygon fill="grey" stroke="grey" stroke-width="2" points="179.069,-330.456 170.589,-324.104 173.257,-334.358 179.069,-330.456"/>
</g>
<!-- 7 -->
<g id="node8" class="node"><title>7</title>
<path fill="none" stroke="#88d856" stroke-width="2" d="M77.6043,-108C77.6043,-108 44.6043,-108 44.6043,-108 38.6043,-108 32.6043,-102 32.6043,-96 32.6043,-96 32.6043,-84 32.6043,-84 32.6043,-78 38.6043,-72 44.6043,-72 44.6043,-72 77.6043,-72 77.6043,-72 83.6043,-72 89.6043,-78 89.6043,-84 89.6043,-84 89.6043,-96 89.6043,-96 89.6043,-102 83.6043,-108 77.6043,-108"/>
<text text-anchor="middle" x="61.1043" y="-87.5" font-family="sans" font-size="10.00">frip_plot</text>
</g>
<!-- 7&#45;&gt;0 -->
<g id="edge8" class="edge"><title>7&#45;&gt;0</title>
<path fill="none" stroke="grey" stroke-width="2" d="M89.6077,-77.1677C94.4108,-75.3366 99.3727,-73.5436 104.104,-72 161.671,-53.2206 230.052,-36.5743 271.214,-27.1499"/>
<polygon fill="grey" stroke="grey" stroke-width="2" points="272.093,-30.5396 281.07,-24.9126 270.543,-23.7133 272.093,-30.5396"/>
</g>
<!-- 8 -->
<g id="node9" class="node"><title>8</title>
<path fill="none" stroke="#9fd856" stroke-width="2" d="M186.604,-252C186.604,-252 131.604,-252 131.604,-252 125.604,-252 119.604,-246 119.604,-240 119.604,-240 119.604,-228 119.604,-228 119.604,-222 125.604,-216 131.604,-216 131.604,-216 186.604,-216 186.604,-216 192.604,-216 198.604,-222 198.604,-228 198.604,-228 198.604,-240 198.604,-240 198.604,-246 192.604,-252 186.604,-252"/>
<text text-anchor="middle" x="159.104" y="-231.5" font-family="sans" font-size="10.00">counts_table</text>
</g>
<!-- 8&#45;&gt;0 -->
<g id="edge7" class="edge"><title>8&#45;&gt;0</title>
<path fill="none" stroke="grey" stroke-width="2" d="M149.974,-215.88C145.097,-205.756 139.597,-192.506 137.104,-180 127.493,-131.778 126.76,-107.189 161.104,-72 190.342,-42.0432 237.739,-28.944 270.782,-23.2642"/>
<polygon fill="grey" stroke="grey" stroke-width="2" points="271.627,-26.6746 280.965,-21.6688 270.543,-19.7589 271.627,-26.6746"/>
</g>
<!-- 10 -->
<g id="node11" class="node"><title>10</title>
<path fill="none" stroke="#56d8a2" stroke-width="2" d="M188.104,-180C188.104,-180 158.104,-180 158.104,-180 152.104,-180 146.104,-174 146.104,-168 146.104,-168 146.104,-156 146.104,-156 146.104,-150 152.104,-144 158.104,-144 158.104,-144 188.104,-144 188.104,-144 194.104,-144 200.104,-150 200.104,-156 200.104,-156 200.104,-168 200.104,-168 200.104,-174 194.104,-180 188.104,-180"/>
<text text-anchor="middle" x="173.104" y="-159.5" font-family="sans" font-size="10.00">deseq2</text>
</g>
<!-- 8&#45;&gt;10 -->
<g id="edge22" class="edge"><title>8&#45;&gt;10</title>
<path fill="none" stroke="grey" stroke-width="2" d="M162.565,-215.697C164.108,-207.983 165.962,-198.712 167.682,-190.112"/>
<polygon fill="grey" stroke="grey" stroke-width="2" points="171.154,-190.597 169.683,-180.104 164.29,-189.224 171.154,-190.597"/>
</g>
<!-- 9 -->
<g id="node10" class="node"><title>9</title>
<path fill="none" stroke="#56d8b1" stroke-width="2" d="M150.604,-540C150.604,-540 103.604,-540 103.604,-540 97.6043,-540 91.6043,-534 91.6043,-528 91.6043,-528 91.6043,-516 91.6043,-516 91.6043,-510 97.6043,-504 103.604,-504 103.604,-504 150.604,-504 150.604,-504 156.604,-504 162.604,-510 162.604,-516 162.604,-516 162.604,-528 162.604,-528 162.604,-534 156.604,-540 150.604,-540"/>
<text text-anchor="middle" x="127.104" y="-519.5" font-family="sans" font-size="10.00">shift_reads</text>
</g>
<!-- 9&#45;&gt;0 -->
<g id="edge6" class="edge"><title>9&#45;&gt;0</title>
<path fill="none" stroke="grey" stroke-width="2" d="M96.2055,-503.817C59.1894,-480.693 2.10434,-435.82 2.10434,-379 2.10434,-379 2.10434,-379 2.10434,-161 2.10434,-120.358 -6.31303,-100.042 23.1043,-72 58.1868,-38.5574 201.814,-25.4357 270.79,-20.988"/>
<polygon fill="grey" stroke="grey" stroke-width="2" points="271.033,-24.4798 280.798,-20.37 270.601,-17.4931 271.033,-24.4798"/>
</g>
<!-- 16 -->
<g id="node17" class="node"><title>16</title>
<path fill="none" stroke="#56d863" stroke-width="2" d="M209.104,-468C209.104,-468 179.104,-468 179.104,-468 173.104,-468 167.104,-462 167.104,-456 167.104,-456 167.104,-444 167.104,-444 167.104,-438 173.104,-432 179.104,-432 179.104,-432 209.104,-432 209.104,-432 215.104,-432 221.104,-438 221.104,-444 221.104,-444 221.104,-456 221.104,-456 221.104,-462 215.104,-468 209.104,-468"/>
<text text-anchor="middle" x="194.104" y="-447.5" font-family="sans" font-size="10.00">MACS</text>
</g>
<!-- 9&#45;&gt;16 -->
<g id="edge29" class="edge"><title>9&#45;&gt;16</title>
<path fill="none" stroke="grey" stroke-width="2" d="M143.666,-503.697C151.78,-495.22 161.692,-484.864 170.575,-475.583"/>
<polygon fill="grey" stroke="grey" stroke-width="2" points="173.347,-477.749 177.733,-468.104 168.29,-472.908 173.347,-477.749"/>
</g>
<!-- 9&#45;&gt;17 -->
<g id="edge30" class="edge"><title>9&#45;&gt;17</title>
<path fill="none" stroke="grey" stroke-width="2" d="M121.975,-503.849C110.858,-466.675 84.4692,-378.439 71.1254,-333.82"/>
<polygon fill="grey" stroke="grey" stroke-width="2" points="74.4766,-332.81 68.258,-324.232 67.7701,-334.816 74.4766,-332.81"/>
</g>
<!-- 9&#45;&gt;18 -->
<g id="edge32" class="edge"><title>9&#45;&gt;18</title>
<path fill="none" stroke="grey" stroke-width="2" d="M128.42,-503.977C130.853,-474.489 136.683,-412.068 146.104,-360 147.646,-351.478 149.744,-342.285 151.805,-333.987"/>
<polygon fill="grey" stroke="grey" stroke-width="2" points="155.254,-334.627 154.35,-324.071 148.474,-332.887 155.254,-334.627"/>
</g>
<!-- 10&#45;&gt;0 -->
<g id="edge5" class="edge"><title>10&#45;&gt;0</title>
<path fill="none" stroke="grey" stroke-width="2" d="M168.323,-143.895C164.016,-124.614 160.381,-93.1992 175.104,-72 196.696,-40.9102 239.663,-28.0541 270.935,-22.74"/>
<polygon fill="grey" stroke="grey" stroke-width="2" points="271.679,-26.1673 281.043,-21.2116 270.633,-19.246 271.679,-26.1673"/>
</g>
<!-- 10&#45;&gt;11 -->
<g id="edge23" class="edge"><title>10&#45;&gt;11</title>
<path fill="none" stroke="grey" stroke-width="2" d="M187.689,-143.697C194.762,-135.305 203.388,-125.07 211.15,-115.861"/>
<polygon fill="grey" stroke="grey" stroke-width="2" points="213.919,-118.006 217.688,-108.104 208.567,-113.495 213.919,-118.006"/>
</g>
<!-- 11&#45;&gt;0 -->
<g id="edge1" class="edge"><title>11&#45;&gt;0</title>
<path fill="none" stroke="grey" stroke-width="2" d="M250.891,-71.6966C260.278,-63.0503 271.789,-52.4486 282.018,-43.027"/>
<polygon fill="grey" stroke="grey" stroke-width="2" points="284.55,-45.4535 289.534,-36.1043 279.807,-40.3047 284.55,-45.4535"/>
</g>
<!-- 12&#45;&gt;1 -->
<g id="edge12" class="edge"><title>12&#45;&gt;1</title>
<path fill="none" stroke="grey" stroke-width="2" d="M313.278,-791.984C316.483,-765.369 322.104,-712.25 322.104,-667 322.104,-667 322.104,-667 322.104,-305 322.104,-264.876 326.524,-218.565 329.76,-190.032"/>
<polygon fill="grey" stroke="grey" stroke-width="2" points="333.246,-190.355 330.931,-180.016 326.294,-189.542 333.246,-190.355"/>
</g>
<!-- 21 -->
<g id="node22" class="node"><title>21</title>
<path fill="none" stroke="#c6d856" stroke-width="2" d="M252.104,-756C252.104,-756 170.104,-756 170.104,-756 164.104,-756 158.104,-750 158.104,-744 158.104,-744 158.104,-732 158.104,-732 158.104,-726 164.104,-720 170.104,-720 170.104,-720 252.104,-720 252.104,-720 258.104,-720 264.104,-726 264.104,-732 264.104,-732 264.104,-744 264.104,-744 264.104,-750 258.104,-756 252.104,-756"/>
<text text-anchor="middle" x="211.104" y="-735.5" font-family="sans" font-size="10.00">deduplicate_reads</text>
</g>
<!-- 12&#45;&gt;21 -->
<g id="edge36" class="edge"><title>12&#45;&gt;21</title>
<path fill="none" stroke="grey" stroke-width="2" d="M286.642,-791.876C273.809,-782.893 257.908,-771.763 244.01,-762.034"/>
<polygon fill="grey" stroke="grey" stroke-width="2" points="245.861,-759.057 235.661,-756.19 241.846,-764.792 245.861,-759.057"/>
</g>
<!-- 13 -->
<g id="node14" class="node"><title>13</title>
<path fill="none" stroke="#d89556" stroke-width="2" d="M493.104,-972C493.104,-972 463.104,-972 463.104,-972 457.104,-972 451.104,-966 451.104,-960 451.104,-960 451.104,-948 451.104,-948 451.104,-942 457.104,-936 463.104,-936 463.104,-936 493.104,-936 493.104,-936 499.104,-936 505.104,-942 505.104,-948 505.104,-948 505.104,-960 505.104,-960 505.104,-966 499.104,-972 493.104,-972"/>
<text text-anchor="middle" x="478.104" y="-951.5" font-family="sans" font-size="10.00">align</text>
</g>
<!-- 13&#45;&gt;2 -->
<g id="edge13" class="edge"><title>13&#45;&gt;2</title>
<path fill="none" stroke="grey" stroke-width="2" d="M467.722,-935.697C462.84,-927.559 456.918,-917.689 451.525,-908.701"/>
<polygon fill="grey" stroke="grey" stroke-width="2" points="454.513,-906.879 446.367,-900.104 448.511,-910.48 454.513,-906.879"/>
</g>
<!-- 14&#45;&gt;3 -->
<g id="edge14" class="edge"><title>14&#45;&gt;3</title>
<path fill="none" stroke="grey" stroke-width="2" d="M477.19,-791.871C478.724,-767.67 481.542,-723.211 483.368,-694.393"/>
<polygon fill="grey" stroke="grey" stroke-width="2" points="486.875,-694.391 484.015,-684.189 479.889,-693.948 486.875,-694.391"/>
</g>
<!-- 15 -->
<g id="node16" class="node"><title>15</title>
<path fill="none" stroke="#d85656" stroke-width="2" d="M593.104,-1044C593.104,-1044 555.104,-1044 555.104,-1044 549.104,-1044 543.104,-1038 543.104,-1032 543.104,-1032 543.104,-1020 543.104,-1020 543.104,-1014 549.104,-1008 555.104,-1008 555.104,-1008 593.104,-1008 593.104,-1008 599.104,-1008 605.104,-1014 605.104,-1020 605.104,-1020 605.104,-1032 605.104,-1032 605.104,-1038 599.104,-1044 593.104,-1044"/>
<text text-anchor="middle" x="574.104" y="-1023.5" font-family="sans" font-size="10.00">trimming</text>
</g>
<!-- 15&#45;&gt;4 -->
<g id="edge15" class="edge"><title>15&#45;&gt;4</title>
<path fill="none" stroke="grey" stroke-width="2" d="M574.104,-1007.87C574.104,-983.67 574.104,-939.211 574.104,-910.393"/>
<polygon fill="grey" stroke="grey" stroke-width="2" points="577.604,-910.189 574.104,-900.189 570.604,-910.189 577.604,-910.189"/>
</g>
<!-- 15&#45;&gt;5 -->
<g id="edge16" class="edge"><title>15&#45;&gt;5</title>
<path fill="none" stroke="grey" stroke-width="2" d="M579.578,-1007.73C587.071,-983.729 600.668,-938.843 610.104,-900 621.467,-853.225 631.766,-798.086 637.459,-765.983"/>
<polygon fill="grey" stroke="grey" stroke-width="2" points="640.925,-766.479 639.207,-756.024 634.03,-765.268 640.925,-766.479"/>
</g>
<!-- 15&#45;&gt;13 -->
<g id="edge27" class="edge"><title>15&#45;&gt;13</title>
<path fill="none" stroke="grey" stroke-width="2" d="M550.374,-1007.7C538.167,-998.796 523.119,-987.823 509.92,-978.199"/>
<polygon fill="grey" stroke="grey" stroke-width="2" points="511.704,-975.168 501.562,-972.104 507.58,-980.824 511.704,-975.168"/>
</g>
<!-- 16&#45;&gt;6 -->
<g id="edge17" class="edge"><title>16&#45;&gt;6</title>
<path fill="none" stroke="grey" stroke-width="2" d="M197.071,-431.697C198.393,-423.983 199.982,-414.712 201.456,-406.112"/>
<polygon fill="grey" stroke="grey" stroke-width="2" points="204.932,-406.552 203.172,-396.104 198.033,-405.369 204.932,-406.552"/>
</g>
<!-- 17&#45;&gt;7 -->
<g id="edge18" class="edge"><title>17&#45;&gt;7</title>
<path fill="none" stroke="grey" stroke-width="2" d="M62.9441,-287.849C62.5981,-250.832 61.7789,-163.181 61.3603,-118.386"/>
<polygon fill="grey" stroke="grey" stroke-width="2" points="64.8588,-118.199 61.2654,-108.232 57.8591,-118.265 64.8588,-118.199"/>
</g>
<!-- 18&#45;&gt;8 -->
<g id="edge19" class="edge"><title>18&#45;&gt;8</title>
<path fill="none" stroke="grey" stroke-width="2" d="M159.104,-287.697C159.104,-279.983 159.104,-270.712 159.104,-262.112"/>
<polygon fill="grey" stroke="grey" stroke-width="2" points="162.604,-262.104 159.104,-252.104 155.604,-262.104 162.604,-262.104"/>
</g>
<!-- 19 -->
<g id="node20" class="node"><title>19</title>
<path fill="none" stroke="#d86e56" stroke-width="2" d="M223.104,-684C223.104,-684 141.104,-684 141.104,-684 135.104,-684 129.104,-678 129.104,-672 129.104,-672 129.104,-660 129.104,-660 129.104,-654 135.104,-648 141.104,-648 141.104,-648 223.104,-648 223.104,-648 229.104,-648 235.104,-654 235.104,-660 235.104,-660 235.104,-672 235.104,-672 235.104,-678 229.104,-684 223.104,-684"/>
<text text-anchor="middle" x="182.104" y="-663.5" font-family="sans" font-size="10.00">hq_mapped_reads</text>
</g>
<!-- 19&#45;&gt;9 -->
<g id="edge21" class="edge"><title>19&#45;&gt;9</title>
<path fill="none" stroke="grey" stroke-width="2" d="M167.94,-647.851C160.414,-637.93 151.607,-624.89 146.104,-612 137.691,-592.293 132.86,-568.488 130.176,-550.458"/>
<polygon fill="grey" stroke="grey" stroke-width="2" points="133.614,-549.764 128.802,-540.326 126.678,-550.705 133.614,-549.764"/>
</g>
<!-- 20 -->
<g id="node21" class="node"><title>20</title>
<path fill="none" stroke="#5692d8" stroke-width="2" d="M197.104,-612C197.104,-612 167.104,-612 167.104,-612 161.104,-612 155.104,-606 155.104,-600 155.104,-600 155.104,-588 155.104,-588 155.104,-582 161.104,-576 167.104,-576 167.104,-576 197.104,-576 197.104,-576 203.104,-576 209.104,-582 209.104,-588 209.104,-588 209.104,-600 209.104,-600 209.104,-606 203.104,-612 197.104,-612"/>
<text text-anchor="middle" x="182.104" y="-591.5" font-family="sans" font-size="10.00">index</text>
</g>
<!-- 19&#45;&gt;20 -->
<g id="edge35" class="edge"><title>19&#45;&gt;20</title>
<path fill="none" stroke="grey" stroke-width="2" d="M182.104,-647.697C182.104,-639.983 182.104,-630.712 182.104,-622.112"/>
<polygon fill="grey" stroke="grey" stroke-width="2" points="185.604,-622.104 182.104,-612.104 178.604,-622.104 185.604,-622.104"/>
</g>
<!-- 20&#45;&gt;9 -->
<g id="edge20" class="edge"><title>20&#45;&gt;9</title>
<path fill="none" stroke="grey" stroke-width="2" d="M168.509,-575.697C161.982,-567.389 154.036,-557.277 146.858,-548.141"/>
<polygon fill="grey" stroke="grey" stroke-width="2" points="149.474,-545.805 140.543,-540.104 143.97,-550.13 149.474,-545.805"/>
</g>
<!-- 21&#45;&gt;19 -->
<g id="edge34" class="edge"><title>21&#45;&gt;19</title>
<path fill="none" stroke="grey" stroke-width="2" d="M203.936,-719.697C200.67,-711.813 196.73,-702.304 193.102,-693.546"/>
<polygon fill="grey" stroke="grey" stroke-width="2" points="196.251,-692.003 189.19,-684.104 189.784,-694.683 196.251,-692.003"/>
</g>
</g>
</svg>
